<?xml version="1.0" encoding="utf-8"?>
<!DOCTYPE svg PUBLIC "-//W3C//DTD SVG 20010904//EN" "http://www.w3.org/TR/2001/REC-SVG-20010904/DTD/svg10.dtd">
<svg version="1.0" xmlns="http://www.w3.org/2000/svg" width="114px" height="164px" viewBox="0 0 114 164" preserveAspectRatio="xMidYMid meet">
 <g fill="none" stroke="#000000" stroke-width="1">
  <path d="M54.8 8.4C56.5 8.2 58.5 8.5 60.2 8.7C69 9.2 76.4 13.2 83.8 17.7C87 19.5 91 21.2 93 24.4C93.8 26 94.1 28 94.7 29.7C96.1 34.2 97.4 38.8 99 43.4C100 46.2 101.1 49.1 101.7 52.2C102.7 59.5 102 67.5 101.7 74.8C101.2 83.7 101.8 92.8 100.4 101.7C100.1 103 99.5 104 99.2 105.2C99 106.5 99 107.8 98.7 109.1C97.8 112.2 95.8 115.2 94.4 118.1C92.4 122.1 90.8 126.7 88.1 130.2C86.5 132.2 84.4 133.7 82.5 135.1C76.5 140.1 70.1 143.2 62.4 144.4C49.7 146.1 37.2 143.2 28 133.8C26.1 131.8 24.8 129.7 23.5 127.4C22.7 126.2 21.7 125.1 21 123.8C18.7 119 18.7 114 17.8 108.8C17.2 106.2 16.2 104 15.7 101.4C14.7 96.5 14.2 91.7 13.8 86.8C12.7 76.4 7.1 67.1 7.5 56.4C7.7 52.2 9.4 48.1 10.7 44.2C12.2 39.5 14 34.4 16.7 30.1C18.4 27.4 20.7 25 23.1 22.8C28 18.4 33.5 14 39.7 11.4C44.5 9.4 49.7 9.1 54.8 8.4"/>
 </g>
</svg>