<?xml version="1.0" encoding="utf-8"?>
<!DOCTYPE svg PUBLIC "-//W3C//DTD SVG 20010904//EN" "http://www.w3.org/TR/2001/REC-SVG-20010904/DTD/svg10.dtd">
<svg version="1.0" xmlns="http://www.w3.org/2000/svg" width="114px" height="164px" viewBox="0 0 114 164" preserveAspectRatio="xMidYMid meet">
 <g fill="#211715">
  <path d="M46.1 143.1 c-5.5 -1.5 -11.1 -4.3 -11.1 -5.8 0 -1.8 4.1 -3.3 9 -3.3 2.1 0 5 0.4 6.4 1 2.1 0.7 2.6 0.6 2.6 -0.5 0 -1 1.1 -1.5 3.5 -1.5 1.9 0 3.5 0.5 3.5 1.1 0 0.8 0.5 0.8 1.5 -0.1 0.8 -0.7 3 -1 4.9 -0.8 2.9 0.3 3.6 0 3.8 -1.7 0.2 -1.6 1.2 -2.1 4.6 -2.3 2.3 -0.2 4.2 -0.7 4.2 -1.3 0 -0.5 0.7 -0.9 1.5 -0.9 0.8 0 1.5 -0.9 1.5 -2 0 -1.7 0.7 -2 4 -2 2.2 0 4 0.4 4 1 0 4.2 -11.9 14.6 -20.1 17.6 -5.1 1.8 -18.9 2.7 -23.8 1.5z"/>
  <path d="M11.9 73.3 c-4 -9.4 -3.1 -27.3 1.5 -28.1 1 -0.2 2.2 0.2 2.7 1 0.6 0.8 0.9 -0.1 0.9 -2.7 0.1 -3.7 0.4 -4.2 4.5 -6.2 2.5 -1.3 5.9 -2.3 7.6 -2.3 l3.2 0 -0.8 7.2 c-0.4 4.5 -1.3 8 -2.5 9.5 -1 1.2 -2.1 3.8 -2.4 5.7 -0.4 2 -1.9 4.5 -3.5 5.9 -1.6 1.3 -3.2 3.8 -3.6 5.5 -0.3 1.8 -1.3 3.2 -2.1 3.2 -0.9 0 -1.4 1.1 -1.4 3 0 4.4 -1.8 3.7 -4.1 -1.7z"/>
  <path d="M45.2 30.3 l0.3 -3.8 5.3 -0.3 5.3 -0.3 -0.3 3.8 -0.3 3.8 -5.3 0.3 -5.3 0.3 0.3 -3.8z"/>
  <path d="M79 29 l0 -4.1 6.3 0.3 c6.1 0.3 6.2 0.3 6.5 3.4 0.3 2.8 0 3.2 -2.9 3.8 -1.7 0.3 -4.7 0.6 -6.5 0.6 -3.3 0 -3.4 -0.1 -3.4 -4z"/>
  <path d="M18 31.1 c0 -0.6 1.4 -2.5 3 -4.3 l3 -3.3 -0.2 4 c-0.3 3.5 -0.6 4 -3 4.3 -1.6 0.2 -2.8 -0.1 -2.8 -0.7z"/>
  <path d="M42 16.5 c0 -3.3 0.2 -3.5 3.5 -3.5 3.3 0 3.5 0.2 3.5 3.5 0 3.3 -0.2 3.5 -3.5 3.5 -3.3 0 -3.5 -0.2 -3.5 -3.5z"/>
 </g>
 <g fill="#2f2321">
  <path d="M47.2 142.4 c-1.3 -0.9 -3.1 -1.3 -4.2 -0.9 -1.4 0.5 -2 0.2 -2 -0.9 0 -1 0.9 -1.6 2.5 -1.6 1.4 0 2.5 -0.5 2.5 -1 0 -1.2 -6 -0.4 -7.4 1 -1.3 1.3 -3.8 -0.3 -9.6 -6.1 -6.4 -6.3 -6.5 -7.9 -0.5 -7.9 3.3 0 4.5 0.4 4.5 1.5 0 0.8 0.5 1.5 1 1.5 0.6 0 1 1.2 1 2.6 0 2.9 -0.5 2.9 13.8 0.4 6 -1.1 7.7 -1.1 9.7 0 2.2 1.2 2.7 1.1 3.8 -0.4 0.7 -1 3.3 -2.2 5.8 -2.8 2.4 -0.5 5.9 -1.2 7.6 -1.6 1.8 -0.4 4.8 -2.2 6.7 -3.9 3.4 -3.3 8.7 -4.5 10.1 -2.3 0.7 1.1 -5.8 10.8 -8.5 12.7 -1.2 0.9 -2.1 1 -2.5 0.3 -0.3 -0.5 -1.1 -1 -1.7 -1 -0.7 0 -0.6 0.6 0.2 1.5 1 1.2 0.9 1.5 -0.4 1.5 -0.9 0 -1.9 0.6 -2.2 1.4 -0.4 0.9 -1.9 1.3 -5 1.1 -4.1 -0.3 -4.4 -0.2 -4.4 2 0 1.3 -0.5 2.7 -1.2 3.1 -0.7 0.4 -0.8 0.3 -0.4 -0.4 0.4 -0.6 0.4 -2.2 0 -3.6 -0.5 -2.1 -0.9 -2.3 -2.4 -1.3 -1 0.6 -1.6 1.5 -1.4 1.9 0.3 0.5 1 0.6 1.5 0.3 0.5 -0.4 0.9 -0.3 0.9 0.2 -0.1 2.7 -14 5.9 -14 3.2 0 -0.6 0.7 -0.8 1.8 -0.4 1.3 0.5 1.4 0.3 0.5 -0.6 -1.4 -1.4 -4.7 -0.4 -3.8 1.1 0.9 1.4 0.3 1.3 -2.3 -0.6z m28.1 -7 c0.9 -0.9 -0.4 -3.5 -1.4 -2.8 -0.5 0.3 -0.9 1.2 -0.9 2 0 1.4 1.2 1.9 2.3 0.8z"/>
  <path d="M52 97.5 c0 -3.3 0.2 -3.5 3.5 -3.5 3.3 0 3.5 0.2 3.5 3.5 0 3.3 -0.2 3.5 -3.5 3.5 -3.3 0 -3.5 -0.2 -3.5 -3.5z"/>
  <path d="M59 88.5 c0 -3.3 0.2 -3.5 3.5 -3.5 3.3 0 3.5 0.2 3.5 3.5 0 3.3 -0.2 3.5 -3.5 3.5 -3.3 0 -3.5 -0.2 -3.5 -3.5z"/>
  <path d="M14.7 86.3 c-0.4 -0.3 -0.7 -2.1 -0.7 -4 0 -3 0.3 -3.3 3 -3.3 2.8 0 3 0.2 3 4 0 3.5 -0.3 4 -2.3 4 -1.3 0 -2.7 -0.3 -3 -0.7z"/>
  <path d="M13 73.9 c0 -1.6 -0.4 -2.8 -0.9 -2.5 -1.2 0.8 -2.1 -1.7 -2.8 -8.5 -0.5 -4.9 -0.3 -6.1 1.6 -8.5 2.5 -3.2 3 -7.4 0.6 -5.4 -1.2 1 -1.1 0.2 0.4 -4.2 4.6 -13.3 12.7 -23.9 21.7 -28.2 2.1 -1 5.1 -2.5 6.6 -3.3 1.4 -0.7 4.5 -1.3 6.7 -1.3 l4.1 0 0 4 c0 3.4 -0.4 4.1 -2.5 4.6 -1.7 0.4 -2.5 1.3 -2.5 2.8 0 2 0.5 2.2 5.3 2.1 l5.2 0 0 3.9 c0 3.6 -0.3 4 -3.5 5.2 -4.2 1.5 -12 1.8 -12 0.4 0 -0.5 -0.7 -1 -1.5 -1 -0.9 0 -1.5 0.9 -1.5 2.5 0 2 -0.5 2.5 -2.4 2.5 -2.4 0 -3.6 2.8 -3.6 8.7 0 1.3 -1.1 3.9 -2.4 5.6 -1.3 1.8 -2.7 4.3 -3.1 5.6 -0.4 1.4 -2 4.2 -3.6 6.4 -1.6 2.2 -2.9 5.3 -2.9 6.9 0 1.8 -0.5 2.8 -1.5 2.8 -0.8 0 -1.5 0.5 -1.5 1 0 0.6 -0.9 1 -2 1 -1.6 0 -2 -0.7 -2 -3.1z m3.9 -9.2 c0.1 -0.5 -0.3 -0.5 -0.9 -0.2 -0.5 0.3 -1 1.6 -0.9 2.8 0 2.1 0.1 2.1 0.9 0.2 0.5 -1.1 0.9 -2.4 0.9 -2.8z m-2.8 0.6 c0.6 -1.6 1.2 -3.3 1.3 -4 0.1 -0.6 1.5 -2.4 3.1 -4 6 -5.9 12.6 -15.3 7.7 -11 -1.1 1.1 -2.5 1.6 -3.1 1.3 -1 -0.7 -7.1 5 -7.1 6.5 0 0.5 -0.7 0.9 -1.5 0.9 -1.5 0 -2.6 4.4 -2.2 9.7 0.2 4 0.5 4.1 1.8 0.6z m9.2 -9.6 c0.5 -1.7 0 -1.5 -2.4 1.3 -1.6 1.9 -2.9 3.9 -2.9 4.4 0 1.7 4.8 -3.5 5.3 -5.7z m3.2 -14.9 c1.4 -0.6 2.5 -1.5 2.5 -2 0 -0.5 -1.3 -0.2 -3 0.7 -4.5 2.3 -4.1 3.4 0.5 1.3z m4.5 -7.8 c0 -0.5 1.1 -1 2.5 -1 1.6 0 2.5 -0.6 2.5 -1.5 0 -1 -1 -1.5 -3.4 -1.5 -2.8 0 -3.4 0.4 -3.8 2.5 -0.4 1.7 -0.1 2.5 0.8 2.5 0.8 0 1.4 -0.4 1.4 -1z m21.5 -3 c0.3 -0.5 -0.3 -1 -1.4 -1 -1.1 0 -2.3 0.5 -2.6 1 -0.3 0.6 0.3 1 1.4 1 1.1 0 2.3 -0.4 2.6 -1z"/>
  <path d="M72 72.1 c0 -5 0.9 -6.1 5.1 -6.1 3.7 0 3.9 0.2 3.9 3.1 0 1.7 -0.6 3.7 -1.4 4.5 -0.8 0.8 -2.8 1.4 -4.5 1.4 -2.8 0 -3.1 -0.3 -3.1 -2.9z"/>
  <path d="M93 72 c0 -0.5 -1.1 -1 -2.5 -1 -2.2 0 -2.5 -0.4 -2.5 -3.5 0 -3.3 0.2 -3.5 3.5 -3.5 1.9 0 3.5 0.5 3.5 1 0 0.6 1.1 1 2.4 1 2.2 0 2.4 0.4 2.3 3.5 -0.2 3.2 -0.4 3.5 -3.4 3.5 -1.8 0 -3.3 -0.4 -3.3 -1z"/>
  <path d="M91.7 45.3 c-0.4 -0.3 -0.7 -2.1 -0.7 -4 0 -2.8 0.4 -3.3 2.3 -3.3 1.7 0 2.6 0.9 3.5 3.3 0.7 1.8 1.2 3.6 1.2 4 0 0.9 -5.5 0.9 -6.3 0z"/>
  <path d="M73.5 35 c-0.4 -0.7 -2.8 -0.8 -6.6 -0.4 l-5.9 0.7 0 -3.6 c0 -3.8 1.1 -4.7 6.3 -4.7 1.8 -0.1 5.9 -0.7 9.2 -1.5 3.3 -0.8 7.9 -1.5 10.2 -1.5 4 0 4.3 0.2 5.2 3.6 1.3 4.7 -0.1 7 -4.8 7.8 -5.7 0.9 -12.9 0.7 -13.6 -0.4z m11.5 -6 c0 -0.5 -0.7 -1 -1.5 -1 -0.8 0 -1.5 0.5 -1.5 1 0 0.6 0.7 1 1.5 1 0.8 0 1.5 -0.4 1.5 -1z"/>
  <path d="M57 22.5 c0 -3.5 0 -3.5 4.5 -3.5 4.5 0 4.5 0 4.5 3.5 0 3.5 0 3.5 -4.5 3.5 -4.5 0 -4.5 0 -4.5 -3.5z"/>
 </g>
 <g fill="#3c2d2a">
  <path d="M57.9 139.8 c-0.1 -0.7 -0.1 -1.9 0 -2.6 0.1 -0.8 -0.6 -2 -1.6 -2.7 -1.5 -1.1 -2 -1 -3.9 1.2 -2 2.4 -2.3 2.4 -5.1 0.9 -1.7 -0.8 -3.3 -1.3 -3.6 -1 -0.3 0.3 -2.5 0.8 -4.8 1 -2.3 0.2 -4.4 0.5 -4.6 0.7 -0.7 0.7 -8.1 -7 -10.7 -11 -3.3 -5.4 -3.3 -6.3 0.4 -6.3 2.3 0 3 0.4 3 2 0 1.5 0.7 2 2.8 2 1.8 0 3.7 1.1 5.9 3.5 3.2 3.5 7.5 4.7 8.8 2.5 0.9 -1.5 14.2 -1.3 14.7 0.2 0.3 0.8 1.1 0.7 2.8 -0.5 1.4 -0.9 3.4 -1.7 4.7 -1.7 1.2 0 2.5 -0.4 2.8 -1 0.3 -0.5 2.3 -1 4.3 -1 4.1 -0.1 6 -1.2 8.6 -5.2 1 -1.6 2.6 -2.8 3.6 -2.8 1 0 2 -0.7 2.4 -1.5 0.7 -1.8 6.6 -2.1 6.6 -0.2 0 0.6 -1.1 2.9 -2.4 5.1 -1.9 3.1 -2.4 3.5 -3 2.1 -0.5 -1.5 -1 -1.3 -3.9 1.5 -4.7 4.7 -8 6.7 -8.5 5.2 -0.3 -0.9 -0.9 -0.9 -2.5 0 -1.2 0.6 -2.5 1.6 -2.9 2.1 -0.4 0.7 -1.1 0.7 -2.2 -0.2 -1.2 -1 -1.8 -0.9 -3.5 0.8 -1.2 1.2 -2.7 2.1 -3.4 2.1 -1.5 0 -3.7 2 -3.7 3.3 0 0.4 0.5 0.5 1 0.2 0.6 -0.3 1 0.1 1 0.9 0 1.9 -2.9 2.2 -3.1 0.4z m-6.9 -4.8 c0 -0.5 -0.7 -1 -1.5 -1 -0.8 0 -1.5 0.5 -1.5 1 0 0.6 0.7 1 1.5 1 0.8 0 1.5 -0.4 1.5 -1z m-19 -3 c0 -0.5 -0.4 -1 -1 -1 -0.5 0 -1 -0.6 -1 -1.3 0 -0.8 -0.7 -1.4 -1.5 -1.4 -1.9 0 -1.9 0.6 0.2 2.9 1.8 2 3.3 2.4 3.3 0.8z"/>
  <path d="M67 135.1 c0 -1.2 0.5 -2.1 1 -2.1 0.6 0 1 0.6 1 1.4 0 0.8 -0.4 1.8 -1 2.1 -0.5 0.3 -1 -0.3 -1 -1.4z"/>
  <path d="M19 109.1 c0 -1.1 -0.3 -2.6 -0.6 -3.5 -0.5 -1.2 0 -1.6 2 -1.6 2.3 0 2.6 0.4 2.6 3.5 0 2.8 -0.4 3.5 -2 3.5 -1.3 0 -2 -0.7 -2 -1.9z"/>
  <path d="M51.2 97.3 c0.3 -3.7 0.4 -3.8 4.6 -4.1 l4.2 -0.3 0 4 0 4.1 -4.6 0 -4.5 0 0.3 -3.7z"/>
  <path d="M58.2 88.3 c0.3 -3.6 0.5 -3.8 4.1 -4.1 l3.8 -0.3 -0.3 3.8 c-0.3 3.6 -0.5 3.8 -4.1 4.1 l-3.8 0.3 0.3 -3.8z"/>
  <path d="M14.6 85.8 c-1.7 -8.5 -1.4 -15 0.7 -14.2 0.7 0.2 1.3 -0.7 1.4 -2.2 0 -1.5 1.5 -4.6 3.1 -6.9 1.6 -2.3 3.3 -5.3 3.7 -6.6 0.4 -1.3 1.8 -3.8 3.1 -5.6 1.3 -1.7 2.4 -3.8 2.4 -4.7 0 -2 -3.8 -1.7 -7.3 0.7 -1.6 1.1 -2.7 1.4 -2.7 0.7 0 -1.4 2.5 -4 3.8 -4 1.9 0 7.2 -3.5 7.2 -4.7 0 -2 -2.7 -1.5 -6.9 1.3 -2.9 1.9 -4.2 3.6 -5.1 6.9 -0.7 2.4 -2.1 5.2 -3.1 6.1 -2.5 2.3 -2.4 0.9 0.6 -5.1 2.2 -4.6 2.3 -5.1 0.8 -6.5 -1.4 -1.4 -1.5 -1.3 -1 1 0.6 2.4 -1.5 6 -3.5 6 -1 0 -0.4 -2.4 1.9 -8 1.1 -2.7 1.6 -3.2 2.3 -2 0.8 1.2 1 1.1 1.1 -0.5 0 -1.1 0.9 -3.3 2 -5 1 -1.6 2.3 -3.9 2.8 -5 1.7 -3.7 10.9 -11.5 13.5 -11.5 0.9 0 1.6 -0.5 1.6 -1 0 -3 24.8 -7 25.8 -4.1 0.2 0.6 1.9 1.1 3.8 1.1 3.2 0 3.4 0.2 3.4 3.5 0 2.4 -0.5 3.5 -1.5 3.5 -1 0 -1.5 1.1 -1.5 3.5 0 4 2.6 5 3.2 1.3 0.2 -1.8 1.1 -2.4 3.6 -2.6 1.7 -0.2 3.2 -0.7 3.2 -1.3 0 -1.5 5.6 -1 8.9 0.9 1.7 0.9 3.1 2.5 3.1 3.5 0 0.9 0.6 1.7 1.3 1.7 1.2 0 4.2 9.5 3.7 11.6 -0.1 0.4 0.3 1 0.9 1.3 0.6 0.4 1.7 2.3 2.6 4.4 1.5 3.7 1.5 3.7 -0.9 3.7 -4.3 0 -5.6 -1 -5.6 -4.5 0 -3.3 0 -3.4 -5.7 -4 -3.2 -0.4 -8.3 -1.3 -11.4 -2.1 -3.1 -0.8 -7.5 -1.4 -9.7 -1.4 -3.4 0 -4.1 -0.4 -4.5 -2.3 -0.4 -2 -0.4 -2 -0.6 -0.1 -0.2 2.9 -3.4 4.2 -12.3 4.9 -6.8 0.6 -7.8 0.9 -7.8 2.6 0 1.4 -0.7 1.9 -2.5 1.9 -2.1 0 -2.5 0.5 -2.5 3.1 0 3.5 -3.8 12.9 -5.2 12.9 -1.5 0 -3.8 2.7 -3.8 4.4 0 0.8 -0.7 1.9 -1.5 2.4 -1.8 0.9 -3.5 10.2 -2.8 14.9 0.8 5.3 -0.4 8.3 -3.2 8.3 -1.8 0 -2.6 -0.6 -2.9 -2.2z m8.4 -47.9 c0 -0.6 -0.7 -0.6 -2 0.1 -1.1 0.6 -2 1.5 -2 2.1 0 0.6 0.7 0.6 2 -0.1 1.1 -0.6 2 -1.5 2 -2.1z m28.6 -7 c1.9 -0.7 2.4 -1.3 1.7 -2 -1.1 -1.1 -7.7 1.3 -8.8 3.2 -0.6 0.9 3.3 0.3 7.1 -1.2z m28.4 0.6 c-0.7 -0.9 -1 -1.8 -0.7 -2.1 0.3 -0.3 1.1 0.3 1.8 1.5 1.3 1.9 1.4 1.9 3.2 0.3 1.3 -1.2 2 -1.3 2.5 -0.5 0.5 0.9 1.1 0.6 2 -0.7 0.8 -1.3 0.8 -2.1 0.1 -2.5 -1.2 -0.8 -9 0.4 -10.5 1.6 -0.7 0.6 -1.6 0.9 -2 0.8 -0.5 -0.1 -1.6 -0.1 -2.4 0 -2 0.2 2.8 2.9 5.4 3 1.5 0.1 1.6 -0.1 0.6 -1.4z m-44.4 -7.1 c1.9 -0.9 3.4 -2 3.4 -2.5 0 -0.5 -0.1 -0.9 -0.3 -0.9 -0.8 0 -8.7 4.1 -8.7 4.5 0 0.9 2.2 0.5 5.6 -1.1z m8.2 -6.3 c2.3 -0.7 4.2 -1.6 4.2 -2.1 0 -1.4 -1.8 -1.2 -4.8 0.4 -1.5 0.8 -4.2 2 -5.9 2.6 -1.8 0.7 -3.3 1.6 -3.3 2.1 0 0.5 1.2 0.3 2.8 -0.5 1.5 -0.8 4.6 -1.9 7 -2.5z m18.2 -2.1 c0 -2.7 -0.3 -3 -3 -3 -2.7 0 -3 0.3 -3 3 0 2.7 0.3 3 3 3 2.7 0 3 -0.3 3 -3z"/>
  <path d="M71 70.5 l0 -4.5 5.1 0 c6.9 0 8.9 1.2 8.9 5.5 l0 3.5 -7 0 -7 0 0 -4.5z"/>
  <path d="M93.1 70.9 c-0.6 -1.8 -1.1 -4.9 -1.1 -7 0 -3.8 0.1 -3.9 3.5 -3.9 3.8 0 3.6 -0.5 4 9.8 0.1 3.9 -0.1 4.2 -2.6 4.2 -2.1 0 -2.9 -0.7 -3.8 -3.1z"/>
  <path d="M10.5 70.1 c-0.3 -0.5 -0.7 -3.6 -1 -6.8 -0.6 -7.3 1.2 -5 2 2.6 0.5 5 0.2 6.1 -1 4.2z"/>
 </g>
 <g fill="#473532">
  <path d="M38.9 136.5 c-0.1 -0.5 -0.1 -1.4 0 -1.9 0.1 -0.5 -0.5 -0.6 -1.3 -0.3 -0.8 0.3 -1.7 0.1 -2 -0.6 -0.3 -0.9 -0.5 -0.9 -0.5 0.1 -0.1 0.6 -0.6 1.2 -1.2 1.2 -0.6 0 -0.8 -0.7 -0.5 -1.6 0.3 -0.9 -0.4 -2.6 -1.8 -4.1 -1.9 -2 -3 -2.4 -5 -1.9 -2.3 0.6 -2.6 0.3 -2.6 -1.9 0 -1.4 -0.6 -2.5 -1.3 -2.5 -1.8 0 -3.9 -7.1 -3.6 -11.8 0.2 -2.1 -0.3 -4.8 -1.1 -6.2 -0.7 -1.4 -1.7 -4.2 -2 -6.2 -0.7 -3.6 -0.6 -3.8 2 -3.8 2.4 0 2.9 0.5 3.4 3.5 0.3 1.9 0.9 5.1 1.2 7 0.3 1.9 1 3.5 1.5 3.5 0.5 0 0.9 1.1 0.9 2.5 0 1.4 0.5 2.5 1 2.5 0.6 0 1 1.4 1 3 0 2 0.6 3.3 1.7 3.7 1 0.4 3.5 2.4 5.7 4.6 2.1 2.1 4.6 3.8 5.5 3.7 0.9 0 6.1 -0.3 11.5 -0.5 12.1 -0.5 15.2 -1.1 16 -3.2 0.5 -1.2 1.7 -1.4 5.3 -1 4.4 0.5 5 0.3 8 -2.9 1.7 -1.9 3.8 -3.4 4.7 -3.4 0.8 0 1.8 -0.9 2.1 -2 0.5 -1.5 1.5 -2 4.5 -2 l3.9 0 -1.1 3.1 c-0.7 2 -1.3 2.7 -1.8 1.9 -0.6 -0.9 -0.9 -0.9 -1.5 0 -0.4 0.7 -0.2 1.6 0.4 2 0.9 0.5 0.8 1 -0.4 2 -1.3 1.1 -1.5 1 -0.9 -0.3 1 -2.8 -3.6 -1.5 -5.3 1.4 -2.1 3.5 -5.7 5.4 -9.3 5.1 -1.5 -0.2 -3.1 0.1 -3.5 0.7 -0.3 0.6 -1.6 1.1 -2.7 1.1 -1.1 0 -3.5 0.9 -5.2 1.9 -3.1 1.9 -8.6 1.9 -8.6 -0.1 0 -0.5 -0.7 -0.5 -1.7 0.1 -1 0.5 -2.6 0.5 -4 0 -1.7 -0.6 -2.5 -0.5 -2.9 0.5 -0.3 0.7 -1.9 1.3 -3.6 1.4 -1.7 0 -3.5 0.7 -3.9 1.4 -0.5 0.7 -0.9 0.9 -1 0.3z"/>
  <path d="M50 98.2 c0 -4.8 1.4 -6.2 6.2 -6.2 3.5 0 3.8 0.2 3.8 2.8 0 6.1 -0.9 7.2 -5.6 7.2 l-4.4 0 0 -3.8z"/>
  <path d="M58 87.5 c0 -3.3 0.2 -3.5 3.5 -3.5 3.3 0 3.5 0.2 3.5 3.5 0 3.3 -0.2 3.5 -3.5 3.5 -3.3 0 -3.5 -0.2 -3.5 -3.5z"/>
  <path d="M95 86.5 c0 -3.2 0.2 -3.5 3 -3.5 3.1 0 3.4 0.7 2.4 4.8 -0.4 1.5 -1.4 2.2 -3 2.2 -2.1 0 -2.4 -0.5 -2.4 -3.5z"/>
  <path d="M14.6 86.8 c-0.3 -1.3 -0.6 -5.2 -0.6 -8.7 0 -5.3 0.2 -6.2 1.4 -5.2 1.6 1.4 2.6 -0.4 2.6 -4.8 0 -1.6 0.8 -3.9 1.9 -5.2 1 -1.3 2.6 -3.9 3.5 -5.7 0.9 -1.8 2.1 -3 2.5 -2.7 0.5 0.2 1.9 -1.8 3.1 -4.7 1.7 -3.9 1.9 -5.3 0.9 -5.8 -0.7 -0.5 -1.8 -0.6 -2.6 -0.3 -2.2 0.9 -1.5 -0.7 2 -4 l3.2 -3.2 -3.3 -0.3 c-2.9 -0.3 -3.2 -0.5 -2 -1.9 1.1 -1.4 1 -1.5 -1 -0.9 -1.2 0.4 -2.2 0.3 -2.2 -0.2 0 -1.6 4.8 -6.2 6.7 -6.4 1 0 2.3 -0.2 3 -0.2 0.6 -0.1 1.5 -0.5 1.9 -0.9 1.2 -1.2 2.4 -0.8 2.4 0.9 0 1.3 -0.7 1.5 -3 1.1 -1.6 -0.4 -3.2 -0.2 -3.5 0.2 -0.6 1 2.3 2.3 3.5 1.6 0.4 -0.3 1.4 0.8 2.1 2.3 1.8 3.5 3.5 3.7 9.9 1.2 4.3 -1.7 5.1 -1.8 4.7 -0.5 -0.8 1.9 0.2 1.9 2.7 0 1.1 -0.8 1.7 -1.8 1.3 -2.1 -0.4 -0.4 -0.1 -1.4 0.6 -2.2 1 -1.3 0.8 -1.5 -1.3 -0.9 -1.4 0.4 -3.2 0.7 -4.1 0.7 -0.9 0 -3.4 1.1 -5.5 2.5 l-3.9 2.6 3.3 -3.1 c1.8 -1.6 3.9 -3 4.7 -3 0.8 0 1.5 -0.6 1.5 -1.4 0 -0.8 0.5 -1.8 1.2 -2.2 0.7 -0.5 0.9 -0.2 0.6 0.7 -0.4 1.1 0.3 1.4 3.6 1.1 2.7 -0.2 3.7 0 2.7 0.6 -0.9 0.6 1.6 1.2 7.5 1.7 7.9 0.6 8.6 0.9 6.9 2.1 -2.4 1.8 -1.3 2.8 4.5 4.2 4.5 1.1 4.8 1 6.5 -2.3 0.3 -0.6 0.7 -0.5 1.1 0.3 0.3 0.6 1.2 1.2 2 1.2 0.8 0 1.4 0.7 1.4 1.5 0 1.1 0.7 1.4 2.5 0.9 1.5 -0.4 2.5 -0.2 2.5 0.5 0 0.6 -0.9 1.1 -2 1.1 -1.1 0 -2 0.7 -2 1.5 0 1.1 -1.1 1.5 -4 1.5 -2.2 0 -4 -0.4 -4 -0.9 0 -1 -5.2 -1.9 -16.3 -2.7 -8.7 -0.7 -11.5 0.4 -14.2 5.6 -1.3 2.6 -2.1 3 -5.5 3 -2.7 0 -4 -0.4 -4 -1.3 0 -0.9 -1 -1.2 -3 -0.9 -2.4 0.3 -3 0.9 -3 2.8 0 1.9 -2.5 6.8 -5.7 10.9 -7.4 9.5 -8.2 11.4 -8.8 19.7 -0.9 11.9 -1.1 12.8 -3.9 12.8 -1.6 0 -2.6 -0.7 -3 -2.2z m2.6 -7.8 c-0.4 -2.7 -0.7 -3.1 -1.2 -1.6 -0.9 2.5 0 8.3 1 6.5 0.4 -0.8 0.5 -3 0.2 -4.9z m18.5 -41.4 c-0.3 -0.7 0 -1.9 0.6 -2.5 1.4 -1.4 -0.3 -1.4 -2.3 0 -1.1 0.8 -1.2 1.2 -0.2 1.6 0.6 0.2 1 0.9 0.6 1.4 -0.3 0.5 0 0.9 0.6 0.9 0.7 0 1 -0.6 0.7 -1.4z m32.9 -7.2 c1.8 -1.5 1.8 -1.5 -1.1 -0.9 -3.7 0.8 -5.7 2.5 -2.9 2.5 1.1 0 2.9 -0.7 4 -1.6z"/>
  <path d="M94 78.3 c0 -5.5 -1 -7.3 -4.1 -7.3 -2.6 0 -2.9 -0.3 -2.9 -3.5 0 -2.8 0.4 -3.5 2 -3.5 1.8 0 2 -0.7 2 -5.5 l0 -5.5 3.4 0 c3.3 0 3.4 0 4.2 5.8 0.4 3.1 0.9 7.5 1 9.7 0.1 2.2 0.6 5.9 0.9 8.3 l0.8 4.2 -3.7 0 c-3.3 0 -3.6 -0.3 -3.6 -2.7z"/>
  <path d="M70.7 75.3 c-1.4 -1.3 -0.7 -9.3 0.8 -9.9 0.9 -0.4 1.5 -1.9 1.5 -3.5 0 -2.7 0.3 -2.9 4 -2.9 3.8 0 4 0.1 4 3.3 0 2.4 0.6 3.5 2.3 4.2 1.6 0.7 2.3 2 2.5 4.6 0.3 3.6 0.3 3.6 -4.4 4.3 -6 0.8 -9.9 0.8 -10.7 -0.1z m7.3 -4.8 c1 -1.3 0.9 -1.5 -1.2 -1.5 -1.5 0 -2.5 0.6 -2.5 1.5 0 0.8 0.6 1.5 1.2 1.5 0.7 0 1.8 -0.7 2.5 -1.5z"/>
  <path d="M31 71.8 c0 -4 3.1 -5.8 9.7 -5.8 l4.3 0 0 4.5 0 4.5 -7 0 -7 0 0 -3.2z"/>
  <path d="M32.2 61.3 l0.3 -3.8 7.3 -0.3 7.2 -0.3 0 3.4 c0 3.4 -0.1 3.4 -5.2 4.1 -9.8 1.1 -10 1.1 -9.6 -3.1z"/>
  <path d="M12.3 43.5 c1.7 -5.6 2.5 -4.3 1.8 2.8 -0.1 0.4 -0.7 0.7 -1.5 0.7 -1.2 0 -1.2 -0.6 -0.3 -3.5z"/>
  <path d="M19.6 33.3 c1 -1.8 2.2 -3.3 2.6 -3.3 0.4 0 0.8 -0.7 0.8 -1.5 0 -0.8 0.7 -1.5 1.5 -1.5 0.8 0 1.5 -0.4 1.5 -1 0 -0.5 0.7 -1 1.5 -1 1.8 0 2 -1.6 0.3 -2.4 -1 -0.5 -1 -0.7 0 -1.2 0.7 -0.3 2.3 -1.6 3.5 -2.9 3.5 -3.7 9.9 -6.5 17 -7.3 l6.7 -0.8 0 3.2 c0 3 -0.3 3.3 -4.1 3.9 -4.7 0.8 -3.6 2.5 1.7 2.5 2 0 3.4 0.6 3.8 1.6 0.4 1.2 0.1 1.4 -1.4 0.9 -1.1 -0.4 -4.9 -0.7 -8.4 -0.7 -9.7 0 -10.1 -1.3 -1.3 -3.9 6.3 -1.8 7.5 -2.5 6.5 -3.6 -0.8 -1 -1.4 -1.1 -2.2 -0.3 -0.5 0.5 -1.9 1 -3.1 1 -1.1 0 -2.9 0.6 -4 1.4 -1.1 0.7 -3.7 1.9 -5.7 2.5 -2.1 0.7 -3.8 1.9 -3.8 2.7 0 0.8 -0.5 1.4 -1 1.4 -0.6 0 -4 3 -7.6 6.8 -4.8 4.8 -6.2 5.8 -4.8 3.5z"/>
  <path d="M90 32.5 c-0.7 -0.9 -1 -1.8 -0.6 -2.2 0.3 -0.3 0.6 -0.1 0.6 0.7 0 1 0.3 1 1.5 0 1.3 -1 1.5 -0.9 1.5 0.9 0 2.5 -1.2 2.7 -3 0.6z"/>
  <path d="M89.5 28 c-0.3 -0.5 -1.4 -1 -2.4 -1 -1.3 0 -1.8 -0.8 -1.9 -3 0 -1.6 0.4 -3 0.9 -3 1.6 0 5.9 4.8 5.9 6.5 0 1.7 -1.6 2 -2.5 0.5z"/>
 </g>
 <g fill="#4f403b">
  <path d="M36.5 132.7 c-1 -0.7 -2.7 -2.2 -3.7 -3.4 -1 -1.2 -2.7 -2.5 -3.8 -2.8 -1.1 -0.4 -1.7 -1.1 -1.4 -1.7 0.4 -0.6 0.1 -0.9 -0.7 -0.6 -2.1 0.7 -3.7 -1.6 -3.2 -4.5 0.4 -2 0.1 -2.7 -1.1 -2.7 -1.2 0 -1.4 0.7 -1.1 3.3 0.5 3 0.5 3 -1.1 -0.8 -1 -2.6 -1.4 -5.6 -1 -8.7 0.3 -3.2 0.1 -4.8 -0.6 -4.8 -0.6 0 -0.9 -0.3 -0.5 -0.6 0.3 -0.4 0 -1.3 -0.8 -2.1 -0.8 -0.8 -1.5 -2 -1.5 -2.6 0 -0.7 0.4 -0.6 1 0.3 0.8 1.3 1 1.2 1 -0.3 0 -1 -0.7 -2.5 -1.5 -3.3 -2.3 -2.3 -1.8 -4.4 1 -4.4 2.9 0 4.5 2.6 4.5 7.4 0 2 0.4 3.6 0.9 3.6 0.5 0 1.2 1.8 1.6 3.9 0.4 2.2 1.3 4.5 2.1 5.2 0.8 0.6 1.4 2.2 1.4 3.5 0 1.3 0.5 2.4 1 2.4 0.6 0 1 0.6 1 1.3 0 0.8 1.1 2 2.5 2.7 1.4 0.7 2.5 2.2 2.5 3.2 0 1 0.7 1.8 1.5 1.8 0.8 0 1.5 0.5 1.5 1 0 0.6 0.7 1 1.5 1 0.8 0 1.5 -0.4 1.5 -1 0 -1.1 7.8 -1.3 15.8 -0.4 4.2 0.6 5.2 1 5.2 2.5 0 2 -3.4 2.7 -4.4 1 -0.6 -1 -9.1 -0.9 -10.1 0.1 -0.4 0.4 -1.3 0.4 -2 0.2 -0.7 -0.3 -1.6 -0.1 -2 0.5 -0.8 1.4 -4.5 1.3 -7 -0.2z"/>
  <path d="M66 128.5 c0 -2 0.6 -2.5 3.8 -3 2 -0.4 5 -1.1 6.6 -1.6 1.6 -0.5 4 -0.9 5.2 -0.9 2 0 2.4 -0.5 2.4 -3 0 -1.6 0.5 -3 1.1 -3 0.6 0 1.7 -0.6 2.4 -1.4 2 -2 6.6 -12.2 7.2 -16.2 0.5 -2.8 1 -3.4 2.9 -3.4 2.7 0 3 1.5 1.4 6.4 -0.5 1.7 -2 6.5 -3.2 10.6 -1.2 4.1 -2.3 6.7 -2.6 5.8 -0.5 -2.4 -1.9 -2.3 -2.7 0.2 -0.3 1.1 -1.4 2 -2.2 2 -0.9 0 -2.8 1.4 -4.2 3.1 -2.8 3.3 -10.9 5.8 -12.2 3.7 -0.4 -0.7 -1 -0.5 -1.5 0.4 -0.5 0.8 -1.7 1.7 -2.6 2.1 -1.4 0.5 -1.8 0.1 -1.8 -1.8z"/>
  <path d="M94.5 85.3 c-0.3 -4.9 -1 -9.8 -1.6 -11.1 -0.5 -1.3 -0.9 -4.5 -0.9 -7.2 0 -2.8 -0.4 -5 -1 -5 -0.5 0 -1 0.9 -1 2 0 1.6 -0.7 2 -3.5 2 -3.3 0 -3.5 -0.2 -3.5 -3.5 0 -3.3 0.2 -3.5 3.5 -3.5 3.3 0 3.5 -0.2 3.5 -3.5 0 -3.4 0.1 -3.5 3.9 -3.5 4.2 0 4.1 -0.2 5.6 12.8 0.5 4 0.4 4.3 -1.5 3.7 -1.4 -0.4 -2 -0.2 -2 0.9 0 0.8 0.9 1.7 2 2.1 2.5 0.8 3.5 5.9 2.5 13.9 -0.4 3.3 -0.7 6.7 -0.8 7.4 0 0.6 -1 1.2 -2.3 1.2 -2.1 0 -2.3 -0.5 -2.9 -8.7z m1.2 -23 c-1 -3.2 -1.3 -3.4 -1.5 -1.5 -0.4 2.8 0.4 5.2 1.7 5.2 0.5 0 0.4 -1.6 -0.2 -3.7z"/>
  <path d="M14 75.4 c0 -1.4 0.4 -2.3 1 -1.9 0.6 0.3 1 1.5 1 2.6 0 1 -0.4 1.9 -1 1.9 -0.5 0 -1 -1.2 -1 -2.6z"/>
  <path d="M17.8 74.5 c0.2 -1.9 0.6 -3.5 0.8 -3.5 0.2 0 0.4 1.6 0.4 3.5 0 1.9 -0.4 3.5 -0.8 3.5 -0.4 0 -0.6 -1.6 -0.4 -3.5z"/>
  <path d="M21 71.5 c0 -3.3 0.2 -3.5 3.5 -3.5 3.3 0 3.5 0.2 3.5 3.5 0 3.3 -0.2 3.5 -3.5 3.5 -3.3 0 -3.5 -0.2 -3.5 -3.5z"/>
  <path d="M70 70.5 c0 -3.4 0.1 -3.5 3.8 -3.4 3.1 0 3.4 0.2 1.5 0.9 -2.6 1.1 -2.4 4 0.3 5.1 1.4 0.6 0.9 0.8 -1.8 0.8 -3.7 0.1 -3.8 0 -3.8 -3.4z"/>
  <path d="M31 61.8 c0 -3.2 0.3 -3.6 3.1 -4.2 1.7 -0.3 5.1 -0.6 7.5 -0.6 4.4 0 4.4 0 4.4 3.5 0 3 -0.3 3.5 -2.2 3.5 -1.3 0 -4.7 0.3 -7.5 0.6 l-5.3 0.7 0 -3.5z"/>
  <path d="M73 61.5 c0 -3.3 0.2 -3.5 3.5 -3.5 3.3 0 3.5 0.2 3.5 3.5 0 3.3 -0.2 3.5 -3.5 3.5 -3.3 0 -3.5 -0.2 -3.5 -3.5z"/>
  <path d="M89.3 48 c-1.3 -1.5 -2.3 -3.7 -2.3 -4.9 0 -1.5 -1 -2.3 -4.2 -3.1 -2.4 -0.6 -5.6 -1.6 -7.3 -2.1 -1.6 -0.6 -7.4 -1.3 -12.7 -1.6 -8.7 -0.5 -9.8 -0.4 -9.8 1.1 0 0.9 -0.8 1.6 -2 1.6 -2.9 0 -2.4 -1.6 1.4 -4.5 3 -2.3 4 -2.5 8.3 -1.9 4 0.5 5.2 0.3 7.3 -1.5 l2.5 -2.1 -4.5 0.6 c-2.5 0.3 -5.4 0.7 -6.5 0.9 -1.1 0.2 -2.7 0 -3.5 -0.5 -1 -0.7 -1.1 -1 -0.2 -1 2.5 0 1.1 -2 -1.5 -2.1 -2.8 -0.1 -2.7 -0.1 0.7 -1.6 1.9 -0.9 4.9 -1.9 6.5 -2.3 2.1 -0.4 0.7 -0.7 -4.5 -0.8 -12.6 -0.4 -17.9 -0.7 -18.5 -1.4 -0.3 -0.3 2.8 -1.6 6.9 -2.8 5.2 -1.6 7.3 -2.7 6.9 -3.7 -0.6 -1.7 -3.3 -1.7 -3.3 0 0 0.9 -0.2 0.9 -0.9 -0.1 -0.6 -1.1 -1.6 -0.8 -4.5 1.2 -2 1.3 -5.3 3 -7.1 3.6 -1.9 0.6 -3.5 1.8 -3.5 2.6 0 0.8 -0.5 1.4 -1.1 1.4 -0.7 0 -3.8 2.8 -7 6.2 -3.3 3.4 -5.9 5.8 -5.9 5.3 0 -2 4 -7.5 5.5 -7.5 0.8 0 1.5 -0.4 1.5 -1 0 -0.5 0.7 -1 1.6 -1 1.1 0 1.4 -0.5 1 -1.6 -0.6 -1.5 2.9 -6.3 4.7 -6.4 0.4 0 1.7 -0.9 2.9 -1.9 2.7 -2.6 9.7 -4.2 19.3 -4.3 9.2 -0.2 14 0.8 21.1 4.5 6.1 3.1 14.4 8.5 14.5 9.5 0 0.4 0.2 1.5 0.4 2.5 0.4 1.9 -1 2.3 -2.1 0.6 -0.9 -1.4 -8 -0.6 -15.1 1.7 -5.4 1.7 -7 3.4 -3.3 3.4 1.1 0 4 0.5 6.5 1.2 4.2 1.1 4.6 1.1 6.1 -1 l1.6 -2.3 2.3 2.5 c1.5 1.6 3 2.3 4.2 2 2.1 -0.6 2.9 0.6 6.7 10 2 4.7 1.5 5.6 -3.2 5.5 -2.8 0 -4.2 -0.7 -5.9 -2.9z m-12.3 -23 c1.2 -0.8 1.1 -1 -0.7 -1 -1.2 0 -2.5 0.5 -2.8 1 -0.8 1.3 1.5 1.3 3.5 0z"/>
  <path d="M32.5 46.1 c0.3 -0.5 -0.1 -1.6 -0.9 -2.4 -0.8 -0.8 -1.3 -1.7 -1.1 -2.1 0.3 -0.3 -0.1 -0.2 -0.7 0.4 -0.7 0.5 -1.9 1 -2.7 1 -1 0 -0.7 -0.6 0.9 -1.7 1.4 -0.9 2.9 -2.3 3.3 -3 1.1 -1.8 3 -1.6 2.3 0.2 -0.9 2.4 4.1 1.9 5.4 -0.5 0.6 -1.1 2 -2 3 -2 1.3 0 2 0.7 2 2 0 1.6 -0.7 2 -3 2 -2.3 0 -3 0.4 -3 2 0 1.1 -0.4 2 -1 2 -0.5 0 -1 0.7 -1 1.5 0 0.8 -0.9 1.5 -2.1 1.5 -1.1 0 -1.8 -0.4 -1.4 -0.9z"/>
  <path d="M46 36.5 c0 -1.4 0.8 -2.9 2.1 -3.5 2.8 -1.6 3.1 -1 1.2 2.8 -1.8 3.8 -3.3 4.1 -3.3 0.7z"/>
  <path d="M28.3 34.4 c-0.3 -0.8 -1.2 -1.3 -1.9 -1 -4.3 1.6 -0.6 -4.1 3.9 -6.2 3.6 -1.6 4.5 -1.5 2.2 0.1 -1.7 1.3 -1.6 1.5 1.3 2.5 4.1 1.4 4 3 -0.3 4.8 -4.3 1.8 -4.4 1.7 -5.2 -0.2z"/>
  <path d="M35 27 c0 -0.5 0.7 -1 1.5 -1 0.8 0 1.5 0.5 1.5 1 0 0.6 -0.7 1 -1.5 1 -0.8 0 -1.5 -0.4 -1.5 -1z"/>
 </g>
 <g fill="#64423b">
  <path d="M31.3 127.5 c-3 -3 -5.9 -5.5 -6.3 -5.5 -0.5 0 -0.6 -0.9 -0.3 -2 0.4 -1.4 1.4 -2 3.4 -2 1.6 0 2.9 0.3 2.9 0.8 0 0.4 1.3 2.2 2.9 4 2.8 3 3.4 3.2 11.8 3.7 16.6 1 16.9 0.9 19.8 -1.3 1.8 -1.4 4.2 -2.2 6.6 -2.2 3.5 0 3.9 0.2 3.9 2.6 0 2.3 -0.3 2.6 -2.5 2.2 -1.4 -0.3 -2.8 -0.1 -3.1 0.4 -1.1 1.7 -9.7 4.9 -11.3 4.2 -2.4 -1.1 -15.1 -1.3 -15.1 -0.3 0 0.5 -1.6 0.9 -3.6 0.9 -3 0 -4.5 -0.9 -9.1 -5.5z"/>
  <path d="M77 126 c0 -3.1 6.5 -9 10 -9 2 0 3 0.5 3 1.5 0 0.8 -0.6 1.5 -1.4 1.5 -0.8 0 -2.4 1.3 -3.5 2.9 -1.2 1.6 -3.4 3.4 -5.1 3.9 -2.6 1 -3 0.9 -3 -0.8z"/>
  <path d="M22.7 115.3 c-0.4 -0.3 -0.7 -1.3 -0.7 -2.1 0 -0.8 -0.8 -2.1 -1.7 -2.8 -1.6 -1.2 -1.4 -1.3 2 -1.4 3.6 0 3.7 0.1 3.7 3.5 0 3.3 -1.6 4.6 -3.3 2.8z"/>
  <path d="M39.7 109.3 c-1.4 -0.4 -1.7 -1.3 -1.5 -4.1 0.3 -3.6 0.4 -3.7 4.6 -3.7 3.9 0 4.2 -0.2 4.2 -2.7 0 -3.8 1 -5.8 2.9 -5.9 1 0 1.1 -0.2 0.4 -0.6 -0.7 -0.2 -1.3 -2 -1.3 -3.9 0 -3.3 0.2 -3.4 3.8 -3.4 2 0 6.1 -0.3 9 -0.6 l5.2 -0.7 0 2.9 c0 5.2 1.2 7.3 5.1 9.4 2.2 1.1 4.6 2 5.3 2 2.5 0 4.6 3.6 4.6 7.8 l0 4.2 -7.7 0 c-8.6 0 -9.7 -0.4 -10.7 -3.7 -0.4 -1.3 -1.2 -2.3 -1.7 -2.3 -0.5 0 -0.9 -0.7 -0.9 -1.5 0 -0.9 -0.6 -1.2 -1.5 -0.9 -0.8 0.4 -1.5 1.2 -1.5 1.9 0 1.3 -3 2.5 -6.6 2.5 -1.3 0 -2.4 0.8 -2.7 2 -0.4 1.5 -1.3 2 -3.9 1.9 -1.8 -0.1 -4.1 -0.3 -5.1 -0.6z m17 -11.8 c0.3 -0.9 0.3 -1.9 -0.1 -2.2 -0.7 -0.7 -3.6 1.6 -3.6 2.8 0 1.5 3 1 3.7 -0.6z"/>
  <path d="M16.8 97 c-2.1 -2.4 -3.9 -23.8 -1.9 -22.5 0.7 0.4 1 1.7 0.7 2.9 -0.2 1.1 -0.1 3.7 0.3 5.6 l0.8 3.5 0.7 -2.7 c0.5 -1.5 0.5 -3.1 0.2 -3.7 -1 -1.6 0.5 -6.1 2 -6.1 0.9 0 1.4 -1.1 1.4 -3 0 -1.6 -0.4 -3 -1 -3 -2.1 0 -0.8 -3.4 3.8 -9.5 7.4 -10 10.3 -15.5 8.1 -15.5 -2 0 0.1 -1.8 2.8 -2.5 1.6 -0.4 3.6 -1.5 4.6 -2.6 1 -1 2.6 -1.9 3.6 -1.9 1 0 2.4 -0.7 3.1 -1.5 1.3 -1.6 4 -2 4 -0.6 0 0.4 -1.1 2.5 -2.5 4.5 -1.3 2 -2 3.6 -1.5 3.6 0.5 0 1.6 -1.3 2.5 -2.9 2.5 -4.9 5.1 -6.1 13.5 -6.1 8.8 0 12 0.7 12 2.6 0 1.1 -1.9 1.4 -8.5 1.4 -8.4 0 -8.7 0.1 -12 3.4 -1.9 1.8 -3.5 3.7 -3.5 4.2 -0.1 2.1 -5.1 4.5 -8.9 4.3 -4.3 -0.3 -6.5 1 -8.6 5.1 l-1.4 2.7 8 -0.5 c9.1 -0.5 10.9 0.4 10.9 5.4 0 3.3 -0.2 3.4 -3.8 3.4 -2.1 0 -4.2 -0.4 -4.7 -0.9 -0.6 -0.6 -2.7 -0.6 -5.5 0 -2.5 0.6 -5.7 0.9 -7.3 0.6 -1.5 -0.2 -3.2 0.2 -3.8 1 -0.9 1 -0.7 1.3 1 1.3 1.7 0 2.1 0.6 2.1 3.5 0 3.3 -0.2 3.5 -3.5 3.5 l-3.5 0 -0.2 7.3 c0 3.9 0 9.6 0.1 12.5 0.3 5.7 -0.9 6.6 -4.1 3.2z m21.2 -36 c1.3 -0.9 1.3 -1 0 -1 -0.8 0 -2.2 0.5 -3 1 -1.3 0.9 -1.3 1 0 1 0.8 0 2.2 -0.5 3 -1z"/>
  <path d="M63.7 77.3 c-0.9 -0.8 -0.9 -5.6 -0.1 -7.7 0.4 -1.1 1.9 -1.6 4.5 -1.6 3.3 0 4.1 0.4 4.9 2.5 1 2.5 3.4 3.3 4.5 1.5 0.3 -0.6 1.8 -0.7 3.3 -0.3 2.4 0.6 2.5 0.4 1.4 -1 -0.7 -0.9 -2.7 -1.9 -4.3 -2.2 -2.7 -0.6 -2.9 -1 -2.9 -5.1 l0 -4.4 4 0 c3.7 0 4 0.2 4 2.8 0 2.2 0.7 3 4 4.5 3.2 1.3 4 2.2 4 4.3 0 4.4 -2 5.4 -11.4 5.4 -5.1 0 -8.6 0.4 -8.6 1 0 1.1 -6.3 1.4 -7.3 0.3z"/>
  <path d="M30 72.2 c0 -4.8 2.5 -6.2 10.5 -6.2 l5.5 0 0 3.4 c0 6.2 -0.5 6.6 -8.6 6.6 l-7.4 0 0 -3.8z m12 -1.7 c0 -1.7 -3.5 -2.1 -4.5 -0.5 -0.3 0.6 0.1 0.7 0.9 0.4 0.9 -0.3 1.6 -0.1 1.6 0.5 0 0.6 0.5 1.1 1 1.1 0.6 0 1 -0.7 1 -1.5z"/>
 </g>
 <g fill="#5f4e48">
  <path d="M39.8 133.2 c-2.2 -0.4 -2.4 -3.8 -0.2 -4.6 0.9 -0.3 4 -0.9 7 -1.2 5.1 -0.6 5.4 -0.5 5.4 1.5 0 1.3 -0.4 1.9 -1 1.6 -0.6 -0.4 -1.7 -0.2 -2.4 0.4 -0.7 0.6 -2.1 0.9 -3 0.5 -0.9 -0.3 -1.6 -0.2 -1.6 0.4 0 1.3 -2 1.9 -4.2 1.4z"/>
  <path d="M63 128.8 c0 -1.3 0.8 -1.8 3 -1.8 2.6 0 2.9 0.2 1.9 1.8 -0.6 1 -2 1.8 -3 1.8 -1.2 0 -1.9 -0.7 -1.9 -1.8z"/>
  <path d="M32.6 127.4 c-0.3 -0.8 -0.9 -1.3 -1.4 -1 -0.4 0.2 -1.4 -0.9 -2.1 -2.5 -1 -2.2 -1.8 -2.8 -3.1 -2.4 -1.5 0.5 -1.7 0.2 -1.3 -1.5 0.3 -1.2 -0.2 -2.9 -1.2 -4 -0.9 -1 -1.4 -2.3 -1.1 -2.9 0.4 -0.5 -0.3 -1.5 -1.5 -2.2 -1.7 -0.8 -1.9 -1.3 -0.8 -1.9 1 -0.7 1 -1.2 0.1 -2.2 -1.1 -1.4 -2.3 -7.2 -2.4 -11.3 0 -1.1 -0.2 -1.4 -0.5 -0.7 -0.3 0.6 -0.9 1.2 -1.5 1.2 -1.2 0 -0.7 -5.2 0.7 -6.2 1.7 -1.3 3.5 -0.9 3.5 0.7 0 0.8 0.4 2.3 0.9 3.3 0.5 0.9 1.6 4.9 2.5 8.7 1 3.9 2.6 8.2 3.7 9.7 1.1 1.6 1.9 4.3 1.9 6.8 0 3.6 0.2 4 2.5 4 2.1 0 2.5 0.5 2.5 3 0 3.3 -0.5 3.8 -1.4 1.4z"/>
  <path d="M72.3 126.5 c-0.7 -0.8 -1.3 -1.6 -1.3 -1.8 0 -0.2 2.4 -1 5.4 -1.7 4.7 -1.1 5.5 -1.6 6 -4.1 0.4 -2 1.2 -2.9 2.4 -2.9 1.2 0 2.6 -1.5 4 -4.2 5.8 -11.5 6.4 -15.8 4.8 -33.1 -0.7 -6.7 -1 -7.7 -2.7 -7.7 -1.4 0 -1.9 -0.7 -1.9 -2.5 0 -2.5 -0.1 -2.5 -8.5 -2.5 -6.9 0 -8.5 -0.3 -8.5 -1.5 0 -0.8 -0.7 -1.5 -1.5 -1.5 -1 0 -1.5 -1.1 -1.5 -3.5 0 -3.3 0.2 -3.5 3.5 -3.5 1.9 0 3.5 0.5 3.5 1 0 0.6 2.8 1 6.4 1 6.3 0 6.5 0.1 6.9 2.8 0.3 1.5 0.3 0.4 0.2 -2.4 -0.2 -2.9 -1 -6.6 -1.9 -8.2 -0.9 -1.7 -1.6 -4.2 -1.6 -5.5 0 -2.1 -0.9 -2.8 -6.2 -4.8 -3.5 -1.2 -9.3 -2.5 -13 -2.7 -5.9 -0.4 -6.8 -0.7 -6.8 -2.4 0 -1.8 0.5 -1.9 7.8 -1.3 4.2 0.3 9.2 1 10.9 1.6 3.6 1.1 5.3 0.6 5.3 -1.7 0 -1.8 0.8 -1.8 2.5 0 1.2 1.2 1.1 1.5 -0.8 2.1 -2 0.6 -1.9 0.7 1.1 1.6 2.4 0.7 3.8 0.7 4.7 -0.1 2.2 -1.8 3.9 -0.1 2.1 1.9 -1.4 1.6 -1.2 2 2.4 5.5 l4 3.8 -0.2 10.4 c-0.1 8.1 -0.4 10.2 -1.4 9.2 -1.5 -1.7 -3.4 -7.5 -3.4 -10.4 0 -1.3 -0.5 -2.4 -1.1 -2.4 -1.2 0 -0.2 8.8 1.3 10.7 0.5 0.7 0.7 1.6 0.4 2.2 -1 1.6 0.5 4.1 2.5 4.1 1 0 1.9 0.1 1.9 0.3 0.8 4.5 1 12.4 0.5 14.5 l-0.8 2.7 -0.7 -2.5 c-0.7 -2.3 -0.8 -2.3 -0.9 0.8 -0.1 1.8 0.3 3.1 0.7 2.8 0.5 -0.3 1 1.5 1 3.9 0.1 2.5 -0.2 4.5 -0.7 4.5 -0.5 0 -0.7 0.8 -0.4 1.9 0.3 1 0 2.2 -0.6 2.5 -0.5 0.4 -0.8 1.3 -0.4 2.1 0.3 0.8 0 1.5 -0.7 1.5 -0.7 0 -1 0.7 -0.7 1.5 0.3 0.8 0 3.3 -0.8 5.7 -1 3.3 -1.3 3.7 -1.4 1.8 -0.1 -2.4 -0.1 -2.4 -2.3 0.7 -1.3 1.8 -3 3.3 -3.8 3.3 -0.8 0 -2.4 1.2 -3.5 2.6 -3.6 4.8 -9.7 6.7 -12.2 3.9z m25.4 -50.7 c-0.2 -1.3 -0.4 -0.5 -0.4 1.7 -0.1 2.2 0.1 3.2 0.4 2.3 0.2 -1 0.2 -2.8 0 -4z m-1.7 -28.6 c0 -0.5 -1.3 -2.1 -3 -3.7 -3.5 -3.4 -4 -2.5 -0.7 1.5 2.2 2.9 3.7 3.7 3.7 2.2z"/>
  <path d="M61.8 100.3 c-1.1 -0.3 -1.8 -1.3 -1.7 -2.6 0 -1.2 0.3 -1.6 0.6 -0.9 0.2 0.6 1.1 1.2 1.9 1.2 0.8 0 1.4 0.7 1.4 1.5 0 0.8 -0.1 1.4 -0.2 1.4 -0.2 -0.1 -1.1 -0.3 -2 -0.6z"/>
  <path d="M69 98.9 c-1.9 -1.1 -4 -1.9 -4.7 -1.9 -0.7 0 -1.3 -0.5 -1.3 -1.1 0 -0.5 0.5 -0.7 1 -0.4 0.6 0.3 1 0.2 1 -0.3 0 -1.2 -2.9 -2.4 -4.1 -1.6 -0.5 0.3 -0.9 0 -0.9 -0.5 0 -0.6 1.9 -1.1 4.3 -1.1 5.4 0.1 9 2.7 8.5 6.2 l-0.3 2.6 -3.5 -1.9z"/>
  <path d="M18.3 77.5 c0 -2.2 0.2 -3 0.4 -1.7 0.2 1.2 0.2 3 0 4 -0.3 0.9 -0.5 -0.1 -0.4 -2.3z"/>
  <path d="M14 75.9 c0 -1.1 0.5 -1.7 1 -1.4 0.6 0.3 1 1.3 1 2.1 0 0.8 -0.4 1.4 -1 1.4 -0.5 0 -1 -0.9 -1 -2.1z"/>
  <path d="M34.2 74.3 c-1 -0.4 -0.9 -0.9 0.4 -2.4 1.6 -1.8 1.6 -1.9 0.1 -1.3 -1.3 0.4 -1.7 0.1 -1.7 -1.5 0 -1.8 0.6 -2.1 4.3 -2.1 7.3 0 8.7 0.8 8.7 4.6 l0 3.4 -5.2 -0.1 c-2.9 0 -5.9 -0.3 -6.6 -0.6z m7.8 -1.7 c0 -0.2 0.3 -1.1 0.6 -2 0.5 -1.3 -0.1 -1.6 -2.5 -1.6 -1.7 0 -3.1 0.4 -3.1 1 0 0.5 0.7 0.7 1.5 0.4 0.8 -0.4 1.5 -0.2 1.5 0.4 0 0.6 -0.6 1.3 -1.2 1.5 -0.7 0.3 -0.3 0.6 1 0.6 1.2 0.1 2.2 -0.1 2.2 -0.3z"/>
  <path d="M30.2 61.6 c0 -3.3 0.1 -3.4 4.8 -4 2.7 -0.4 6.7 -0.4 8.9 0 3.9 0.6 4.1 0.9 4.1 4 l0 3.4 -8.9 0 -8.9 0 0 -3.4z m10.3 -0.7 c1.1 0 3.1 0.3 4.4 0.6 2.1 0.5 2.3 0.4 1.2 -0.9 -2 -2.4 -12.1 -1.8 -12.1 0.6 0 0.6 0.9 0.7 2.3 0.3 1.2 -0.4 3.1 -0.7 4.2 -0.6z"/>
  <path d="M36.4 43.5 c2.3 -2.6 3.2 -3.1 3.4 -1.9 0.5 2 -2.6 5.4 -4.8 5.4 -1.4 0 -1.1 -0.8 1.4 -3.5z"/>
  <path d="M31.9 43 c-1 -0.7 -0.7 -1.1 1.4 -1.9 3.6 -1.4 3.7 -1.4 3.1 0.3 -0.7 1.9 -2.8 2.6 -4.5 1.6z"/>
  <path d="M45 37.7 c0 -1.4 3.1 -4.7 4.4 -4.7 0.4 0 -0.1 1.4 -1.1 3 -1.8 3.2 -3.3 3.9 -3.3 1.7z"/>
  <path d="M50.5 37 c2 -2.3 2.9 -2.1 1.9 0.4 -0.3 0.9 -1.3 1.6 -2.2 1.6 -1.3 0 -1.2 -0.3 0.3 -2z"/>
  <path d="M60.5 29.1 c-2.8 -0.6 -2.9 -0.7 -1 -1.9 1.6 -0.9 1.7 -1.3 0.6 -2.1 -0.9 -0.6 0.7 -1.1 5 -1.7 l6.4 -0.8 -5 -0.8 c-2.7 -0.4 -5.6 -0.5 -6.4 -0.3 -1.9 0.7 -8.1 -0.5 -8.1 -1.6 0 -0.5 1.2 -1 2.8 -1 2.5 -0.2 2.5 -0.2 0.3 -0.6 l-2.3 -0.5 2.4 -1.3 c1.5 -0.7 4.7 -1.1 7.9 -0.8 7 0.5 4.4 -1.2 -3 -2 -6.7 -0.8 -8.5 -2.2 -3.6 -3 2.2 -0.4 4.9 0 7.2 0.9 2 0.9 4.4 1.3 5.5 1.1 1 -0.3 1.6 -0.1 1.2 0.4 -0.3 0.5 0.1 1 0.8 1.1 0.7 0 1.8 0.2 2.3 0.2 1.9 0.2 7.5 2.8 7.5 3.5 0 0.3 1.8 1.5 4 2.5 2.7 1.3 3.7 2.3 3 3 -0.6 0.6 -2.4 0.3 -5.3 -1.2 -2.5 -1.2 -4.9 -2.2 -5.6 -2.2 -0.6 0 -1.1 -0.4 -1.1 -1 0 -0.5 -2.1 -1 -4.6 -1 -5.3 0 -5.1 1.6 0.4 2.6 6.7 1.2 6.8 2 0.3 3.9 -3.3 1.1 -6.1 2.2 -6.1 2.6 0 0.4 1 0.5 2.3 0.2 1.5 -0.4 1.9 -0.2 1.2 0.4 -1.5 1.5 -5.6 2.1 -9 1.4z"/>
  <path d="M71.6 28.5 c0.4 -0.8 1.8 -1.5 3.3 -1.5 l2.6 0.1 -2.5 1.4 c-3.2 1.8 -4.1 1.8 -3.4 0z"/>
  <path d="M80 26 c0 -1.2 7.7 -1.4 8.4 -0.2 0.2 0.4 -1.5 0.9 -4 1 -2.4 0.1 -4.4 -0.3 -4.4 -0.8z"/>
 </g>
 <g fill="#79534d">
  <path d="M37.2 131 c-0.7 -1.1 -1.7 -2 -2.3 -2 -1.6 0 -9.5 -9 -9.1 -10.4 0.2 -0.5 -0.4 -1.6 -1.2 -2.5 -1.1 -1.3 -4.6 -10 -4.6 -11.6 0 -0.3 1.1 -0.5 2.4 -0.5 1.9 0 2.5 0.7 3 3.6 0.4 1.9 1.8 4.5 3.2 5.6 1.3 1.2 2.4 3 2.4 3.9 0 1 1.4 3.2 3 4.9 2.8 2.9 3.7 3.2 10 3.4 3.9 0.1 7 -0.1 7 -0.6 0 -1.5 7 -0.9 7.6 0.7 0.7 1.8 3.5 1.2 7.6 -1.6 1.7 -1.2 4.3 -1.9 7.5 -1.9 4.4 0 5 -0.3 7.2 -3.5 1.9 -2.8 3 -3.5 5.7 -3.5 3.3 0 3.4 -0.1 3.4 -4 0 -3.6 0.3 -4 2.5 -4 3.1 0 3.1 0.1 -0.1 6.7 -1.6 3.2 -3.3 5.3 -4.3 5.3 -0.9 0 -2.5 1.3 -3.4 3 -2 3.3 -10.6 6.7 -11.9 4.6 -0.5 -0.7 -1.6 -0.4 -3.5 1 -4.4 3.3 -9.9 5 -11.6 3.6 -1.6 -1.4 -12.7 -0.8 -15.7 0.8 -2.6 1.4 -3.4 1.3 -4.8 -1z"/>
  <path d="M56 114 l0 -4 4 0 4 0 0 4 0 4 -4 0 -4 0 0 -4z"/>
  <path d="M38 106.8 c0 -6.8 0.9 -8.4 5.5 -10.7 2.4 -1.2 4.5 -2.6 4.7 -3.2 0.2 -0.6 2.2 -1.3 4.5 -1.6 4 -0.5 4.2 -0.7 4.5 -4.2 0.3 -3.5 0.5 -3.6 4.4 -3.9 l4.2 -0.3 0.6 6.4 0.7 6.5 5 0.4 c6.7 0.7 10.3 3.4 10.7 8.2 0.5 5.8 -1.2 6.8 -10.8 6 -8.6 -0.7 -8.6 -0.7 -11.2 -6.9 -1.5 -3.5 -1.7 -3.7 -1.7 -1.4 -0.1 2.7 -2.1 3.9 -6.7 3.9 -1.3 0 -2.4 0.8 -2.7 1.8 -0.4 1.9 -4.4 3.2 -9.3 3.2 -2.2 0 -2.4 -0.4 -2.4 -4.2z m6.4 -1.8 c-1 -0.4 -2.3 -0.5 -2.8 -0.2 -0.5 0.3 -0.1 0.9 1 1.2 1 0.4 2.3 0.5 2.8 0.2 0.5 -0.3 0.1 -0.9 -1 -1.2z m28.6 0.5 c0 -0.8 0.4 -1.5 0.9 -1.5 0.5 0 1.4 0.7 2.1 1.5 1.5 1.9 3 1.9 3 0.2 0 -1.9 -3 -4.3 -6.2 -5.1 -1.6 -0.3 -2.8 -1 -2.8 -1.5 0 -1.6 -8 -6.5 -9.1 -5.4 -1.3 1.3 -0.1 4.3 1.7 4.3 0.8 0 1.4 0.7 1.4 1.5 0 0.8 0.4 1.5 0.9 1.5 0.5 0 1.3 1 1.7 2.3 0.4 1.2 1.2 2.5 1.8 2.9 1.9 1.3 4.6 0.9 4.6 -0.7z m-18 -4.9 c0 -0.8 0.7 -1.6 1.5 -2 1.7 -0.6 1.9 -1.5 0.6 -3.4 -0.7 -1.2 -1.2 -1.2 -3.2 0 -3.9 2.1 -5.2 4.8 -2.4 4.8 0.8 0 1.5 0.5 1.5 1 0 0.6 0.5 1 1 1 0.6 0 1 -0.6 1 -1.4z m9 -12.6 c0 -0.5 -0.6 -1 -1.4 -1 -0.8 0 -1.8 0.5 -2.1 1 -0.3 0.6 0.3 1 1.4 1 1.2 0 2.1 -0.4 2.1 -1z"/>
  <path d="M18.6 98 c-0.5 -2.9 -1 -3.8 -2.1 -3.4 -0.8 0.4 -1.5 0.1 -1.5 -0.5 0 -0.6 0.5 -1.1 1.1 -1.1 0.8 0 0.8 -0.5 -0.1 -1.5 -0.7 -0.9 -0.8 -1.5 -0.2 -1.5 0.5 0 1.3 -2.2 1.7 -5 0.6 -4 1.1 -5 2.6 -5 1.7 0 1.9 0.7 1.8 6.3 -0.1 3.4 0.2 8.3 0.6 11 0.7 4.3 0.6 4.7 -1.2 4.7 -1.6 0 -2.2 -0.9 -2.7 -4z"/>
  <path d="M14.7 86.3 c-0.4 -0.3 -0.7 -2 -0.6 -3.7 l0.1 -3.1 0.8 3.5 c0.9 3.6 0.8 4.5 -0.3 3.3z"/>
  <path d="M95.1 77.8 c0 -4.5 0.3 -5.7 0.9 -4.3 1.2 2.8 1.2 10.5 0 10.5 -0.6 0 -1 -2.7 -0.9 -6.2z"/>
  <path d="M98.7 83.3 c-1 -1 -0.8 -10.1 0.2 -10.7 1.1 -0.7 2.1 2.8 2.1 7.7 0 3.5 -0.8 4.6 -2.3 3z"/>
  <path d="M63.3 78.1 c-1.6 -1.4 -2.3 -3 -2.3 -5.5 0 -2.5 -0.4 -3.6 -1.5 -3.6 -1 0 -1.5 -1.1 -1.5 -3.5 0 -3.4 0.1 -3.5 4 -3.5 3.8 0 4 -0.2 4 -3 0 -2.9 0.2 -3 4.5 -3 4.5 0 4.5 0 4.5 3.5 0 3.5 0 3.5 -4.5 3.5 -2.5 0 -4.5 0.5 -4.5 1 0 1.4 6.1 1.2 10.6 -0.4 2.2 -0.7 4.5 -1.1 5.3 -0.8 0.8 0.3 1.1 0 0.7 -0.7 -0.4 -0.6 -1.8 -1.1 -3.2 -1.1 -1.3 0 -2.4 -0.5 -2.4 -1.1 0 -0.8 1.6 -1 5.3 -0.5 2.8 0.3 6 0.6 7.1 0.6 1.5 0 1.7 0.6 1.4 4 -0.2 2.2 0 4 0.4 4 0.5 0 0.8 1.3 0.8 2.8 0 4.5 -2.7 6.2 -9.5 6.1 -4.4 -0.1 -6 0.2 -6.7 1.5 -1.3 2.3 -9.6 2.1 -12.5 -0.3z m15.1 -6.3 c0.5 -1 0.7 -1 1.2 0 0.3 0.6 1.9 1.2 3.5 1.2 2.9 0 2.9 0 1.3 -2.5 -1.5 -2.3 -2.3 -2.6 -6.3 -2.3 -3.9 0.3 -4.6 0.6 -4.9 2.6 -0.3 1.8 0.1 2.2 2.1 2.2 1.4 0 2.8 -0.6 3.1 -1.2z"/>
  <path d="M18.7 72 c0.3 -5.4 0.9 -7 3.2 -9.5 1.6 -1.6 4.1 -5.2 5.7 -8 2.7 -4.9 11.5 -14.5 13.2 -14.5 0.4 0 2.1 -1.3 3.7 -3 5.7 -5.9 5.2 -3.1 -1.1 6.6 l-1.9 2.9 2.6 -2 c1.5 -1.1 3.6 -3.5 4.8 -5.3 3.2 -4.9 7 -6.1 17.1 -5.5 9.3 0.6 15.1 2.1 15.8 4.1 0.3 1.1 -1.5 1.2 -9.4 0.7 -5.5 -0.4 -10.4 -0.8 -11.1 -1 -2 -0.6 -8.3 1.8 -8.3 3.2 0 0.7 -0.4 1.3 -1 1.3 -0.5 0 -1 0.5 -1 1.1 0 1.3 -2.5 3.9 -3.8 3.9 -0.5 0 -1.2 0.9 -1.5 2 -0.4 1.5 -1.4 2 -4.1 2 -2.2 0 -3.6 -0.5 -3.6 -1.2 -0.1 -1.5 -6 4.7 -6 6.2 0 0.5 1.3 0.5 3.1 -0.2 3.8 -1.3 12.8 -0.2 15.1 1.9 1 0.9 1.8 2.7 1.8 4 0 1.4 0.6 2.3 1.5 2.3 1 0 1.5 1 1.5 3 0 1.7 0.5 3 1 3 0.6 0 1 1.6 1 3.5 0 3.3 -0.2 3.5 -3.5 3.5 -3.1 0 -3.5 -0.3 -3.5 -2.5 0 -1.4 -0.4 -2.5 -0.9 -2.5 -0.6 0 -1.2 -1.5 -1.4 -3.2 -0.4 -3.2 -0.4 -3.2 -0.5 0.5 -0.2 2.5 -0.7 3.7 -1.7 3.7 -0.8 0 -1.5 0.9 -1.5 2 0 2.2 -1.2 2.4 -9.7 1.4 -5.1 -0.7 -5.3 -0.8 -5.3 -3.7 0 -1.8 0.8 -3.7 2.2 -4.8 1.1 -1.1 1.6 -1.9 1 -1.9 -0.6 0 -1.4 0.5 -1.7 1 -0.3 0.6 -2.2 1 -4.1 1 -3.1 0 -3.4 0.2 -3.4 3 0 2.3 -0.5 3 -1.9 3 -1.2 0 -2.1 0.8 -2.4 2.3 -0.3 1.2 -0.3 -0.7 0 -4.3z m19.2 -0.2 c1.1 1.9 4.5 1.1 4.9 -1.1 0.3 -1.2 -0.3 -1.7 -2.2 -1.7 -2.9 0 -7.6 1.9 -7.6 3.2 0 0.4 0.9 0.3 2 -0.4 1.7 -1.1 2.2 -1 2.9 0z m5 -8.3 c-0.9 -0.9 -2.3 -1.3 -3.2 -0.9 -2.8 1 -1.9 2.4 1.5 2.4 2.9 0 3.1 -0.2 1.7 -1.5z m2.8 -3.3 c-1.3 -1.6 -10.1 -1.2 -11.9 0.6 -0.7 0.7 1.1 1 6 0.9 6 -0.1 6.9 -0.3 5.9 -1.5z"/>
 </g>
 <g fill="#72605a">
  <path d="M39.3 131.6 c0.4 -0.9 -0.1 -1.7 -1.1 -1.9 -1 -0.3 -0.5 -0.5 1.1 -0.6 2.5 -0.1 2.7 0.1 1.7 1.9 -1.2 2.3 -2.5 2.7 -1.7 0.6z"/>
  <path d="M45.4 129.5 c-0.4 -0.8 -1 -1.2 -1.5 -0.9 -0.5 0.3 -0.9 0 -0.9 -0.5 0 -0.6 1.8 -1.1 4 -1.1 4.4 0 4.9 0.6 2.3 2.6 -2.3 1.7 -3.2 1.7 -3.9 -0.1z"/>
  <path d="M73 126.3 c0 -0.9 -0.6 -1.3 -1.5 -0.9 -0.9 0.3 -1.5 0 -1.5 -0.8 0 -1.2 8 -3.6 12.1 -3.6 3.3 0 0.2 3.5 -4.7 5.3 -4 1.4 -4.4 1.4 -4.4 0z"/>
  <path d="M28 121.4 c0 -0.8 -0.4 -1.3 -0.9 -0.9 -0.5 0.3 -1.2 0.1 -1.6 -0.5 -0.3 -0.5 0.2 -1 1.2 -1 1.6 -0.1 1.6 -0.3 -0.4 -1.9 -1.7 -1.4 -5.3 -8 -5.2 -9.4 0 -0.1 -0.4 -1.5 -1 -3 -0.6 -1.5 -1 -3.8 -1 -5 0 -1.2 -0.2 -3.9 -0.6 -5.9 -0.5 -2.6 -0.4 -3.8 0.4 -3.8 0.6 0 1.1 1.4 1.1 3 0 2 0.5 3 1.5 3 1.1 0 1.5 1.2 1.5 4.5 0 2.5 0.5 4.5 1 4.5 0.6 0 1 1.6 1 3.5 0 2.4 0.5 3.5 1.5 3.5 0.8 0 1.5 0.9 1.5 1.9 0 1.1 0.5 2.3 1 2.6 0.6 0.3 1 1.9 1 3.6 0 1.6 -0.4 2.9 -1 2.9 -0.5 0 -1 -0.7 -1 -1.6z"/>
  <path d="M85 117.3 c0 -0.8 0.9 -2.3 2 -3.5 1.1 -1.2 2 -2.8 2 -3.5 0 -0.7 0.5 -1.3 1 -1.3 0.6 0 1 -1.3 1 -2.9 0 -1.6 0.7 -4.6 1.6 -6.7 1.3 -3.2 1.5 -5.8 1 -13.9 -0.9 -13.1 -1.1 -13.8 -4.9 -15.5 -1.8 -0.7 -4.8 -2.3 -6.7 -3.5 -2 -1.3 -5.5 -2.6 -7.8 -3 -4.3 -0.7 -5.7 -2.9 -2.4 -3.8 1.6 -0.4 1.6 -0.5 0 -0.6 -1 0 -1.8 -0.8 -1.8 -1.7 0 -1.4 1.1 -1.6 8.6 -1.2 5.9 0.3 8.8 0.9 9.5 1.9 1.7 2.7 1 -1.7 -1.2 -7.8 -2.8 -7.7 -4 -8.8 -11 -10.9 -5.7 -1.7 -7.7 -3.9 -4.1 -4.6 0.9 -0.2 5.2 0.7 9.5 2 7.3 2.2 8 2.2 10.3 0.7 2.1 -1.3 2.4 -1.4 2.4 0 0 0.8 -1.1 1.7 -2.5 2.1 -1.5 0.4 -2.5 1.3 -2.5 2.5 0 2.8 2.2 6.9 3.6 6.9 0.7 0 2 1.2 2.8 2.7 1.4 2.7 1.4 2.7 1.1 -2 -0.2 -2.6 -0.2 -4.7 0.1 -4.7 1.1 0 3.4 6.4 3.4 9.7 -0.1 3.6 -0.2 3.7 -1.5 1.9 -1.8 -2.4 -2 -1.3 -0.3 1.7 1.3 2.3 1.7 8.7 0.6 8.7 -0.8 0 -2.4 -5 -3.2 -10.1 -0.4 -2.1 -1.3 -4.2 -2.1 -4.9 -1.3 -1.1 -1.4 -0.8 -1 1.6 0.2 1.6 0.7 4.9 1 7.3 0.3 2.4 0.9 4.9 1.3 5.5 0.3 0.6 0.7 1.6 0.7 2.1 0.1 0.6 0.4 3.6 0.8 6.8 0.4 3.1 1 8.2 1.3 11.2 0.3 3 0.9 5.3 1.3 5.1 0.4 -0.3 0.8 1.1 0.9 3 0.2 1.9 -0.1 3.4 -0.5 3.4 -0.4 0 -1.6 2.1 -2.7 4.8 -1 2.6 -2.4 6.1 -3.2 7.9 -0.8 1.7 -1.4 3.5 -1.4 4.1 0 1.4 -2.9 3.6 -5.1 3.7 -1 0.1 -1.9 -0.5 -1.9 -1.2z m2 -54.8 c-0.7 -0.8 -1.7 -1.5 -2.2 -1.5 -0.6 0 -0.5 0.7 0.2 1.5 0.7 0.8 1.7 1.5 2.2 1.5 0.6 0 0.5 -0.7 -0.2 -1.5z m-4.5 -0.5 c-0.3 -0.5 -2.2 -1 -4.1 -1 -1.9 0 -3.4 0.5 -3.4 1 0 0.6 1.8 1 4.1 1 2.4 0 3.8 -0.4 3.4 -1z"/>
  <path d="M71.4 99 c-2.3 -1.2 -5.2 -3.2 -6.4 -4.5 l-2.3 -2.5 3.1 0 c4.4 0 10.2 3.9 10.2 6.8 0 2.7 0.4 2.6 -4.6 0.2z"/>
  <path d="M99.6 85 c-1.1 -3 -1.4 -12 -0.4 -12 1.2 0 1.9 4.3 1.6 9.6 -0.3 4.3 -0.4 4.6 -1.2 2.4z"/>
  <path d="M18.1 75.8 c0 -2.7 0.3 -4.8 0.9 -4.8 0.5 0 0.7 -0.7 0.4 -1.5 -0.5 -1.1 0.1 -1.5 2 -1.5 2.3 0 2.6 0.4 2.6 3.5 0 3 -0.3 3.5 -2.4 3.5 -1.9 0 -2.6 0.6 -2.9 2.8 -0.2 1.6 -0.5 0.9 -0.6 -2z"/>
  <path d="M34.4 73.4 c0.3 -0.9 0.6 -1.8 0.6 -2 0 -1.1 2.2 -0.2 4 1.6 l2 2 -3.6 0 c-2.9 0 -3.5 -0.3 -3 -1.6z"/>
  <path d="M70 71.1 c-1.9 -3.7 -1.2 -5.1 2.5 -5.1 1.9 0 3.5 0.5 3.5 1 0 0.6 -0.7 1 -1.5 1 -0.9 0 -1.5 0.9 -1.5 2.5 0 3 -1.5 3.3 -3 0.6z"/>
  <path d="M34 69 c0 -0.5 1.2 -1 2.8 -0.9 2.4 0 2.5 0.1 0.7 0.9 -2.7 1.2 -3.5 1.2 -3.5 0z"/>
  <path d="M28 64.8 c0 -1.5 4.8 -4 5.2 -2.7 0.2 0.5 1.8 0.5 3.8 -0.1 4.1 -1.2 9 -0.4 9 1.4 0 0.8 -2 1.6 -5.2 2 -8.4 1 -12.8 0.7 -12.8 -0.6z"/>
  <path d="M28 60.3 c0 -1.9 2 -2.5 7.1 -2.1 l4.4 0.3 -5.7 1.6 c-4.9 1.4 -5.8 1.4 -5.8 0.2z"/>
  <path d="M62 25 c0 -0.5 1.7 -1 3.8 -1 2.7 0 3.3 0.3 2.2 1 -2 1.3 -6 1.3 -6 0z"/>
  <path d="M72 23 c2 -1.3 4.3 -1.3 3.5 0 -0.3 0.6 -1.6 1 -2.8 1 -1.8 0 -1.9 -0.2 -0.7 -1z"/>
  <path d="M82.5 21.4 c-2 -1.5 -2 -1.6 0.4 -1.2 1.4 0.2 2.6 0.9 2.9 1.6 0.5 1.6 -0.9 1.5 -3.3 -0.4z"/>
  <path d="M56 20.1 c0 -1.5 5.3 -1.8 10 -0.5 l4.5 1.2 -7.2 0.1 c-4 0.1 -7.3 -0.3 -7.3 -0.8z"/>
  <path d="M66.9 16.8 c1.8 -0.5 3.1 -1.1 2.8 -1.4 -0.2 -0.3 -3.3 -0.9 -6.8 -1.5 -3.5 -0.6 -6.8 -1.4 -7.3 -2 -1.7 -1.6 3.7 -1 10 1.1 3.2 1.1 7.1 2 8.5 2 1.4 0 3.3 0.6 4.2 1.3 1.4 1 0.3 1.2 -6.5 1.3 -6.8 0.1 -7.7 0 -4.9 -0.8z"/>
 </g>
 <g fill="#8d625a">
  <path d="M39.4 131.2 c0.2 -0.4 -1 -1.4 -2.7 -2.2 -3.2 -1.4 -8.7 -6.4 -8.7 -8 0 -0.4 -0.6 -1.1 -1.2 -1.3 -0.9 -0.4 -0.9 -0.6 0.1 -0.6 1 -0.1 0.8 -0.8 -0.9 -2.6 l-2.3 -2.5 3.6 0 c3.1 0 3.8 0.4 4.3 2.7 0.4 1.4 1.9 3.9 3.4 5.5 2.4 2.5 3.4 2.8 8.9 2.8 3.4 0 6.1 -0.4 6.1 -1 0 -1.1 5.2 -1.3 8.8 -0.4 1.2 0.4 2.2 1.4 2.2 2.3 0.1 1.4 0.2 1.4 1.4 -0.2 0.8 -1 3.6 -2.1 6.7 -2.7 7.3 -1.2 8 -1.5 11.3 -5.5 1.8 -2.2 3.8 -3.5 5.3 -3.5 1.6 0 2.3 -0.6 2.3 -2 0 -1.1 0.5 -2 1 -2 0.6 0 1 -0.9 1 -2 0 -1.3 0.7 -2 2 -2 1.1 0 2 0.7 2 1.5 0 2.8 -4.2 10.5 -5.8 10.5 -0.8 0 -2.9 1.6 -4.6 3.6 -2.7 3.1 -3.8 3.7 -7.8 3.8 -2.5 0.1 -5.8 1.1 -7.4 2.1 -1.6 1.1 -3.2 2 -3.6 2 -0.3 0 -1 0.3 -1.4 0.8 -1.4 1.4 -5.4 0.7 -7.1 -1.3 -1.2 -1.4 -1.9 -1.6 -2.4 -0.8 -1 1.6 -8.1 2.1 -9 0.6 -0.4 -0.7 -1.4 -0.3 -2.8 1.1 -2.1 2.1 -3.7 2.8 -2.7 1.3z"/>
  <path d="M55.4 117.6 c-0.3 -0.8 -0.4 -2.9 -0.2 -4.8 0.3 -3.2 0.5 -3.3 5.1 -3.6 3.3 -0.2 4.7 -0.7 4.7 -1.8 0 -0.7 -0.6 -1.4 -1.3 -1.4 -0.7 0 -1.9 -0.9 -2.7 -2 -0.8 -1.1 -2 -2 -2.7 -2 -0.7 0 -1.3 0.9 -1.3 2 0 1.6 -0.7 2 -3.5 2 -1.9 0 -3.5 0.5 -3.5 1 0 0.6 -0.8 1 -1.9 1 -1 0 -2.1 0.9 -2.4 2.1 -0.5 1.7 -1.2 2 -4.9 1.7 l-4.3 -0.3 0.1 -5.3 c0.2 -6.1 1.7 -8 9.3 -11.8 2.5 -1.3 4 -2.4 3.4 -2.4 -0.8 0 -1.3 -1.4 -1.3 -3.5 0 -2.9 0.4 -3.6 2.5 -4.1 1.4 -0.3 3.9 -0.4 5.5 0 2.2 0.4 3 0.2 3 -0.9 0 -0.9 1 -1.5 2.5 -1.5 1.4 0 2.5 -0.4 2.5 -1 0 -0.5 -0.8 -1 -1.8 -1 -2.7 0 -4.2 -2 -4.2 -5.7 0 -2.3 0.5 -3.3 1.5 -3.3 0.8 0 1.5 -0.4 1.5 -1 0 -0.5 -0.6 -1 -1.4 -1 -0.8 0 -2 -0.2 -2.8 -0.3 -0.7 -0.2 -1 -0.2 -0.5 0 0.4 0.3 0.7 2 0.7 3.9 0 3.3 -0.1 3.4 -4 3.4 -2.9 0 -4 -0.4 -4 -1.5 0 -2.2 -2.7 -1.8 -3.3 0.5 -0.7 2.9 -7.7 2.9 -7.7 0 0 -1.2 0.5 -1.7 1.4 -1.4 1.8 0.7 4.9 -3.7 3.6 -5 -1.2 -1.2 -8.3 0.8 -10 2.9 -1 1.2 -1 1.5 0.3 1.5 0.8 0 1.7 -0.5 1.9 -1.2 0.8 -2.2 2.5 0.1 2 2.7 -0.4 2.2 -1 2.5 -4.3 2.5 l-3.9 0 0 -5.4 c0 -6.2 0.5 -6.6 8.6 -6.6 4.3 0 5.4 -0.3 5.4 -1.6 0 -1.3 0.7 -1.5 3.2 -1 l3.3 0.6 -2 -2 c-1.1 -1.1 -3.6 -2.1 -5.8 -2.2 -2.7 -0.2 -3.7 -0.7 -3.7 -2 0 -1.5 0.9 -1.8 4.4 -1.8 5.7 0 9.7 1.5 10.3 3.9 0.3 1.2 1.7 2.1 4.1 2.5 5.7 0.9 6.2 0.8 6.2 -1.8 0 -2.8 1.2 -3.4 8.6 -4.2 5 -0.6 5.4 -0.5 5.4 1.5 0 1.8 -0.6 2.1 -4.2 2.3 l-4.3 0.1 4.5 0.7 c4.1 0.6 4.3 0.7 1.8 1.4 -1.4 0.4 -3.4 1.6 -4.4 2.7 -1.6 1.8 -1.6 1.9 0.4 1.9 1.1 0 2.2 -0.4 2.4 -0.9 0.2 -0.5 2.9 -1.2 6 -1.6 5.2 -0.7 5.9 -0.5 8.3 1.9 1.4 1.4 3 2.6 3.5 2.6 1.4 0 1.2 6.4 -0.2 7.8 -0.7 0.7 -2.5 1.2 -4 1.2 -1.5 0 -2.8 0.4 -2.8 0.8 0 0.5 -2.5 1.4 -5.5 2.1 -5.4 1.2 -5.5 1.3 -5.5 4.7 0 2.4 -0.5 3.4 -1.5 3.4 -0.9 0 -1.5 0.9 -1.5 2.5 0 1.4 0.5 2.5 1 2.5 0.6 0 1 0.7 1 1.5 0 0.9 0.9 1.5 2.3 1.5 1.2 0 3.7 0.9 5.5 2 3.1 1.9 3.3 2.3 3 7.3 l-0.3 5.2 -8.7 0.3 -8.8 0.3 0 3.9 0 4 -4.5 0 c-3 0 -4.7 -0.5 -5.1 -1.4z m-8.8 -11.7 c0.3 -0.5 -0.2 -0.9 -1 -0.9 -2.3 0 -2 -1.7 0.5 -3.1 1.6 -0.8 2.3 -0.8 2.9 0.1 1.3 2 6.4 0.3 7.8 -2.7 2.1 -4.5 1.6 -5.6 -2 -4.9 -1.8 0.4 -3.4 1.1 -3.6 1.6 -0.2 0.5 -2.3 1.9 -4.7 3.1 -3.9 2 -5.4 4.1 -5.5 7.5 0 1.3 4.7 0.7 5.6 -0.7z m31.4 -3 c-5.5 -4.4 -16.3 -10.8 -17.1 -10.3 -1.5 0.9 -1 3.8 0.9 5.6 3 2.9 4.4 4.9 3.8 5.5 -0.3 0.3 -0.1 1.2 0.5 2 1.4 1.6 7.9 1.8 7.9 0.1 0 -0.8 0.6 -0.6 1.7 0.5 1.6 1.5 1.9 1.6 3.3 0.1 1.3 -1.4 1.3 -1.7 -1 -3.5z m-15 -13.9 c1.1 -0.7 1.2 -1.2 0.3 -2.1 -1.3 -1.3 -3.3 -0.4 -3.3 1.7 0 1.6 0.9 1.8 3 0.4z m9.9 -13.9 c0.9 -1.5 2.1 -1.8 7.1 -1.7 4.7 0.1 6.5 -0.3 7.7 -1.6 0.9 -1 1.2 -1.9 0.7 -2 -0.5 0 -1.3 -0.2 -1.9 -0.3 -0.5 -0.1 -2.2 -0.7 -3.7 -1.5 -1.9 -0.9 -3.7 -1 -6.5 -0.3 -3.1 0.7 -3.7 1.3 -3.5 3.1 0.4 3 -1.6 2.8 -3 -0.3 -1.2 -2.6 -1.7 -2.9 -4.2 -1.9 -2.3 0.9 -2 4.3 0.7 6.5 2.8 2.4 5.4 2.4 6.6 0z"/>
  <path d="M21.1 106.7 c-0.7 -1.3 -1.4 -3.9 -1.6 -5.8 -0.2 -1.9 -0.8 -5.6 -1.3 -8.4 -0.6 -2.7 -0.8 -5.4 -0.5 -5.9 0.4 -0.5 0.6 -2.4 0.5 -4.3 -0.1 -2.7 0.2 -3.3 2 -3.3 1.9 0 2 0.4 1.4 5.4 -0.3 3 -0.2 6.5 0.3 7.8 0.5 1.3 1.2 5.6 1.6 9.6 0.7 7.4 -0.1 9.2 -2.4 4.9z"/>
  <path d="M99 77.8 c0 -3.8 0.3 -4.9 1 -3.8 1.3 2 1.3 9 0 9 -0.5 0 -1 -2.4 -1 -5.2z"/>
  <path d="M19 68 c0 -1 1.3 -3.3 2.9 -4.9 1.6 -1.6 3.7 -4.4 4.7 -6 2 -3.3 3.4 -4 3.4 -1.6 0 0.9 0.9 1.5 2.5 1.5 3.4 0 3.2 2.7 -0.2 3.5 -3.5 0.8 -6.4 3.2 -8.2 6.8 -1.7 3.2 -5.1 3.7 -5.1 0.7z"/>
  <path d="M88.6 64.4 c-1 -2.5 0.1 -2.9 1.4 -0.5 0.6 1.2 0.7 2.1 0.1 2.1 -0.5 0 -1.2 -0.7 -1.5 -1.6z"/>
  <path d="M29.8 63.3 c1.2 -0.2 3 -0.2 4 0 0.9 0.3 -0.1 0.5 -2.3 0.4 -2.2 0 -3 -0.2 -1.7 -0.4z"/>
  <path d="M30 51.2 c0 -1 8.7 -9.2 9.8 -9.2 0.5 0 2.1 -1.3 3.7 -3 4 -4.1 4.2 -3.1 0.6 2.6 -4.4 6.8 -3.8 7.5 1.4 2 2.5 -2.7 4.5 -5.2 4.5 -5.8 0 -0.5 1.6 -1.6 3.6 -2.4 2.7 -1.1 5.5 -1.3 12 -0.8 7.5 0.6 8.4 0.9 8.4 2.7 0 1.8 -0.5 1.9 -7.7 1.4 -8.3 -0.5 -14.3 1.1 -14.3 3.9 0 0.8 -0.4 1.4 -1 1.4 -0.5 0 -1 0.6 -1 1.4 0 0.8 -1.3 2 -3 2.8 -1.6 0.7 -3 1.9 -3 2.5 0 0.9 -2 1.3 -7 1.3 -3.8 0 -7 -0.3 -7 -0.8z"/>
  <path d="M76 38 c0 -2.2 2 -2.6 5.1 -1 3 1.6 2.3 3 -1.6 3 -2.8 0 -3.5 -0.4 -3.5 -2z"/>
 </g>
 <g fill="#a75f5d">
  <path d="M61 109.5 c0 -1.1 -1.2 -1.5 -4.9 -1.5 -2.8 0 -5.3 0.5 -5.6 1 -1 1.6 -7.5 1.2 -7.5 -0.4 0 -0.7 0.9 -1.6 2 -1.9 2.1 -0.5 2.8 -2.7 0.9 -2.7 -0.5 0 -0.7 -0.5 -0.4 -1 0.3 -0.6 1.7 -0.7 3.1 -0.4 3.3 0.8 7.4 -0.3 7.4 -2.1 0 -0.8 0.6 -1.5 1.4 -1.5 0.8 0 1.6 -0.6 1.8 -1.2 0.3 -0.8 1.7 0 3.6 2.1 1.7 1.9 2.9 3.7 2.7 4 -0.8 0.7 2.7 4.1 4.2 4.1 0.7 0 1.3 0.7 1.3 1.5 0 1.1 -1.2 1.5 -5 1.5 -3.8 0 -5 -0.4 -5 -1.5z"/>
  <path d="M65.4 92.5 c1.8 -1.4 1.8 -1.5 0.2 -1.5 -0.9 0 -2.6 0.5 -3.7 1 -1.5 0.8 -1.9 0.7 -1.9 -0.3 0 -0.8 1 -1.7 2.1 -2 1.5 -0.4 2 -1.1 1.6 -2.1 -0.5 -1.3 0.1 -1.6 3.3 -1.6 4 0 4 0 4 4 0 4 0 4 -3.7 4 -3.6 -0.1 -3.7 -0.2 -1.9 -1.5z"/>
  <path d="M48 89.5 c0 -3.5 0 -3.5 4.5 -3.5 4.5 0 4.5 0 4.5 3.5 0 3.5 0 3.5 -4.5 3.5 -4.5 0 -4.5 0 -4.5 -3.5z"/>
  <path d="M99.1 82.3 c0.1 -1 0.5 -2.9 0.9 -4.3 0.7 -2.1 0.8 -1.9 0.9 1.8 0.1 2.3 -0.3 4.2 -0.9 4.2 -0.5 0 -1 -0.8 -0.9 -1.7z"/>
  <path d="M41 76.2 c0 -0.4 0.6 -2 1.3 -3.5 0.9 -2 1.9 -2.7 4 -2.7 2.4 0 2.7 0.3 2.7 3.5 0 3.4 -0.1 3.5 -4 3.5 -2.2 0 -4 -0.4 -4 -0.8z"/>
  <path d="M28 70.9 c0 -3.9 2 -5.9 5.9 -5.9 2.4 0 3.1 0.4 3.1 1.9 0 1 -0.7 2.2 -1.6 2.5 -0.8 0.3 -1.2 0.2 -0.9 -0.4 0.3 -0.6 -0.1 -0.7 -0.9 -0.4 -0.9 0.3 -1.6 1.7 -1.6 3 0 1.7 -0.6 2.4 -2 2.4 -1.6 0 -2 -0.7 -2 -3.1z"/>
 </g>
 <g fill="#92706a">
  <path d="M59.2 129.9 c-1.4 -0.5 -2 -1.3 -1.6 -2 0.4 -0.7 0.3 -0.9 -0.4 -0.5 -0.6 0.3 -1.3 0.2 -1.7 -0.4 -1 -1.7 -2.5 -1.1 -2.5 1 0 2.2 -1.6 2.7 -2.3 0.8 -0.3 -1 -0.8 -1 -2.1 0.1 -1.4 1.2 -1.9 1.2 -2.6 0.2 -0.6 -1.1 -1.5 -1.1 -4.6 -0.1 -2.8 1 -3.9 1 -4.2 0.1 -0.2 -0.6 -0.8 -1.1 -1.4 -1.1 -0.6 0 -2.3 -1.3 -3.7 -2.8 -3.9 -4.1 -5.8 -6.7 -4.3 -5.8 2.1 1.2 1.3 -0.2 -1.7 -3.1 -2.8 -2.8 -6.1 -11.1 -6.6 -16.8 -0.1 -1.6 -0.6 -4.5 -1 -6.2 -0.7 -2.9 -0.5 -3.3 1.2 -3.3 2.1 0 2.8 1.8 5.3 14.1 0.8 4.1 1.9 6.4 4.5 9 1.9 1.9 3.5 4.4 3.5 5.7 0 1.2 0.4 2.2 0.9 2.2 0.5 0 1.7 0.8 2.6 1.7 1.8 1.8 10.5 3.6 10.5 2.1 0 -1.3 12.4 -1 13.8 0.4 0.9 0.9 1.3 0.7 1.8 -0.5 0.3 -0.9 1.4 -1.7 2.4 -1.7 1.1 0 2.2 -0.4 2.5 -1 0.3 -0.5 2.1 -1 3.9 -1 2.5 0 4.2 -1 7.4 -4.2 2.3 -2.3 4.2 -4.5 4.2 -4.9 0 -0.4 0.9 -0.9 2 -1.2 1.2 -0.3 2 -1.4 2 -2.6 0 -1.2 0.6 -2.1 1.5 -2.1 0.8 0 1.5 -0.9 1.5 -1.9 0 -1.1 0.4 -2.3 1 -2.6 0.5 -0.3 1.2 -2.8 1.6 -5.5 0.5 -4 1 -5 2.5 -5 2.6 0 2.5 5.5 -0.3 13.9 -2.9 8.6 -5.1 12.6 -7.1 12.6 -0.8 0 -2.9 1.4 -4.4 3.2 -3.1 3.4 -7.8 5.7 -10 4.9 -1.3 -0.5 -6.3 1.2 -7.3 2.5 -1.4 1.7 -4.7 2.6 -6.8 1.8z"/>
  <path d="M54.2 113.3 l0.3 -3.8 5.8 -0.3 5.7 -0.3 0 3.6 c0 2.8 -0.4 3.5 -2 3.5 -1.3 0 -2 -0.7 -2 -2 0 -1.1 -0.6 -2 -1.4 -2 -2.4 0 -3 2.2 -1.1 3.7 1.7 1.2 1.5 1.3 -1.9 1.3 -3.7 0 -3.7 0 -3.4 -3.7z"/>
  <path d="M73.3 111.3 c-1.9 -0.7 -1.6 -3.3 0.5 -3.4 5.6 -0.3 5.7 -0.4 5.7 -2.9 0 -1.9 -0.9 -3 -4 -4.5 -2.2 -1.2 -5.7 -3.2 -7.9 -4.7 -3.7 -2.5 -3.7 -2.7 -1.7 -3.7 3.9 -2.1 2.2 -2.9 -1.9 -1 -3 1.5 -4 2.5 -4 4.3 0 1.3 0.7 2.6 1.5 3 0.8 0.3 1.5 1 1.5 1.6 0 0.5 -0.7 1 -1.5 1 -0.8 0 -1.5 0.5 -1.5 1 0 0.6 -0.8 1 -1.8 1 -1.1 0 -1.8 -0.7 -1.8 -2 0 -1.1 0.6 -2 1.3 -2 1.8 0 1.6 -2.5 -0.3 -4.4 -1.4 -1.4 -1.8 -1.4 -4.2 -0.1 -11.1 6.3 -12.9 7.8 -13.4 11.5 -0.2 1.9 0.1 2.5 1.5 2.4 0.9 -0.1 1.7 0.2 1.7 0.7 0 0.5 -1.6 0.9 -3.5 0.9 -3.3 0 -3.5 -0.2 -3.5 -3.5 0 -1.9 0.4 -3.5 0.9 -3.5 0.5 0 1.1 -1.2 1.3 -2.7 0.2 -2.2 1 -3 3.6 -3.8 1.7 -0.5 3.2 -1.3 3.2 -1.7 0 -0.4 1.4 -0.8 3 -0.8 2.3 0 3 -0.4 3 -2 0 -1.5 0.7 -2 2.5 -2 2 0 2.5 -0.6 3.1 -3.6 0.4 -2.3 1.3 -3.8 2.4 -4.1 1.6 -0.4 1.6 -0.8 0.4 -3.1 -0.8 -1.5 -1.4 -4.4 -1.4 -6.5 0 -3.4 -0.3 -3.8 -3 -4.4 -1.6 -0.3 -3 -0.9 -3 -1.4 0 -0.5 -0.5 -0.9 -1.1 -0.9 -0.5 0 -0.8 0.3 -0.6 0.8 0.3 0.4 -2 0.8 -5.1 0.9 -3.2 0.1 -5 -0.1 -4.1 -0.3 1.1 -0.3 1.5 -1.3 1.1 -2.9 -0.3 -2 0 -2.5 1.6 -2.5 1.2 0 2.4 0.5 2.7 1 0.5 0.8 1.1 0.7 2.1 -0.1 2 -1.6 0.1 -3.7 -4 -4.4 -4.3 -0.8 -14.6 2 -17.1 4.7 -1.1 1.2 -1.3 1.7 -0.5 1.1 0.8 -0.6 4.3 -1.3 7.8 -1.7 5.8 -0.7 6.2 -0.6 6.2 1.4 0 1.1 -0.7 2 -1.5 2 -0.8 0 -1.5 0.6 -1.5 1.4 0 0.7 -0.9 1.6 -2 1.9 -1.1 0.3 -1.8 0.1 -1.4 -0.4 0.8 -1.3 -1 -1.1 -2.4 0.3 -0.9 0.9 -1.2 0.9 -1.2 0 0 -0.7 -0.9 -1.2 -2 -1.2 -1.6 0 -2 0.7 -2 3.5 0 3.1 -0.3 3.5 -2.5 3.5 -2.4 0 -2.5 0.2 -2.5 6.5 0 5.7 -0.2 6.5 -1.9 6.5 -1.7 0 -1.9 -0.8 -1.7 -8.2 0.1 -6.6 0.4 -8.2 1.5 -8 1.2 0.3 1.2 0 0.2 -1.2 -1.6 -1.9 -0.8 -4.6 1.4 -4.6 0.8 0 1.5 -0.8 1.5 -1.8 0 -1 0.5 -2.3 1.2 -3 0.6 -0.6 2.6 -3.8 4.3 -6.9 1.7 -3.2 3.6 -5.7 4.2 -5.6 0.6 0.1 2.3 -1.4 3.8 -3.3 1.5 -1.9 3 -3.3 3.3 -3 0.3 0.4 1.9 -0.6 3.6 -2.1 l2.9 -2.8 -1.9 3 c-1.1 1.7 -2.6 4.2 -3.4 5.8 -0.7 1.5 -2.2 2.7 -3.2 2.7 -1 0 -1.8 0.5 -1.8 1.1 0 0.6 -0.7 1.7 -1.5 2.5 -2.6 2.6 -1.7 3 5.8 2.6 8.3 -0.4 12.7 0.9 12.7 3.7 0 1.9 3.4 3.1 9.1 3.1 2.3 0 2.9 -0.4 2.9 -2.2 0 -4.6 1.2 -5.1 10.6 -4.6 5.4 0.3 8.9 0.9 9.2 1.6 0.2 0.7 1.2 1.2 2.2 1.2 1.6 0 1.7 -0.4 0.8 -3.7 -0.6 -2.1 -1.9 -5.6 -2.9 -7.9 -2.4 -5 -6.5 -6.7 -15.8 -6.5 -3.6 0 -7.2 -0.3 -7.9 -0.7 -1.7 -1.1 -8.2 0.9 -8.2 2.5 0 0.7 -0.9 1.3 -2 1.3 -1.4 0 -2 0.7 -2 2.4 0 1.9 -0.7 2.5 -3.6 3.1 -4.7 0.8 -5.1 0.3 -1.7 -2.6 1.5 -1.4 4 -4.1 5.5 -6.1 2.2 -2.9 3.8 -3.9 7.8 -4.7 3.7 -0.8 5.7 -0.8 7.2 0 1.2 0.6 3.8 0.8 6.1 0.5 4.2 -0.7 12.9 1.5 15.8 4 3.1 2.7 9.3 26.9 10.4 40.6 0.7 7.4 0.6 7.6 -1.4 7.1 -1.7 -0.4 -2.1 -1.4 -2.3 -6.6 -0.3 -6 -0.4 -6.2 -3.3 -6.7 -2 -0.4 -2.6 -0.8 -1.7 -1.3 1.7 -1.1 1.5 -2.8 -0.8 -5.7 -1.5 -2 -2.1 -2.3 -3.1 -1.2 -0.7 0.6 -2.5 1.2 -4 1.2 -4.4 0 -7.9 1.7 -7.3 3.5 0.4 1 0 1.5 -1.2 1.5 -0.9 0 -1.4 -0.3 -1.1 -0.7 1.2 -1.1 -1.4 -3.3 -3.9 -3.3 -2 0 -2.4 0.5 -2.4 2.8 0 5.5 5 7.8 12.5 5.8 2.8 -0.8 4.3 -1.5 3.5 -1.5 -1.3 -0.1 -1.3 -0.3 0.1 -1.1 1.8 -1 5.9 -0.2 5.9 1.2 0 3.3 -2.2 4.7 -8.7 5.4 -3.8 0.5 -5.8 1 -4.5 1.2 1.8 0.3 2.2 1 2.2 3.8 0 3.1 -0.2 3.4 -3 3.4 -5.3 0 -3.4 3.4 3.8 6.5 2.3 1 4.2 2.2 4.2 2.7 0 0.4 0.6 0.8 1.4 0.8 2.9 0 3.7 8.8 1 11.4 -1.5 1.5 -6.5 2 -9.1 0.9z m-9.3 -22.2 c0 -0.5 -0.3 -1.7 -0.6 -2.6 -0.6 -1.4 -0.8 -1.4 -2.5 0.1 -2.6 2.3 -2.4 3.4 0.6 3.4 1.4 0 2.5 -0.4 2.5 -0.9z m28.5 -22.1 c-0.3 -0.5 -1.3 -1 -2.1 -1 -0.8 0 -1.4 -0.4 -1.4 -1 0 -1.9 -4.4 -4.9 -8.2 -5.5 -7.9 -1.4 -14.8 -0.5 -14.8 1.8 0 0.8 0.3 0.8 1.2 -0.1 0.7 -0.7 3.2 -1.2 5.8 -1.2 3.1 0 4.1 0.3 3 1 -2.1 1.3 -1.2 1.7 5 2.3 4 0.4 5.9 1.1 7 2.6 1.5 2 5.7 3.1 4.5 1.1z"/>
  <path d="M48 105 c0 -0.5 -0.8 -1 -1.7 -1 -1.3 0 -1.4 -0.3 -0.6 -1.1 0.9 -0.9 1.6 -0.8 2.7 0.4 1.8 1.8 2 2.7 0.6 2.7 -0.5 0 -1 -0.4 -1 -1z"/>
  <path d="M99.8 85.7 c-1.2 -2.9 -1 -6.3 0.3 -5 0.6 0.6 0.9 2.3 0.7 3.9 -0.2 2.4 -0.4 2.6 -1 1.1z"/>
  <path d="M33.9 75.8 c-1.4 -1 -1.4 -1.3 0.3 -3 1.9 -1.9 2.1 -1.9 3.8 -0.3 2.2 1.9 5 1.4 5 -1 0 -0.8 0.9 -1.5 2 -1.5 1.4 0 2 0.7 2 2.1 0 1.1 -0.4 1.8 -0.9 1.5 -1.4 -0.9 -4.1 0.4 -4.1 2 0 1.7 -5.7 1.8 -8.1 0.2z"/>
  <path d="M49 73.5 c0 -3.3 0.2 -3.5 3.5 -3.5 3.3 0 3.5 0.2 3.5 3.5 0 3.3 -0.2 3.5 -3.5 3.5 -3.3 0 -3.5 -0.2 -3.5 -3.5z"/>
 </g>
 <g fill="#a57b73">
  <path d="M58 128.6 c0 -1.7 -4 -2.9 -5.4 -1.6 -0.6 0.4 -1.4 0.9 -1.8 0.9 -0.5 0.1 -0.9 0.1 -1 0.2 -0.2 0.1 -3.1 0.2 -6.5 0.4 -5.5 0.2 -6.4 -0.1 -9.5 -2.6 -1.8 -1.6 -3.7 -2.9 -4.1 -2.9 -0.5 0 -0.7 -0.9 -0.5 -1.9 0.2 -1 -0.6 -2.8 -1.6 -4 -1.9 -2.1 -1.9 -2.1 1.7 -2.1 2.9 0 3.7 0.4 3.7 1.8 0 2.4 4.5 7 7.6 7.8 1.4 0.4 4.5 0.1 7 -0.6 2.5 -0.7 6.6 -1 9.3 -0.7 2.6 0.3 5.3 0.1 5.8 -0.4 0.5 -0.5 3.2 -1.2 6 -1.6 4.1 -0.4 5.3 -1 6.2 -3 1.7 -3.7 1.3 -5 -1.4 -5.5 -1.9 -0.4 -2.5 -0.1 -2.5 1.3 0 1.1 -0.7 1.9 -1.5 1.9 -0.8 0 -1.5 0.5 -1.5 1 0 0.6 -0.7 1 -1.5 1 -0.8 0 -1.5 0.5 -1.5 1 0 1.7 -9 1.2 -9.6 -0.5 -0.4 -0.8 -1.2 -1.5 -2 -1.5 -1.6 0 -2 -6.5 -0.5 -7.4 0.4 -0.3 6.6 -0.8 13.7 -1.1 12.1 -0.5 14.3 -1.1 14.4 -3.7 0 -1.2 -4.2 -4.7 -6.4 -5.4 -1.1 -0.4 -3.8 -1.8 -5.9 -3.2 -3.4 -2.3 -3.6 -2.6 -2.2 -4.2 1.8 -2 2.1 -4 0.3 -2.2 -0.7 0.7 -1.9 1.2 -2.8 1.2 -0.9 0 -2.5 0.9 -3.4 1.9 -1.4 1.6 -2.2 1.8 -3.6 0.9 -1.4 -0.9 -2.4 -0.7 -4.6 0.9 -1.6 1.1 -4.8 3 -7 4.1 -2.9 1.5 -4.5 3.1 -5.3 5.4 -1.3 3.7 -0.2 5.4 2.5 4 1.1 -0.6 2.7 -1.3 3.7 -1.6 0.9 -0.3 1.7 -1 1.7 -1.6 0 -0.5 -0.8 -1 -1.7 -1 -1.5 0 -1.6 -0.2 -0.3 -1 1 -0.6 1.6 -0.6 1.8 0 0.2 0.6 1 1 1.8 1 0.8 0 1.4 0.7 1.4 1.5 0 0.8 -0.9 1.5 -2 1.5 -1.3 0 -2 0.7 -2 2 0 2.3 -3.4 4 -8.1 4 -2.8 0 -2.9 -0.2 -2.9 -4.7 0 -7.2 0.8 -9.3 3.6 -9.3 1.7 0 2.4 -0.6 2.4 -1.9 0 -1.1 0.8 -2.2 1.9 -2.6 1 -0.3 2.6 -1.4 3.5 -2.4 1.5 -1.7 1.4 -1.7 -3.9 -1.3 l-5.5 0.4 0 -3.6 c0 -2.6 0.4 -3.6 1.6 -3.6 1.7 0 9.3 -5 9.4 -6.2 0 -0.4 -4.3 -0.8 -9.5 -1 -5.2 -0.2 -9.5 -0.1 -9.5 0.2 0 0.3 1.1 1.7 2.5 3.2 1.5 1.7 2.5 3.9 2.5 5.8 0 2.7 -0.3 3 -3 3 -3.1 0 -6.7 -2.7 -8.8 -6.5 -0.6 -1.1 -1.2 -1.4 -1.2 -0.7 0 2.8 -2.9 1 -3.5 -2.2 -0.9 -4.3 0.1 -7.6 2.2 -7.6 1.4 0 1.4 -0.2 0 -1.8 -1 -1 -1.7 -2.1 -1.7 -2.5 0 -0.3 1.8 -2.7 4.1 -5.3 2.3 -2.6 5 -6.7 6.2 -9.1 1.2 -2.4 2.7 -4.3 3.3 -4.3 0.7 0 2.2 -1.2 3.3 -2.6 2.1 -2.7 7.1 -5.9 7.1 -4.6 -0.1 0.4 -0.7 1.8 -1.5 3.2 -0.8 1.4 -1.4 2.9 -1.5 3.3 0 1.3 6.2 -4.2 8.7 -7.6 2.9 -3.9 7.8 -6 12.3 -5.3 1.9 0.4 6.7 0.8 10.5 0.9 8.1 0.4 13.7 2.1 15.5 5 1.1 1.9 1 2 -2.7 1.4 -2.1 -0.4 -5.8 -1.1 -8.2 -1.6 -2.6 -0.5 -5.6 -0.5 -7.5 0 -4.2 1.2 -10.4 1.1 -10.8 -0.1 -0.4 -1.4 -6.8 1.1 -6.8 2.7 0 0.6 -1.1 3.3 -2.5 6 l-2.4 4.8 3.5 0.9 c2.4 0.6 3.6 1.5 4 3.2 0.5 2 1.2 2.4 4.5 2.4 2.1 0 3.9 -0.5 3.9 -1.1 0 -2 2.9 -3.9 5.9 -3.9 3.7 0 4 1.2 0.6 3 -1.4 0.7 -2.5 1.7 -2.5 2.2 0 0.5 0.9 0.4 1.9 -0.2 1.1 -0.5 2.2 -1 2.5 -1 1.2 0 0.6 2.8 -0.6 3.3 -0.7 0.3 1.4 0.4 4.7 0.2 3.3 -0.2 6.6 0 7.4 0.4 2.2 1.4 0.3 3.1 -3.5 3.1 -2 0 -4.4 0.5 -5.5 1.1 -1.5 0.7 -2.4 0.7 -3.5 -0.1 -0.9 -0.8 -2.7 -1 -5.1 -0.5 -2.1 0.4 -3.2 1 -2.5 1.2 1.5 0.6 1.6 4 0.1 4.5 -0.9 0.3 -0.8 1.1 0.2 2.8 1.1 2.1 1.4 2.2 1.7 0.8 0.4 -2.2 0.7 -2.2 3.7 -0.2 1.9 1.2 3.7 1.4 7.7 0.9 6.2 -0.9 7.5 -1.4 5.7 -2.6 -1 -0.6 -0.3 -0.9 1.9 -0.9 1.9 0 4.5 -0.9 5.9 -2 1.4 -1.1 2.2 -2 1.7 -2 -0.4 0 0.1 -0.6 1.2 -1.4 1.7 -1.3 1.7 -1.5 0.2 -2.1 -0.9 -0.4 -2.4 -1.8 -3.3 -3.1 -1.5 -2.4 -1.5 -2.4 1.5 -2.4 2.5 0 3 0.4 3 2.3 0 1.3 0.3 2.7 0.7 3.1 0.4 0.3 0.8 1.2 0.9 1.9 0.1 0.7 0.6 2.6 0.9 4.3 0.7 3.1 0.7 3.2 -4.1 3.9 -2.7 0.4 -5.3 1.4 -5.9 2.2 -0.7 0.9 -2.9 1.8 -5.1 2.2 -3.7 0.6 -3.9 0.9 -4.2 4.4 -0.3 3.1 -0.7 3.7 -2.6 3.7 -1.5 0 -2.6 0.7 -2.9 2 -0.3 1.3 0 2 0.9 2 0.8 0 1.4 0.5 1.4 1.1 0 0.8 2.3 1 7.8 0.5 7.6 -0.7 7.7 -0.7 9.3 2 l1.7 2.7 0.7 -3.1 c0.8 -3.8 4.2 -4.6 3.9 -0.9 -0.2 3.6 -1.6 8.7 -2.5 9.3 -0.5 0.3 -0.9 1.6 -0.9 2.9 0 2.7 -1.6 4.2 -2.3 2.3 -0.3 -0.7 -0.6 -0.2 -0.6 1 -0.1 1.4 -0.9 2.6 -1.8 2.9 -1 0.2 -2.9 1.9 -4.3 3.8 -3.5 4.6 -8.4 7.8 -10.9 7 -1 -0.3 -2.2 -0.1 -2.6 0.5 -0.3 0.5 -1.3 1 -2.1 1 -0.8 0 -2.3 0.9 -3.4 2 -2.3 2.3 -7 2.7 -7 0.6z m4.3 -14.6 c0.4 -1.6 0 -2 -1.7 -2 -2.9 0 -3.9 1 -2.5 2.7 1.6 1.9 3.6 1.6 4.2 -0.7z m1.7 -26.1 c0 -2.7 -2.1 -3.5 -3.7 -1.4 -2 2.9 -1.6 4.3 1.2 3.7 1.6 -0.3 2.5 -1.1 2.5 -2.3z m-10 0.6 c0 -0.9 -0.6 -1.2 -1.5 -0.9 -0.8 0.4 -1.5 1 -1.5 1.5 0 0.5 0.7 0.9 1.5 0.9 0.8 0 1.5 -0.7 1.5 -1.5z m15.7 -4.5 c-1.4 -1.1 -2.9 -2 -3.4 -2 -1.1 0.1 3.7 4 4.9 4 0.6 0 -0.1 -0.9 -1.5 -2z m-9.7 -2.5 c0 -1.4 -0.4 -2.5 -1 -2.5 -0.5 0 -1 -2 -1 -4.4 0 -2.5 -0.4 -4.7 -0.9 -5 -0.5 -0.3 -0.6 1.4 -0.4 3.7 0.4 3.2 0.1 4.8 -1.1 5.9 -2.6 2.7 -2 4.8 1.4 4.8 2.5 0 3 -0.4 3 -2.5z m-24.9 -9.1 c1.1 -1.4 1.3 -1.4 2.1 0 1.3 2.2 4.5 2 5.8 -0.4 0.6 -1.1 1.7 -2 2.5 -2 0.8 0 1.5 -0.5 1.5 -1.1 0 -1.1 -12.7 -0.8 -14.7 0.4 -1.2 0.7 -0.6 4.7 0.7 4.7 0.4 0 1.3 -0.7 2.1 -1.6z m28.4 -6.4 c0.4 -0.6 -0.6 -1 -2.2 -1 -2.2 0 -2.5 0.2 -1.3 1 1.9 1.2 2.7 1.2 3.5 0z m-35.1 -1.9 c0.3 -0.5 5 -0.7 10.5 -0.4 8.5 0.4 9.9 0.3 10.5 -1.2 0.9 -2.3 0.1 -3.2 -3.4 -4 -1.7 -0.4 -3 -1.3 -3 -2.1 0 -0.8 -0.4 -1.4 -1 -1.4 -0.5 0 -1 0.6 -1 1.3 0 0.8 -1.7 1.9 -3.9 2.5 -5.1 1.6 -5.9 1.5 -6.4 -0.5 -0.4 -1.4 -0.5 -1.3 -0.6 0.4 0 1.2 -1 2.7 -2.1 3.3 -1.1 0.6 -2 1.5 -2 2 0 1.2 1.7 1.3 2.4 0.1z m10.6 -10.1 c0 -0.5 -0.6 -1 -1.4 -1 -0.8 0 -1.8 0.5 -2.1 1 -0.3 0.6 0.3 1 1.4 1 1.2 0 2.1 -0.4 2.1 -1z"/>
  <path d="M21.6 106.9 c-0.9 -3.4 -1.5 -6.4 -1.2 -6.6 0.2 -0.3 -0.2 -2.3 -1 -4.5 -2 -5.9 -1.9 -9.8 0.5 -9.8 1.3 0 2 1 2.5 3.8 0.3 2 1 6 1.6 8.7 2.2 11.2 2.4 14.5 0.8 14.5 -1 0 -2.1 -2.2 -3.2 -6.1z"/>
  <path d="M58.3 101.4 c-0.3 -0.8 -0.1 -2 0.5 -2.6 1.6 -1.6 4.2 -0.2 4.2 2.2 0 2.4 -3.8 2.8 -4.7 0.4z"/>
  <path d="M99.8 85 c-1.1 -3.8 -1 -5.6 0.3 -4.3 0.6 0.6 0.9 2.3 0.7 3.9 l-0.3 2.9 -0.7 -2.5z"/>
 </g>
 <g fill="#b96d6d">
  <path d="M60 110.4 c0 -1.4 -1 -1.5 -8 -0.9 -7 0.6 -8 0.5 -8 -0.9 0 -0.9 0.7 -1.6 1.5 -1.6 0.9 0 1.8 -0.7 2.2 -1.6 0.4 -1.2 1.4 -1.4 3.8 -1 3 0.6 3.4 0.3 4.6 -2.4 1.6 -3.4 3.6 -4.5 5.5 -2.9 2.1 1.7 1.7 3.9 -0.6 3.9 -3 0 -2.4 1.8 0.8 2.2 1.5 0.2 2.6 0.8 2.5 1.4 -0.1 0.7 1.3 1.5 3.2 1.8 2.1 0.4 3.5 1.3 3.5 2.1 0 1.1 -1.4 1.5 -5.5 1.5 -4.4 0 -5.5 -0.3 -5.5 -1.6z"/>
  <path d="M40 76 c0 -1.6 0.7 -2 3 -2 1.7 0 3 -0.4 3 -1 0 -0.5 -0.7 -0.7 -1.5 -0.4 -0.8 0.4 -1.5 0.1 -1.5 -0.5 0 -0.6 1.1 -1.1 2.4 -1.1 1.3 0 2.6 -0.7 3 -1.5 1.1 -2.8 2.6 -1.5 2.6 2.3 0 4.9 -1.4 6.2 -6.7 6.2 -3.6 0 -4.3 -0.3 -4.3 -2z"/>
 </g>
 <g fill="#b3857c">
  <path d="M61.4 128.5 c0.3 -1 0.1 -1.5 -0.7 -1.4 -0.6 0.2 -2.6 -0.1 -4.3 -0.5 -1.7 -0.4 -4.2 -0.3 -5.5 0.3 -1.4 0.5 -4.8 1 -7.7 1.2 -4.7 0.4 -5.6 0.1 -9.7 -3.1 -2.4 -1.9 -4.2 -4.1 -4 -4.8 0.3 -0.7 -1 -2.6 -2.9 -4.2 -2.7 -2.4 -3.6 -4.2 -4.5 -9.2 -0.7 -3.5 -1.7 -8.3 -2.3 -10.7 -1 -3.7 -1.4 -13.3 -0.9 -20.3 0 -1 0.8 -1.8 1.6 -1.8 1.1 0 1.5 -1.2 1.5 -4.5 0 -3.6 0.8 -5.7 3.9 -10.3 4.7 -6.8 11.9 -14.6 14.4 -15.5 2.2 -0.8 2.2 -0.1 -0.4 3.4 -1.7 2.4 -1.8 2.9 -0.5 2.9 0.9 0 2.1 -0.9 2.8 -2 0.7 -1.1 1.8 -2 2.5 -2 0.7 0 2 -1.4 2.8 -3 0.9 -1.7 3 -4 4.8 -5 3.9 -2.4 8.7 -2.7 8.7 -0.5 0 1.8 0.2 1.8 6.5 0.1 2.8 -0.7 5.9 -1 7 -0.5 1.1 0.4 3.3 0.8 4.8 0.8 2.5 0.1 2.8 0.4 2.5 2.9 -0.3 2.4 -0.8 2.7 -4.2 3 -2.8 0.2 -4.2 -0.1 -4.8 -1.2 -0.7 -1.3 -1.3 -1.4 -3 -0.5 -1.3 0.7 -5 1 -9.4 0.7 -5.5 -0.4 -7.4 -0.2 -7.8 0.9 -0.3 0.7 -1.2 1.3 -2.1 1.3 -0.9 0 -1.5 0.9 -1.5 2.1 0 1.1 -0.7 2.7 -1.5 3.5 -2.3 2.4 -1.8 4.4 1.1 4.4 3.1 0 5.4 2.1 5.4 4.9 0 1.2 0.6 2.1 1.4 2.1 2.9 0 6.6 -2 6.6 -3.5 0 -0.8 0.7 -1.5 1.5 -1.5 0.8 0 1.5 -0.4 1.5 -1 0 -0.5 1.6 -1 3.5 -1 2.4 0 3.5 0.5 3.5 1.5 0 0.8 -0.6 1.5 -1.4 1.5 -0.8 0 -2.4 0.9 -3.7 2.1 -2.1 1.8 -2.1 2 -0.4 1.4 4.4 -1.6 5.5 -1.7 5.5 -0.6 0 0.6 -0.8 1.1 -1.7 1.2 -1.1 0 -1.3 0.3 -0.5 0.6 0.6 0.2 1.2 1.9 1.1 3.6 0 1.8 -0.3 2.6 -0.6 2 -0.2 -0.7 -1.3 -1.3 -2.2 -1.3 -1 0 -3.2 -0.7 -4.9 -1.6 -3.3 -1.6 -6.9 -0.9 -3.8 0.8 0.9 0.5 1.6 1.5 1.6 2.3 0 0.7 0.6 1.6 1.3 1.9 1 0.5 1 0.7 0 1.2 -1.8 0.8 -1.6 3 0.4 6.2 2.9 4.8 6.6 8.2 8.7 8.2 1.7 0 1.6 -0.3 -1 -1.9 -3.5 -2.1 -6.4 -5.8 -6.4 -8 0 -1.1 0.5 -1 2.1 0.4 3.4 3.1 18.4 1.7 16.4 -1.6 -0.4 -0.5 0.6 -0.9 2.2 -0.9 1.5 0 3.7 -0.7 4.7 -1.5 2.9 -2.2 3.6 -1.9 3.6 2 0 3.2 -0.2 3.5 -2.9 3.5 -1.7 0 -3.3 0.4 -3.6 1 -0.3 0.5 -2 1.4 -3.8 1.9 -2.5 0.7 -2.7 0.9 -0.9 1 1.8 0.1 2.2 0.7 2.2 3.5 l0 3.4 -6.5 0.7 c-5.2 0.5 -6.5 1 -6.5 2.4 0 1.5 1.1 1.6 10.5 1.3 9.1 -0.4 10.9 -0.2 12.5 1.3 2.5 2.2 2.5 2.5 -0.2 8.6 -1.4 3.4 -2.4 4.6 -2.9 3.7 -0.6 -0.9 -1.1 -0.4 -1.9 1.6 -0.6 1.6 -1.8 3.9 -2.8 5.1 -1.6 2 -2 2.1 -2.8 0.7 -1.5 -2.2 -3.2 -0.7 -4.4 3.8 -1.4 5.1 -3.5 7.2 -6.5 6.4 -1.2 -0.3 -2.6 -0.1 -2.9 0.5 -0.4 0.5 -1.3 0.8 -2 0.5 -0.7 -0.3 -2.1 0.6 -3 2 -1.8 2.8 -4.2 3.6 -3.2 1.1z m-3.4 -6 c5.8 -0.2 9.6 -0.7 9.8 -1.4 0.2 -0.6 1 -1.1 1.8 -1.1 0.9 0 1.2 -0.4 0.9 -1 -0.8 -1.3 -4.2 -1.3 -4.7 0 -0.2 0.6 -2.7 1.3 -5.6 1.7 -4.4 0.5 -5.2 0.3 -5.2 -1.1 0 -0.9 -0.8 -1.6 -2 -1.6 -1.7 0 -2 -0.7 -2 -4 0 -5.7 1 -5.9 19.9 -5.1 6.6 0.3 7.6 0.1 9.1 -1.7 1 -1.2 2 -1.8 2.4 -1.5 0.3 0.4 0.6 0 0.6 -0.9 0 -0.8 1.1 -2 2.4 -2.8 2.1 -1 2.3 -1.6 1.3 -3.1 -0.8 -1.3 -1.5 -1.5 -2.4 -0.7 -0.7 0.6 -2.2 0.8 -3.3 0.5 -1.4 -0.3 -2 0 -2 1 0 1.3 -0.3 1.3 -2.5 -0.1 -1.3 -0.9 -3 -1.6 -3.7 -1.6 -0.7 0 -2.6 -1.1 -4.3 -2.4 -2.4 -2 -2.8 -2.7 -1.7 -3.7 0.6 -0.7 1.2 -2 1.2 -2.8 -0.1 -1.3 -0.2 -1.3 -1.1 0.2 -0.5 0.9 -2.1 1.7 -3.4 1.7 -1.4 0 -2.9 0.9 -3.5 2.1 -0.9 1.6 -1.4 1.8 -2.5 0.9 -1.9 -1.5 -4.4 -0.6 -11.5 4.1 -4.9 3.2 -6 4.5 -6.6 7.4 -0.8 4.5 -0.5 4.8 3 3 3.9 -2 5.6 -1.9 5.6 0.5 0 1.3 -0.7 2 -2 2 -1.1 0 -2 0.5 -2 1 0 1.1 -4.9 1.4 -7.4 0.4 -3.1 -1.2 -1.7 -12.4 1.5 -12.4 1.2 0 1.9 -0.7 1.9 -2 0 -1.1 0.7 -2 1.5 -2 0.8 0 1.5 -0.4 1.5 -1 0 -0.5 1.6 -1 3.5 -1 2.8 0 3.5 -0.4 3.5 -1.9 0 -1.3 0.8 -2.1 2.3 -2.3 1.5 -0.2 2.1 -0.9 1.9 -2.1 -0.2 -0.9 0.4 -2 1.3 -2.3 0.8 -0.3 1.5 -1.2 1.5 -2 0 -0.8 0.5 -1.4 1 -1.4 0.6 0 1 -0.9 1 -2 0 -1.1 -0.4 -2 -0.9 -2 -0.5 0 -1.2 -0.8 -1.4 -1.7 -0.3 -1 -0.5 -0.3 -0.6 1.6 l-0.1 3.3 -6.7 -0.7 c-3.8 -0.4 -8.6 -1.3 -10.8 -2.1 -7.4 -2.5 -10 -1 -5.2 3.1 1.7 1.6 3.7 2 9.2 2 l7 0 0.3 3.1 c0.3 3.1 0.2 3.1 -4.7 3.8 -9.7 1.3 -20.1 -1.3 -20.1 -4.9 0 -2.6 -1.8 -1.6 -2.5 1.4 -0.3 1.6 0 4.5 0.9 6.7 0.8 2.1 1.7 6.5 2.1 9.7 0.5 4.7 1.2 6.3 3.6 8.4 1.6 1.5 2.9 3.2 2.9 4 0 0.7 1.7 2.9 3.8 4.9 3.5 3.3 4 3.5 8.2 2.9 2.5 -0.4 8.8 -0.8 14 -1z m4 -7.3 c0 -0.8 0.6 -1.2 1.5 -0.8 0.8 0.3 1.5 0.1 1.5 -0.4 0 -0.5 0.8 -1.1 1.8 -1.3 0.9 -0.3 -1.1 -0.5 -4.5 -0.6 -3.4 0 -6.5 0.4 -6.8 0.9 -0.3 0.6 0 1 0.8 1 0.8 0 1.7 0.6 2 1.3 0.7 1.8 3.7 1.7 3.7 -0.1z m2.3 -26.1 c1.1 -1.1 -0.3 -4.1 -1.9 -4.1 -1.3 0 -4.4 3.7 -4.4 5.3 0 1 5 0 6.3 -1.2z m-17.7 -14.9 c0.6 -0.4 1.3 -1.9 1.6 -3.5 0.4 -2.3 0.1 -2.8 -1.9 -3.3 -3.2 -0.9 -2.7 -4 0.6 -3.6 4.7 0.7 4.9 -4.1 0.3 -5.3 -1.5 -0.4 -2.9 -1 -3.2 -1.4 -0.3 -0.5 -2.4 -1.1 -4.7 -1.4 -3.8 -0.6 -4.1 -0.5 -3.6 1.3 0.4 1.6 -0.1 2.1 -2.6 2.6 -3.4 0.7 -9.3 5.5 -7.4 6.1 0.7 0.3 0.9 1.2 0.6 2.1 -0.4 1.4 -0.3 1.4 0.5 0.2 0.6 -0.8 0.9 -1.7 0.6 -2.1 -1 -1.6 2.6 -2.5 8.9 -2.1 4.8 0.3 6.7 0.8 6.7 1.7 0 1.7 -2.4 2.5 -6.9 2.3 -3.1 -0.1 -6.1 2 -6.1 4.3 0 1.8 4.2 2 5.7 0.2 1.2 -1.5 1.4 -1.6 0.9 -0.1 -0.4 1.3 0.3 1.8 3.2 2.1 2 0.2 4.2 0.4 4.7 0.5 0.6 0.1 1.5 -0.2 2.1 -0.6z m6.5 -2.5 c-0.8 -0.8 -1.1 -0.7 -1.1 0.4 0 0.9 0.3 1.9 0.7 2.3 0.4 0.4 0.9 0.2 1.1 -0.4 0.3 -0.7 -0.1 -1.7 -0.7 -2.3z m-0.7 -4.1 c-0.3 -0.7 0.5 -1.8 1.8 -2.4 1.7 -0.8 1.9 -1.1 0.6 -1.1 -0.9 -0.1 -2 0.4 -2.3 0.9 -0.4 0.6 -1.1 0.8 -1.6 0.5 -1 -0.7 -1.2 0.6 -0.3 2.9 0.3 0.9 1 1.4 1.5 1.1 0.4 -0.3 0.6 -1.1 0.3 -1.9z m-7.4 -20 c0 -0.5 -0.7 -0.1 -1.5 1 -0.8 1 -1.4 2.4 -1.4 2.9 0 0.6 0.6 0.1 1.4 -0.9 0.8 -1.1 1.5 -2.4 1.5 -3z"/>
  <path d="M57 100.6 c0 -1.6 2.7 -2.9 4.1 -2 1.8 1.1 0.8 3 -1.6 3.2 -1.6 0.1 -2.5 -0.3 -2.5 -1.2z"/>
  <path d="M99.8 84.5 c-0.6 -3 -0.3 -4.3 0.8 -3.3 0.3 0.4 0.4 1.9 0.2 3.5 l-0.3 2.8 -0.7 -3z"/>
  <path d="M76 65.1 c0 -1.1 3 -1.9 4.8 -1.4 2.3 0.8 1.2 2.3 -1.8 2.3 -1.6 0 -3 -0.4 -3 -0.9z"/>
 </g>
 <g fill="#aa8f8c">
  <path d="M24.6 113.4 c-2.3 -2.2 -2 -5.4 0.4 -5.4 1.6 0 2 0.7 2 3.5 0 4 -0.2 4.1 -2.4 1.9z"/>
  <path d="M92.5 100 c-0.3 -0.5 -0.3 -5 0.1 -10 0.5 -6.4 1.1 -9 2 -9 1.8 0 2.8 6.1 2 12.2 -0.7 5 -2.9 8.7 -4.1 6.8z"/>
  <path d="M58 94.3 c0 -0.7 -0.7 -1.3 -1.5 -1.3 -0.8 0 -1.5 -0.4 -1.5 -1 0 -0.5 1.1 -1 2.5 -1 2.7 0 3 0.7 1.5 3 -0.6 1 -1 1.1 -1 0.3z"/>
  <path d="M70 87.4 c0 -1.1 0.6 -1.4 2.3 -0.9 l2.2 0.6 -2.2 -1.7 c-3.4 -2.5 -2.8 -3.4 2.1 -3.4 3.9 0 4.8 -0.4 7.1 -3.4 1.5 -1.9 4.3 -4.3 6.3 -5.4 2 -1 3.7 -2.4 3.7 -3 0 -0.6 0.3 -1.4 0.7 -1.7 0.4 -0.4 -0.7 -2.3 -2.5 -4.2 -3.1 -3.3 -10.1 -6.2 -15.6 -6.4 -1.7 -0.1 -2 -0.3 -0.8 -0.6 0.9 -0.2 1.7 -0.9 1.7 -1.4 0 -1.2 7.2 -1.2 10.4 0.1 2.5 0.9 2.6 0.8 2 -1.8 -1.6 -6.5 -4.7 -10.7 -8.7 -11.7 -2.5 -0.7 -2.5 -0.7 -0.6 -2.6 2 -2 4.9 -1.9 7.7 0.4 2.9 2.3 6.8 15.7 9.7 33.5 0.6 3.2 0.4 4.2 -0.6 4.2 -0.8 0 -2.3 1.7 -3.4 3.8 -2.7 5 -7.4 7.2 -15.2 7.2 -5.1 0 -6.3 -0.3 -6.3 -1.6z"/>
  <path d="M19 74 c0 -1.2 0.7 -2 1.7 -2 1.5 0 1.5 -0.1 0 -1.8 -1.5 -1.6 -1.5 -2.1 -0.2 -3.8 1.2 -1.5 1.6 -1.6 2.4 -0.5 0.5 0.7 1.4 1 2 0.7 1.7 -1.1 1.3 1.5 -0.6 3.6 -0.9 1 -1.1 1.8 -0.6 1.8 1.3 0 4.7 -5 3.9 -5.7 -0.7 -0.8 1.3 -3.3 2.6 -3.3 0.6 0 0.5 0.6 -0.2 1.5 -1.1 1.3 -0.8 1.3 1.8 0 1.6 -0.8 5 -1.8 7.5 -2.1 3.7 -0.5 5.1 -0.3 7.6 1.5 1.7 1.2 3.1 2.9 3.1 3.8 0 1.2 -0.3 1.3 -1.4 0.4 -1.6 -1.4 -11.8 -1.2 -16.3 0.2 -2.6 0.9 -3.3 1.7 -3.5 4.1 -0.3 2.9 -0.6 3.1 -5 3.4 -4.3 0.3 -4.8 0.1 -4.8 -1.8z"/>
  <path d="M32 75 c0 -0.5 1.6 -1 3.5 -1 1.9 0 3.5 0.5 3.5 1 0 0.6 -1.6 1 -3.5 1 -1.9 0 -3.5 -0.4 -3.5 -1z"/>
  <path d="M59 70.3 c0.1 -4.1 0.2 -4.5 1.2 -2.8 0.6 1.1 1.6 2.3 2.1 2.6 0.5 0.4 0 1.6 -1.2 2.8 l-2.1 2.1 0 -4.7z"/>
  <path d="M51.7 66.5 c-2 -2.8 -1.5 -4.5 1.4 -4.5 2.4 0 2.4 0.8 0.2 2.7 -1.7 1.4 -1.7 1.4 0 0.9 1.2 -0.4 1.7 0 1.7 1.4 0 2.7 -1.1 2.5 -3.3 -0.5z"/>
  <path d="M69.3 67.7 c-0.7 -0.7 -1.9 -1.8 -2.8 -2.6 -1.5 -1.2 -1.5 -1.5 -0.2 -2.9 0.9 -0.8 3.4 -1.7 5.6 -1.9 3.4 -0.3 4 -0.1 3.5 1.2 -0.5 1.1 0 1.8 1.5 2.2 3 0.8 2.6 1.7 -1.6 3.3 -2.1 0.8 -4 1.6 -4.3 1.7 -0.3 0.1 -1 -0.3 -1.7 -1z"/>
  <path d="M62 62.9 c0 -2.5 2.3 -4.9 4.7 -4.9 1.6 0.1 1.6 0.2 0.2 1.3 -0.9 0.7 -1.9 2.2 -2.3 3.5 -0.9 2.8 -2.6 2.9 -2.6 0.1z"/>
  <path d="M25.3 62.6 c0.4 -1 0.7 -2 0.7 -2.2 0 -0.2 0.9 -0.4 2 -0.4 1.3 0 2 -0.7 2 -2 0 -1.6 0.7 -2 3.5 -2 2.4 0 3.5 0.5 3.5 1.5 0 0.8 -0.6 1.5 -1.2 1.6 -3.3 0.2 -5.4 0.9 -8.1 3 -2.5 1.8 -2.9 1.9 -2.4 0.5z"/>
 </g>
 <g fill="#c08f85">
  <path d="M34.2 125 c-2.3 -2.1 -4.2 -4.5 -4.2 -5.3 0 -0.9 -1.3 -2.6 -2.9 -4 -3 -2.5 -5.3 -8.4 -5.7 -14.2 -0.1 -1.6 -0.6 -4.2 -1.3 -5.7 -1 -2.6 -0.9 -2.8 1.3 -2.8 2.2 0 2.5 0.6 3.5 6.3 0.6 3.5 1.1 7.3 1.1 8.5 0 1.2 0.5 2.2 1 2.2 0.6 0 1 1.1 1 2.5 0 2.1 0.5 2.5 2.9 2.5 2.2 0 3 0.6 3.5 2.5 0.4 1.4 1.1 2.5 1.6 2.5 0.6 0 1 0.8 1 1.8 0 1.4 1.1 1.7 7.5 1.9 4.1 0.1 7.5 -0.3 7.5 -0.8 0 -0.5 2.1 -1 4.8 -1.1 4.3 -0.1 4.4 -0.2 1 -0.5 -3.3 -0.4 -3.8 -0.8 -3.8 -2.9 0 -1.5 -0.6 -2.4 -1.5 -2.4 -1 0 -1.5 -1 -1.5 -3.4 0 -3.7 1.2 -4.6 6.1 -4.6 1.6 0 2.9 -0.4 2.9 -1 0 -0.5 0.9 -1 2 -1 1.3 0 1.8 0.5 1.4 1.5 -0.5 1.1 0.1 1.5 2.5 1.5 5.1 0 3.5 2 -1.6 2.1 -2.7 0.1 -5.9 0.4 -7.2 0.8 -3.1 0.8 -4 3.1 -1.2 3.1 1.2 0 2.1 0.6 2.1 1.4 0 1 0.7 1.2 2.3 0.8 1.2 -0.3 2.4 -0.8 2.7 -1.1 0.3 -0.3 2 -1.3 3.9 -2.2 3.4 -1.5 3.5 -1.5 6.4 1.7 3.4 3.9 3.4 7.9 0 7.9 -1.1 0 -2.5 0.3 -2.9 0.8 -0.4 0.4 -1.7 0.7 -2.9 0.7 -1.3 0 -3 1 -3.9 2.3 -1 1.2 -1.5 1.5 -1.3 0.6 0.4 -1.1 -0.4 -1.6 -3.2 -1.8 -6.9 -0.5 -9.5 -0.4 -9.9 0.7 -0.2 0.6 -1.7 0.8 -3.6 0.5 -1.8 -0.3 -4.2 -0.1 -5.2 0.5 -1.6 0.8 -2.7 0.3 -6.2 -2.8z"/>
  <path d="M35.5 108.6 c-1 -7.6 0.8 -11 5.8 -11.4 4.5 -0.4 4.6 0.2 0.8 3.4 -3.1 2.6 -4.8 7.1 -3.3 8.6 0.6 0.6 2.1 0.4 4 -0.6 4.2 -2.2 6.2 -2 6.2 0.4 0 1.2 -0.7 2 -1.6 2 -0.8 0 -2.2 0.7 -3 1.5 -0.9 0.8 -3.1 1.5 -4.9 1.5 -3.3 0 -3.4 -0.1 -4 -5.4z"/>
  <path d="M80.2 109.8 c0.2 -0.6 1 -1.4 1.6 -1.6 0.7 -0.2 1 0.2 0.6 1.2 -0.7 1.8 -2.8 2.2 -2.2 0.4z"/>
  <path d="M57.4 101.6 c-0.8 -2 -0.5 -2.3 2.1 -2.8 1.3 -0.2 2.1 0.4 2.3 1.7 0.2 1.1 0.1 1.7 -0.3 1.3 -0.5 -0.4 -1.4 -0.3 -2.1 0.3 -1.1 0.9 -1.5 0.7 -2 -0.5z"/>
  <path d="M91.6 98.5 c-1.6 -2.4 -2.2 -2.5 -8.1 -2.3 -4.3 0.2 -6.5 0.7 -6.5 1.5 0 1.4 -5 0.2 -8.7 -2.3 -1.8 -1.1 -2.2 -1.9 -1.4 -2.7 1.4 -1.4 1.4 -4.7 0.1 -4.7 -0.5 0 -1 0.5 -1 1 0 0.6 -0.5 1 -1.1 1 -0.9 0 -0.9 -0.4 0 -1.3 0.8 -1.1 0.6 -1.8 -0.8 -3.1 -1.8 -1.6 -2 -1.6 -4.5 1.1 -2.4 2.6 -2.5 2.9 -0.9 4 0.9 0.7 1.3 1.6 1 2 -1 0.9 -12.1 0.3 -12.5 -0.7 -0.2 -0.5 -1.8 -0.6 -3.7 -0.3 -1.9 0.3 -5 0.2 -6.9 -0.1 -3.3 -0.6 -3.6 -1 -3.6 -4.1 l0 -3.5 6.5 0 c5.1 0 6.5 -0.3 6.5 -1.5 0 -1 -1 -1.5 -3.4 -1.5 -1.9 0 -4.1 -0.7 -5 -1.5 -0.8 -0.8 -3 -1.5 -5 -1.5 -2.8 0 -3.5 0.4 -3.8 2.3 -0.2 1.5 -1.1 2.3 -2.9 2.5 -2.2 0.3 -2.8 0.9 -3.3 4.3 -0.4 2.3 -1.2 3.9 -2 3.9 -1.7 0 -2.8 -3.8 -1.7 -5.9 0.5 -0.9 0.6 -2.2 0.4 -2.8 -0.3 -0.7 0.2 -1.3 1 -1.3 1.2 0 1.4 -0.9 1 -4 -0.4 -2.6 -0.2 -4 0.6 -4.1 0.6 -0.1 1.6 -0.2 2.1 -0.3 1.3 -0.1 4.1 -5.6 3.5 -6.6 -0.3 -0.5 0 -1.2 0.6 -1.6 0.8 -0.5 0.9 -0.3 0.4 0.6 -0.6 1 -0.4 1.1 1.1 0.5 1 -0.5 4 -1 6.7 -1.3 3.8 -0.3 4.7 -0.1 4.7 1.2 0 0.9 -0.6 1.6 -1.2 1.7 -0.7 0 -2.5 0.2 -4.1 0.3 -1.5 0.1 -3.7 1.2 -5 2.4 -1.9 1.9 -2 2.4 -0.7 3.2 0.8 0.5 2.9 1 4.5 1 1.7 0 4.8 0.7 7 1.4 5.5 1.9 7.6 0.7 7.2 -4.2 -0.2 -3.4 -0.5 -3.7 -3.5 -4 -2.4 -0.2 -3.2 -0.8 -3.2 -2.3 0 -1 0.7 -1.9 1.5 -1.9 0.8 0 1.5 0.4 1.5 0.9 0 0.5 0.8 0.8 1.7 0.7 2.2 -0.1 5.2 5.7 5.3 10.4 l0.2 3.5 1 -2.8 c0.5 -1.5 0.7 -3.5 0.2 -4.5 -1.3 -3 -1 -4.7 1.1 -6 1.8 -1.1 1.7 -1.2 -1.2 -0.7 -3 0.6 -3.2 0.5 -3 -2.2 0.1 -2 -0.4 -3 -2 -3.8 -1.3 -0.5 -2.3 -1.7 -2.3 -2.5 0 -0.9 -0.3 -1.1 -0.8 -0.5 -0.7 1.1 -11 4 -11.7 3.4 -0.2 -0.2 -0.5 -1.8 -0.6 -3.5 -0.4 -3.5 5.3 -13.2 5.9 -10.1 0.2 0.9 -0.2 2.6 -0.8 3.7 -1.8 3.3 -0.6 3.4 3 0.3 l3.3 -2.7 -1.7 3.2 c-0.9 1.8 -1.3 3.2 -0.8 3.2 0.5 0 1.9 -2.1 3.1 -4.8 2.9 -6.1 4.9 -8.4 9 -10.4 3.8 -1.8 6.3 -1.4 5.4 0.8 -0.5 1.2 0.2 1.4 3.3 1 2.2 -0.2 5.4 -1 7.3 -1.7 3.1 -1.1 3.6 -1 5.3 1.1 1.4 1.8 2.2 2 3 1.2 0.7 -0.7 1.8 -1.2 2.5 -1.2 1.6 0 1.7 4.2 0.1 5.8 -1.7 1.7 -7.5 1.5 -8.1 -0.2 -0.7 -1.7 -9.1 -1 -12.4 1 -1.2 0.8 -3.6 1.4 -5.2 1.4 -2.3 0 -3.1 -0.5 -3.4 -2.3 l-0.4 -2.2 -0.2 2.3 c0 1.2 -0.5 2.2 -1 2.2 -0.5 0 -1.1 1 -1.4 2.3 -0.2 1.2 -0.8 3 -1.2 3.9 -0.5 1.3 0 1.7 2.7 2 2.8 0.2 3.4 0.7 3.6 3.1 0.3 2.3 0.8 2.7 3.3 2.7 3 0 5.9 -1.9 5.9 -3.9 0 -0.6 1.6 -1.1 3.5 -1.1 4.1 0 4.5 1.1 1.1 3 -1.4 0.7 -2.7 2.3 -3.1 3.7 -0.4 1.8 -1 2.3 -2.5 1.8 -1.1 -0.3 -2.8 -0.2 -3.7 0.4 -1.5 0.9 -1.6 1 -0.2 1.1 2.2 0 4.3 4.8 2.9 6.5 -1.1 1.4 1.2 5.8 5.7 11.1 2 2.3 7.3 4.1 7.3 2.4 0 -0.5 -0.6 -1 -1.4 -1 -0.8 0 -1.8 -0.4 -2.1 -1 -0.4 -0.6 0.5 -1 1.9 -1 2.3 0 2.6 0.4 2.6 3.5 0 2.4 -0.5 3.5 -1.5 3.5 -0.8 0 -1.5 0.7 -1.5 1.5 0 1.2 0.8 1.1 4.6 -0.5 6.6 -2.9 12.5 -2.6 16.2 0.6 2.6 2.3 2.9 3 2.1 5.7 -1.1 4.1 -1.4 4.1 -3.3 1.2z m-37.5 -10 c-0.1 -1.5 -2.4 -1.2 -2.9 0.3 -0.3 0.9 0.2 1.3 1.2 1 1 -0.1 1.7 -0.7 1.7 -1.3z m-5.2 -4.1 l2.6 -2.7 -3.1 2.3 c-1.8 1.2 -4.7 2.6 -6.5 3.1 -3.4 0.9 -3.4 0.9 0.5 0.4 2.6 -0.3 4.9 -1.4 6.5 -3.1z m8.3 -1.7 c0.7 -0.8 2 -1.6 2.8 -2 1.2 -0.4 1.1 -0.6 -0.2 -0.6 -1.4 -0.1 -1.8 -1 -1.8 -3.8 0 -2.1 -0.4 -4.4 -0.9 -5.2 -0.5 -0.8 -0.7 0.4 -0.4 3.3 0.5 3.8 0.3 4.6 -1.1 4.6 -1 0 -1.6 0.9 -1.6 2.5 0 2.8 1.2 3.2 3.2 1.2z m-30.6 -4.8 c-0.9 -2 -1.5 -2.7 -1.6 -1.6 0 2 1.9 6.1 2.6 5.4 0.2 -0.2 -0.2 -1.9 -1 -3.8z"/>
  <path d="M66.7 81.2 c-0.9 -1 -1.7 -2.7 -1.7 -3.8 0 -1.2 0.3 -1.5 0.8 -0.8 0.4 0.6 2.2 1.5 4 1.9 1.8 0.3 3.2 1.3 3.2 2.1 0 0.8 -0.4 1.4 -0.9 1.4 -0.5 0 -1.6 0.2 -2.3 0.5 -0.8 0.3 -2.2 -0.3 -3.1 -1.3z"/>
  <path d="M74 80.6 c0 -0.8 1.4 -1.7 3.3 -2.1 1.7 -0.4 4.2 -1.3 5.5 -2.1 2.1 -1.4 2.2 -1.3 2.2 1.5 0 3.1 -1.7 4.1 -7.7 4.1 -2.2 0 -3.3 -0.5 -3.3 -1.4z"/>
  <path d="M22 68 c0 -2 1.4 -4.9 4 -8.5 5.1 -6.9 6 -7.4 6 -3.3 -0.1 2.6 -0.8 3.7 -3.3 5.4 -2.5 1.5 -3.1 2.6 -2.9 4.6 0.2 1.9 -0.4 3 -1.8 3.8 -1.8 1 -2 0.8 -2 -2z"/>
  <path d="M73 64.5 c0 -1.4 0.5 -2.5 1 -2.5 0.6 0 1 0.5 1 1 0 0.6 1.5 1 3.3 1.1 l3.2 0.1 -3 1.3 c-4.4 2 -5.5 1.8 -5.5 -1z"/>
  <path d="M66 64.2 c0 -0.9 0.9 -2.3 2 -3 1.2 -0.7 2 -0.8 2 -0.2 0 0.5 -0.9 1.9 -2 3 -1.8 1.8 -2 1.8 -2 0.2z"/>
 </g>
 <g fill="#d58386">
  <path d="M45.8 111.3 c-4.2 -0.7 -3.4 -2.9 1.5 -4.1 10.5 -2.7 17.1 -2.5 16 0.5 -0.3 0.8 0 1.9 0.8 2.4 1 0.6 0.7 0.9 -1.2 0.9 -1.4 0 -5.3 0.2 -8.5 0.4 -3.2 0.2 -7.1 0.2 -8.6 -0.1z"/>
  <path d="M57.5 101.9 c-0.8 -1.2 1.1 -2.9 3.3 -2.9 0.6 0 1.2 0.8 1.2 1.7 0 0.9 -0.3 1.3 -0.7 1 -0.3 -0.4 -1.2 -0.2 -1.9 0.4 -0.8 0.7 -1.4 0.6 -1.9 -0.2z"/>
 </g>
 <g fill="#c7988f">
  <path d="M33.9 124 c-2.3 -2.2 -3.9 -4.3 -3.7 -4.6 0.3 -0.2 -1.2 -2.2 -3.3 -4.3 -4.3 -4.3 -5.2 -8.1 -1.9 -8.1 1.1 0 2 0.6 2 1.3 0 0.7 0.9 1.8 2 2.5 1.1 0.7 2 2.1 2 3.2 0 1.1 0.7 2 1.5 2 0.8 0 1.5 0.5 1.5 1 0 0.6 1.1 2.2 2.6 3.6 2.6 2.7 2.5 2.7 15.2 0.8 3.7 -0.5 4.2 -0.4 4.2 1.3 0 1.5 -1.2 2.2 -4.7 3.1 -2.7 0.7 -5.9 1.2 -7.3 1.1 -1.4 -0.1 -3.3 0.2 -4.2 0.6 -1.2 0.5 -2.9 -0.5 -5.9 -3.5z"/>
  <path d="M60 124.5 c0 -2.9 1.3 -4.5 3.6 -4.5 1.9 0 2.4 -0.5 2.4 -2.5 0 -1.8 0.4 -2.3 1.5 -1.9 0.8 0.4 1.5 0.1 1.5 -0.4 0 -0.6 1.1 0 2.5 1.4 1.4 1.4 2.5 3.2 2.5 4 0 1.6 -4.2 3.6 -7.7 3.6 -1.3 0 -2.3 0.3 -2.3 0.7 0 0.4 -0.9 0.7 -2 0.8 -1.1 0.1 -2 -0.4 -2 -1.2z"/>
  <path d="M50.7 118.3 c-1.1 -1 -0.8 -7.3 0.3 -7.3 0.6 0 1 -0.7 1 -1.6 0 -1.2 0.6 -1.5 2.3 -1 1.2 0.3 2.8 0.6 3.5 0.6 2.2 0 1.3 1.8 -1.3 2.4 -3 0.8 -3.4 3.6 -0.4 3.6 1.4 0 1.9 0.5 1.6 1.4 -0.4 1 0.2 1.6 1.6 1.9 1.2 0.2 -0.1 0.5 -2.9 0.6 -2.8 0 -5.4 -0.2 -5.7 -0.6z"/>
  <path d="M35 107 c0 -5.7 0.1 -6 2.5 -6 2.3 0 2.4 0.2 1.4 2.7 -0.5 1.5 -0.7 3.8 -0.4 5.1 0.6 2.3 0.7 2.3 3 0.8 3.5 -2.3 5.7 -2.1 5.3 0.7 -0.3 1.9 -1 2.2 -6 2.5 l-5.8 0.3 0 -6.1z"/>
  <path d="M61 110 c0 -1.3 1.1 -1.3 3 0 1.2 0.8 1.1 1 -0.7 1 -1.3 0 -2.3 -0.4 -2.3 -1z"/>
  <path d="M20.8 96.8 c-2.2 -6.8 -2.7 -10.7 -1.7 -11.4 0.5 -0.2 0.6 -1.8 0.2 -3.4 -0.5 -2.6 -0.2 -3 1.5 -3 1.5 0 2.2 -0.8 2.4 -2.7 l0.4 -2.8 0.9 3 c1 3.6 5 9.1 7.2 9.9 0.8 0.4 0.2 -0.9 -1.5 -2.9 -8.6 -9.8 -4.5 -19.3 8.8 -20.3 4 -0.3 6 -0.1 6 0.7 0 0.6 0.9 1.1 1.9 1.1 1 0 2.2 0.7 2.5 1.6 0.4 1 0.2 1.3 -0.6 0.7 -1.9 -1.1 -15.8 -0.3 -17.9 1 -2.2 1.4 -3.3 3.7 -2.1 4.9 0.4 0.4 2.9 1 5.5 1.3 2.6 0.2 5.5 1.2 6.4 2 2.8 2.9 10.2 -0.7 8.9 -4.2 -0.3 -0.7 -0.1 -1.3 0.3 -1.3 1.1 0 2.1 2.5 2.2 5.3 l0 2.2 1.1 -2.2 c0.7 -1.5 0.8 -3.4 0 -6.3 -0.8 -3.2 -0.7 -4 0.3 -4 0.8 0 1.7 -0.5 2.1 -1.2 0.5 -0.8 -0.2 -0.9 -2.3 -0.5 -2.8 0.6 -2.9 0.4 -2.9 -2.9 0.1 -2.8 0.5 -3.4 2.4 -3.4 1.2 0 2.2 0.5 2.2 1 0 0.6 0.9 1 2 1 1 0 2.4 0.9 2.9 1.9 0.9 1.5 0.7 2 -1.1 2.5 l-2.3 0.5 2.4 2.2 c1.6 1.5 2.1 2.9 1.8 4.8 -0.5 2.7 1.8 7.5 5.6 11.8 1.1 1.3 1.8 2.5 1.5 2.8 -0.7 0.8 -3.8 -0.5 -3.8 -1.6 0 -1.8 -2.6 -0.8 -5.4 2.2 -2.8 3 -2.8 3 -0.7 3.6 3.1 0.8 2 2.9 -1.3 2.5 -1.5 -0.2 -3.9 0.5 -5.4 1.4 -3.3 2.2 -9 5.4 -9.7 5.4 -0.3 0 -0.5 -1.1 -0.5 -2.5 0 -1.5 0.6 -2.5 1.5 -2.5 0.8 0 2.5 -1.1 3.9 -2.5 1.4 -1.4 3.6 -2.5 5 -2.5 2.3 0 4.4 -1.6 3.4 -2.5 -0.2 -0.3 -2.1 -0.2 -4.1 0.2 -2.3 0.3 -3.9 1.2 -4.2 2.4 -1.2 3.8 -18.5 1.7 -18.5 -2.3 0 -1.1 -0.7 -1.8 -2 -1.8 -1.5 0 -2 -0.7 -2.1 -2.7 -0.1 -2.3 -0.3 -2.1 -1 1.2 -0.7 2.9 -0.6 4.9 0.6 7.7 1.9 4.7 2 9.8 0.2 9.8 -0.7 0 -2 -2.4 -2.9 -5.2z m22.9 -8.9 c3.2 -1.2 7.3 -4.8 7.3 -6.3 0 -0.6 -0.8 -0.1 -1.8 1 -2.4 3 -5.4 4.4 -9.9 4.5 -3 0 -3.4 0.2 -1.8 0.9 2.7 1.2 3 1.2 6.2 -0.1z m-1.2 -5.2 c1.1 -0.2 0.1 -0.5 -2.2 -0.6 -3.6 -0.1 -4.3 -0.4 -4.3 -2.1 0 -1.5 -0.7 -2 -2.9 -2 -2.5 0 -2.8 0.3 -2.3 2.5 0.3 1.9 1.1 2.5 3.1 2.5 1.4 0 3.3 0.4 4.1 1 0.8 0.5 1.7 0.5 2 0.1 0.3 -0.5 1.4 -1.1 2.5 -1.4z m17.5 -1.2 c0 -3 -2.5 -3.4 -4 -0.6 -1.4 2.8 -1.3 3.1 1.5 3.1 2 0 2.5 -0.5 2.5 -2.5z"/>
  <path d="M90.3 95.1 c-3.3 -3 -7 -3.4 -9.8 -1.1 -0.8 0.7 -1.5 0.9 -1.5 0.6 0 -0.4 -1.3 0.1 -3 1 -2.8 1.7 -3.1 1.7 -6.5 0.1 -3.5 -1.6 -3.5 -1.8 -2.1 -3.9 0.9 -1.2 1.6 -3.1 1.6 -4 0 -1.5 0.5 -1.7 2.5 -1.2 1.5 0.4 2.5 0.2 2.5 -0.5 0 -0.6 -0.6 -1.1 -1.4 -1.1 -1.8 0 -7.6 -5.4 -7.6 -7.1 0 -1 0.3 -1 1.2 -0.1 1.7 1.7 11.8 1.5 14.8 -0.3 5.4 -3.1 7 -3.8 7.6 -3.2 0.8 0.7 -1.3 4.6 -4.5 8.1 l-2.6 3 2.8 -1.7 c2.7 -1.7 2.7 -1.7 2.7 0.8 0 1.4 0.6 2.5 1.3 2.5 2.4 0 6.7 2.5 7.2 4.2 0.7 1.9 -0.4 6.8 -1.4 6.8 -0.4 0 -2.1 -1.3 -3.8 -2.9z m-12.4 -4.7 c0.2 -0.2 -1 -0.4 -2.7 -0.4 -1.8 0 -3.2 0.5 -3.2 1 0 0.9 4.7 0.4 5.9 -0.6z"/>
  <path d="M21.3 70.3 c-1.5 -0.6 -1.7 -3.9 -0.3 -4.8 0.6 -0.3 3.4 -3.6 6.4 -7.3 3 -3.7 6.8 -8.3 8.5 -10.2 l3.1 -3.5 -1.5 4.3 c-0.8 2.3 -1 4.2 -0.5 4.2 0.6 0 1 -0.3 1 -0.8 0 -0.4 0.9 -1.3 2 -2 1.9 -1.2 2 -1.1 1.4 1.4 -1.1 4.4 1.4 1.9 4.3 -4.2 2.5 -5.4 6.7 -9.4 9.7 -9.4 1.8 0 2.2 2.5 0.6 3.5 -0.5 0.3 -1 1.1 -1 1.6 0 0.6 1 0.3 2.2 -0.5 1.2 -0.9 3.9 -1.6 6 -1.6 2 0 3.9 -0.4 4.2 -0.9 0.3 -0.5 1.7 -1.1 3.1 -1.3 1.9 -0.4 3.1 0.1 4.5 1.9 1.8 2.3 1.9 2.3 3.2 0.4 0.8 -1.1 2.4 -1.9 3.6 -1.8 1.7 0.1 2.2 0.8 2.2 3 0 4.4 -1.7 6.7 -4.9 6.7 -5.2 0 -8.9 -1.2 -9.4 -3 -0.4 -1.5 -1.1 -1.7 -4.5 -1 -2.3 0.4 -5.2 1.5 -6.6 2.4 -1.4 0.9 -4.1 1.6 -6.1 1.6 -2.4 0 -3.5 0.4 -3.5 1.5 0 0.8 -0.9 1.5 -1.9 1.5 -1.1 0 -2.3 0.5 -2.6 1 -0.3 0.6 0.3 1 1.4 1 1.5 0 2.1 0.6 2.1 2.1 0 1.9 -0.5 2 -6.5 1.7 -3.6 -0.1 -6.5 0 -6.5 0.3 0 0.4 -1.1 0.9 -2.3 1.3 -3.4 0.8 -7.8 4.6 -7.6 6.5 0.3 3.8 -1 5.4 -3.8 4.4z"/>
  <path d="M74.1 63.8 c0.1 -1.8 0.3 -2.5 0.6 -1.5 0.2 0.9 1.4 1.8 2.6 1.8 1.7 0.1 1.8 0.2 0.5 0.6 -1 0.2 -1.8 0.9 -1.8 1.4 0 0.5 -0.4 0.9 -1 0.9 -0.5 0 -0.9 -1.5 -0.9 -3.2z"/>
  <path d="M66.1 64.5 c-0.1 -1.9 3.5 -5.2 4.5 -4.2 0.8 0.8 -0.8 3.7 -2.1 3.7 -0.7 0 -1.6 0.6 -1.8 1.3 -0.3 0.6 -0.6 0.3 -0.6 -0.8z"/>
  <path d="M63.4 62.7 c0.3 -1 0.6 -3.2 0.6 -4.8 0 -2.7 0.3 -2.9 3.5 -2.9 4.1 0 4.9 2.4 1 3.4 -1.3 0.3 -3.2 1.9 -4 3.4 -0.9 1.5 -1.4 1.9 -1.1 0.9z"/>
 </g>
 <g fill="#d49f95">
  <path d="M37.6 126.2 c-1.8 -0.4 -6.5 -5 -6.6 -6.5 0 -0.4 -1.6 -2.3 -3.5 -4.3 -1.9 -1.9 -3.5 -3.7 -3.5 -3.9 0 -0.3 1.3 -0.5 2.9 -0.5 2.8 0 8.1 3.6 8.1 5.6 0.1 0.5 0.9 1.9 1.9 3.2 2 2.3 4.5 2.7 12.5 1.6 4.5 -0.7 6.5 -2.4 2.6 -2.4 -1.6 0 -2 -0.7 -2 -3.6 0 -3.3 -0.2 -3.6 -2.2 -3 -4.8 1.5 -10.8 1.9 -10.8 0.7 0 -0.6 -0.7 -1.1 -1.5 -1.1 -1.6 0 -2 -3.4 -0.9 -8.9 0.5 -2.1 1.2 -3.1 2.5 -3.1 1.2 0 1.9 -0.7 1.9 -2 0 -1.1 0.4 -2 1 -2 1.2 0 5 -3.2 5 -4.2 0 -0.5 -0.7 -0.8 -1.5 -0.8 -2.5 0 -1.7 -1.9 1.6 -3.5 3.6 -1.9 6.9 -5.1 6.9 -6.7 0 -0.7 -1.5 0.2 -3.2 1.9 -3.5 3.2 -6.8 4.8 -6.8 3.3 0 -0.6 -1.1 -1 -2.5 -1 -1.4 0 -2.5 0.5 -2.5 1 0 1.8 -2.8 1.1 -5.9 -1.6 -1.7 -1.4 -3.6 -4.3 -4.2 -6.5 -0.7 -2.1 -1.6 -3.9 -2.1 -3.9 -1.3 0 0.2 5.1 2.4 8.3 1.9 2.7 1.9 2.7 -0.1 2.7 -1.2 0 -2.1 -0.6 -2.2 -1.2 -0.1 -0.7 -0.5 0.2 -0.9 2.1 -0.5 2.3 -0.3 4.7 0.6 7.4 1.9 5.4 1.9 15.7 -0.1 15.7 -0.9 0 -1.6 -1.4 -2 -3.7 -0.3 -2.1 -1 -5.6 -1.6 -7.8 -1.5 -5.1 -2.1 -21.5 -0.8 -21.5 1.4 0 1.1 -2.8 -0.3 -3.3 -0.7 -0.3 0.2 -0.4 1.9 -0.2 2.7 0.3 3.5 -0.1 4.5 -2.2 1.8 -3.5 5.5 -6 10.6 -7.2 3.9 -0.8 4.2 -0.7 4.2 1.3 0 1.8 -0.6 2.1 -3.8 2.1 -2.1 0 -5.1 0.8 -6.5 1.8 -3.1 2 -3.6 5.6 -0.9 5.9 0.9 0.1 2.4 0.2 3.2 0.4 0.8 0.1 2.8 0.2 4.4 0.3 2.3 0.1 2.7 0.5 2.3 2.1 -0.4 1.7 -0.1 1.9 2.5 1.6 1.6 -0.2 4.3 -1.3 5.9 -2.5 3.6 -2.7 3.9 -2.7 4 0.7 l0.1 2.7 1.3 -3 1.4 -3 0.1 4.7 c0 3.6 -0.4 4.8 -1.7 5.1 -1.7 0.4 -1.7 0.5 0 0.6 2 0.1 5.7 -3.3 5.7 -5.4 0 -0.8 -0.6 -1.5 -1.4 -1.5 -0.8 0 -1.7 -1.4 -2.1 -3 -0.4 -1.7 -1.1 -3 -1.6 -3 -1.3 0 -1.1 -4.8 0.3 -5.2 1.8 -0.6 5.8 1.5 5.9 3.2 0.1 0.8 0.1 2.7 0 4.1 -0.1 1.4 0.5 3.2 1.4 3.9 0.8 0.7 1.5 1.9 1.5 2.6 0 0.8 0.9 2.2 2 3.1 1.1 1 2 2.4 2 3.2 0 1.1 -0.3 1.1 -1.8 -0.2 -2.4 -2.2 -3.2 -2.1 -6.4 0.7 -1.9 1.7 -2.5 3 -2.1 4.5 0.4 1.7 0.1 2.1 -1.7 2.1 -2.7 0 -15.5 8.2 -16.4 10.5 -0.9 2.3 -0.8 6.3 0.2 6.9 0.5 0.3 2.2 -0.2 3.8 -1 2.2 -1.2 4.8 -1.4 11.4 -0.9 9.3 0.7 13.5 2.5 5.7 2.5 -3.6 0 -4.9 0.4 -5.7 2 -0.6 1.1 -0.7 2.1 -0.3 2.1 0.4 0.1 1.5 0.2 2.3 0.3 0.8 0 1.4 0.7 1.2 1.4 -0.1 0.7 0.9 1.2 2.8 1.2 1.6 0 3 -0.4 3 -0.9 0 -0.5 0.9 -1.1 2.1 -1.4 1.5 -0.4 2.9 0.2 4.5 2 1.3 1.4 2.4 2.9 2.4 3.3 0 1.2 -4.9 3 -6.5 2.4 -0.8 -0.4 -1.5 -0.2 -1.5 0.4 0 1.6 -2.2 2 -7.2 1.2 -2.8 -0.4 -5.4 -0.2 -6.5 0.4 -1.8 1 -9.1 1.5 -12.7 0.8z m17.2 -37.9 c0.5 -1.8 -2.3 -1.6 -3.9 0.3 -1.1 1.4 -1 1.5 1.1 1.2 1.3 -0.1 2.5 -0.9 2.8 -1.5z"/>
  <path d="M68.4 94.6 c-1.5 -1.2 -1.7 -1.7 -0.6 -2.7 0.6 -0.7 1.2 -2.4 1.2 -3.7 0 -1.8 0.4 -2.3 1.6 -1.8 0.9 0.3 2 0.6 2.5 0.6 0.5 0 0.9 0.7 0.9 1.5 0 1.4 0.3 1.3 2.5 -0.1 3.3 -2.1 14.9 -3.1 17 -1.4 1.7 1.4 2.1 6.5 0.6 7.5 -0.6 0.3 -1.3 0 -1.8 -0.7 -0.4 -0.7 -1.9 -1.9 -3.2 -2.6 -1.8 -1.1 -2.5 -1.1 -3.1 -0.2 -0.4 0.7 -1.2 1 -1.8 0.6 -0.6 -0.3 -1.6 -0.1 -2.4 0.6 -1.5 1.5 -7.7 3.8 -9.9 3.8 -0.8 0 -2.4 -0.6 -3.5 -1.4z"/>
  <path d="M30 88.6 c0 -2.3 0.2 -2.4 3.5 -1.3 1.9 0.6 3.5 1.6 3.5 2.4 0 0.8 -1.3 1.3 -3.5 1.3 -3 0 -3.5 -0.3 -3.5 -2.4z"/>
  <path d="M69.3 82.9 c-4.3 -2.8 -4.1 -3.5 0.7 -3.1 3.4 0.4 4 0.7 4 2.8 0 2.9 -0.6 3 -4.7 0.3z"/>
  <path d="M21 69.5 c-1.1 -1.3 -0.9 -2 1 -4 2.4 -2.6 4.7 -3.4 3.3 -1.2 -0.4 0.6 -0.6 1.9 -0.5 2.8 0.4 2.6 -2.3 4.2 -3.8 2.4z"/>
  <path d="M43 65.1 c0 -1.2 0.5 -2.1 1 -2.1 0.6 0 1 0.6 1 1.4 0 0.8 -0.4 1.8 -1 2.1 -0.5 0.3 -1 -0.3 -1 -1.4z"/>
  <path d="M50.9 63.6 c0.9 -1.1 0.9 -2 0.2 -3.4 -1.3 -2.5 -9.4 -3.8 -13.4 -2.3 -1.6 0.6 -2.7 0.7 -2.7 0.1 0 -1.3 -3 0 -5.4 2.2 -3.7 3.4 -5 2 -1.9 -2 4.6 -6.3 10.6 -12.8 9.9 -10.9 -0.3 1.1 -0.9 3.1 -1.3 4.5 -0.6 2.6 -0.5 2.6 1.3 1.1 3.5 -2.9 4.3 -3.1 3.6 -0.7 -1 4 2.3 0.3 5.1 -5.6 1.8 -3.8 3.4 -5.6 5.6 -6.6 3.6 -1.5 5 -0.8 3.1 1.5 -1.1 1.3 -1.5 1.3 -2.3 0.3 -0.6 -0.9 -0.7 -0.8 -0.3 0.5 0.3 1 0.6 2.2 0.6 2.7 0 0.5 1.7 0 3.8 -1 5.8 -2.8 13.2 -4.3 14.8 -2.9 0.8 0.6 1.4 1.8 1.4 2.5 0 2 2.7 1.7 5 -0.6 2.5 -2.5 2.7 -1.4 0.3 1.3 -1.7 1.9 -1.7 2 0 1.4 1.3 -0.5 1.7 -0.1 1.7 1.7 0 2.6 -1.7 3.6 -5.8 3.6 -4.1 0 -7.2 -1.1 -7.2 -2.5 0 -1.9 -4.9 -2.8 -6.8 -1.3 -1 0.7 -3.5 3.2 -5.8 5.5 -3.7 4 -3.9 4.3 -1.7 4.3 1.8 0 2.3 0.6 2.4 2.8 0 1.5 0.3 2.1 0.6 1.5 0.2 -0.7 1.3 -1.3 2.4 -1.3 1 0 2.4 -0.9 3.1 -2 0.7 -1.1 2.3 -2 3.5 -2 1.3 0 2.3 -0.4 2.3 -1 0 -0.5 1.6 -1 3.5 -1 2.8 0 3.5 0.4 3.5 2 0 1.6 -0.7 2 -3.5 2 -2.9 0 -3.9 0.6 -5.3 2.9 -1.2 2.1 -2.6 3 -4.9 3.3 -1.8 0.2 -3.7 0 -4.2 -0.5 -0.5 -0.5 -1.7 -0.4 -2.9 0.2 -2.8 1.5 -3.7 1.4 -2.3 -0.3z"/>
  <path d="M66 63.9 c0 -2 4.1 -4.3 6.6 -3.6 1.5 0.4 1.5 0.5 -0.4 0.6 -1.3 0 -3.2 1.1 -4.3 2.4 -1.4 1.7 -1.8 1.8 -1.9 0.6z"/>
 </g>
 <g fill="#c5a6a2">
  <path d="M25.4 113.2 c-0.6 -0.4 -1.3 -1.5 -1.7 -2.4 -0.5 -1.4 -0.1 -1.8 1.8 -1.8 2 0 2.5 0.5 2.5 2.5 0 2.6 -0.7 3 -2.6 1.7z"/>
  <path d="M92 92.5 c-0.5 -1.4 -1.7 -2.8 -2.5 -3.1 -2.2 -0.9 -1.8 -3.4 0.5 -3.4 1.1 0 2 -0.7 2 -1.5 0 -1 -1 -1.5 -2.9 -1.5 -2.3 0 -3 0.5 -3.3 2.2 -0.2 1.4 -1.3 2.5 -2.8 2.9 -3.9 1.1 -12 1 -12 -0.1 0 -0.5 2 -1 4.4 -1 2.8 0 5.5 -0.8 7.7 -2.3 3.8 -2.5 7.8 -9 8.1 -13.1 0.1 -1.4 0.6 -2.6 1 -2.6 0.4 0 0.8 -0.7 0.8 -1.5 0 -0.8 -0.5 -1.5 -1.1 -1.5 -0.6 0 -2.1 -1.3 -3.5 -2.9 -1.4 -1.6 -3.9 -3.4 -5.7 -4 -3.8 -1.3 -13.9 -1.7 -15.6 -0.7 -0.6 0.4 -1.1 0.2 -1.1 -0.3 0 -0.6 0.7 -1.1 1.5 -1.1 0.8 0 1.5 -0.7 1.5 -1.6 0 -1.4 1 -1.6 7.3 -1.2 3.9 0.3 8 0.9 9 1.3 1.6 0.7 1.7 0.4 1.1 -2.1 -0.3 -1.6 -1.2 -3.5 -1.9 -4.3 -1.1 -1.1 -1.6 -0.9 -3 1.3 -1.3 2 -2.6 2.6 -5.1 2.6 -2.9 0 -3.4 -0.3 -3.4 -2.4 0 -1.7 0.9 -2.7 3 -3.6 1.7 -0.7 3.5 -2.1 4 -3.1 1.6 -2.9 1.1 -3.3 -1 -0.8 l-2 2.4 1.6 -3.2 c3.4 -7.1 9.8 -0.8 12.4 12.2 0.6 3.3 1.6 7.6 2.2 9.5 1.6 4.9 1.8 6.1 2.4 18.6 0.6 9.7 0.4 11.2 -1 11.7 -1.2 0.5 -1.9 -0.1 -2.6 -1.8z"/>
  <path d="M33 90.5 c0 -0.8 -0.9 -1.5 -2 -1.5 -1.3 0 -2 -0.7 -2 -2 0 -1.9 0.2 -1.9 2.3 -0.6 1.2 0.8 3.7 1.7 5.5 2.1 4.4 0.9 4.3 3.5 -0.3 3.5 -2.4 0 -3.5 -0.5 -3.5 -1.5z"/>
  <path d="M31.3 84.5 l-2.8 -2.4 3.8 -0.1 c2.6 0 3.7 0.4 3.7 1.5 0 0.8 0.9 1.5 2 1.5 1.1 0 2 0.5 2 1 0 2 -5.9 1 -8.7 -1.5z"/>
  <path d="M71.8 84.3 c-1.6 -1 -2.8 -2 -2.8 -2.3 0 -0.3 2.8 -1.2 6.2 -2 3.3 -0.7 6.9 -2.1 7.9 -3.1 0.9 -0.9 2.7 -2 3.9 -2.4 1.9 -0.6 2.1 -0.4 1.5 1.7 -0.4 1.2 -2.1 3.7 -3.9 5.5 -3.9 4 -9 5 -12.8 2.6z"/>
  <path d="M20.3 76.3 c-0.7 -0.2 -1.3 -1.3 -1.3 -2.3 0 -1.5 0.6 -1.8 3.1 -1.5 2.4 0.3 3.2 -0.1 3.8 -1.8 1.3 -3.4 4.7 -5.9 9.7 -7.2 5.8 -1.4 9.6 -0.9 9.2 1.4 -0.4 1.8 -3.2 2.6 -5.6 1.5 -2.2 -0.9 -5 -0.5 -8.6 1.3 -2.6 1.3 -2.8 1.9 -2.3 5.4 0.5 3.8 -0.8 5.4 -1.9 2.4 -0.4 -0.8 -1 -1.5 -1.5 -1.5 -0.5 0 -0.9 0.7 -0.9 1.5 0 1.5 -1.4 1.8 -3.7 0.8z"/>
  <path d="M22.4 70.3 c0.4 -0.8 0.1 -1.3 -0.8 -1.3 -0.9 0 -1.6 -0.5 -1.6 -1 0 -1.6 3 -2.4 4.3 -1.1 0.8 0.8 0.6 1.6 -0.7 2.9 -1.1 0.9 -1.6 1.1 -1.2 0.5z"/>
  <path d="M70.1 66.7 c-0.6 -0.8 -0.7 -1.7 -0.3 -2.2 0.4 -0.4 -0.3 -0.5 -1.5 -0.2 -2.7 0.6 -3 -1 -0.5 -2.9 2.7 -2.1 7.2 -1.8 7.2 0.5 0 1.1 0.4 2.1 1 2.3 1.4 0.5 -0.2 2.4 -2.6 3.2 -1.3 0.4 -2.6 0.1 -3.3 -0.7z"/>
  <path d="M25 62.5 c0 -0.8 0.7 -1.5 1.6 -1.5 1.4 0 1.4 0.3 0.4 1.5 -0.7 0.8 -1.4 1.5 -1.6 1.5 -0.2 0 -0.4 -0.7 -0.4 -1.5z"/>
  <path d="M32 57 c0 -1.6 0.7 -2 3.5 -2 3.9 0 4.6 1.4 1.6 3 -3.1 1.6 -5.1 1.2 -5.1 -1z"/>
 </g>
 <g fill="#dfa89f">
  <path d="M43.8 125.3 c-3.6 -0.9 -1.7 -3 4 -4.4 3.6 -0.9 4.9 -1.5 3.5 -1.7 -1.9 -0.3 -2.3 -1 -2.3 -3.8 0 -3.1 -0.2 -3.4 -3 -3.4 -1.6 0 -3 -0.4 -3 -0.9 0 -2.2 2.9 -2.9 10 -2.5 9.7 0.6 10.3 1.2 2.8 2.8 -3.4 0.8 -4 4.6 -0.8 4.6 1.1 0 2 0.7 2 1.5 0 1 1.1 1.5 3.5 1.5 1.9 0 3.5 -0.4 3.5 -1 0 -0.5 0.5 -1 1 -1 0.6 0 1 1.1 1 2.5 0 1.4 -0.4 2.5 -1 2.5 -0.5 0 -1 0.6 -1 1.3 0 1 -1.8 1.4 -6.7 1.4 -3.8 0.1 -7.9 0.3 -9.3 0.6 -1.4 0.3 -3.3 0.3 -4.2 0z"/>
  <path d="M33 121.5 c-1.3 -1.4 -2 -2.5 -1.5 -2.5 0.5 0 -0.9 -1.6 -3.1 -3.5 l-3.9 -3.5 3.8 0 c3.3 0 3.7 0.3 3.7 2.5 0 1.8 0.5 2.5 2 2.5 1.6 0 2 0.7 2 3.5 0 1.9 -0.1 3.5 -0.3 3.5 -0.2 0 -1.4 -1.1 -2.7 -2.5z"/>
  <path d="M34 106 c0 -3.6 0.3 -4 2.4 -4 2.3 0 2.4 0.2 1.6 3.1 -0.5 1.8 -0.7 3.6 -0.4 4 0.3 0.5 -0.4 0.9 -1.5 0.9 -1.8 0 -2.1 -0.6 -2.1 -4z"/>
  <path d="M23 103.6 c0 -1.8 -0.7 -5.2 -1.5 -7.5 -1.4 -4.1 -1.4 -4.1 1 -4.1 2 0 2.5 0.7 3.4 5 1.7 7.7 1.5 10 -0.9 10 -1.6 0 -2 -0.7 -2 -3.4z"/>
  <path d="M43.2 95.5 c0.3 -2.9 0.1 -3.5 -1.4 -3.5 -1 0 -1.8 -0.4 -1.8 -1 0 -0.5 -1.1 -1 -2.5 -1 -1.4 0 -2.5 -0.3 -2.5 -0.7 0 -0.5 2.2 -0.8 4.9 -0.8 6.6 0 9.9 -2.6 12.9 -10.1 1.8 -4.5 2.1 -6.3 1.3 -7.6 -1.6 -2.6 -1.3 -4.8 0.7 -4.8 3.4 0 7.4 5.1 5.2 6.5 -0.6 0.4 0.1 2.5 1.6 5 2.5 4.3 2.5 6.5 0.1 6.5 -0.7 0 -2 0.9 -3 2 -1.2 1.5 -2.4 1.8 -4.7 1.3 -2.6 -0.5 -3.2 -0.2 -3.7 1.6 -0.3 1.1 -0.9 1.8 -1.4 1.5 -0.5 -0.3 -0.9 0 -0.9 0.6 0 0.6 0.7 1.3 1.5 1.6 2 0.8 1.3 1.7 -3.1 4.3 l-3.6 2.2 0.4 -3.6z m14.8 -14 c0 -0.8 0.5 -1.5 1 -1.5 0.6 0 1 -0.4 1 -1 0 -0.5 -0.9 -1 -2 -1 -1.5 0 -2 0.7 -2 2.5 0 1.4 0.5 2.5 1 2.5 0.6 0 1 -0.7 1 -1.5z"/>
  <path d="M68 93.3 c0.1 -3.6 3.4 -6 9 -6.7 3 -0.4 7.2 -1 9.3 -1.3 3.2 -0.4 3.7 -0.2 3.7 1.5 0 1.6 -0.9 2.1 -4.4 2.6 -2.5 0.4 -5.6 1.6 -7 2.7 -1.8 1.4 -3.3 1.8 -5.2 1.3 -1.9 -0.5 -2.5 -0.4 -2 0.5 0.5 0.7 0 1.1 -1.3 1.1 -1.3 0 -2.1 -0.6 -2.1 -1.7z"/>
  <path d="M53.3 92.2 c-1.3 -0.2 -2.3 -0.8 -2.3 -1.3 0 -1.2 4.7 -1.2 5.5 0 0.7 1.3 -0.5 1.8 -3.2 1.3z"/>
  <path d="M19 87.6 c0 -0.8 0.4 -1.7 0.9 -2 0.4 -0.3 0.6 -1.7 0.3 -3.1 -0.2 -1.5 0 -2.5 0.7 -2.5 0.6 0 1.1 -0.7 1.1 -1.5 0 -0.8 0.7 -1.5 1.5 -1.5 0.8 0 1.5 0.5 1.5 1.2 0 0.6 1.2 2.7 2.7 4.7 1.4 2 2 3 1.3 2.4 -2.4 -2.2 -5 -1.6 -5 1.2 0 2 -0.5 2.5 -2.5 2.5 -1.5 0 -2.5 -0.6 -2.5 -1.4z"/>
  <path d="M31.2 84.2 c-1.7 -1.6 -3.3 -4 -3.6 -5.3 -1.8 -9 -1.4 -10.9 3.4 -13.4 3.3 -1.7 6 -2 6 -0.5 0 0.6 -0.7 1 -1.5 1 -0.9 0 -2.9 0.7 -4.5 1.5 -2.3 1.2 -3 2.2 -3 4.5 0 3.1 0.8 3.5 6 3.1 1.9 -0.1 2.6 0.3 2.7 1.8 0.1 1.1 -0.5 2.2 -1.3 2.5 -1.8 0.7 -0.9 2.6 1.1 2.6 2 0 12.9 -5 13.7 -6.4 0.4 -0.6 0.8 0.3 0.8 2.1 0 2.5 -0.8 3.7 -4.2 6.2 -5.7 4.2 -11.3 4.3 -15.6 0.3z"/>
  <path d="M64.5 85.1 c-0.6 -1.1 0.9 -2.3 1.9 -1.4 0.9 0.9 0.7 2.3 -0.3 2.3 -0.6 0 -1.2 -0.4 -1.6 -0.9z"/>
  <path d="M67.6 81.4 c-2.2 -2.1 -2 -2.7 0.4 -1.2 1.1 0.7 2 1.6 2 2 0 1.2 -0.7 1 -2.4 -0.8z"/>
  <path d="M22.7 64.8 c3.3 -4.5 13.6 -16.8 14 -16.8 0.3 0 0.1 1.4 -0.2 3.2 l-0.7 3.2 2.6 -1.7 2.7 -1.8 -0.7 2.8 c-0.7 2.8 -0.7 2.8 1.4 0.9 1.2 -1 2.4 -2.7 2.7 -3.7 0.4 -1.1 1.5 -1.9 2.6 -1.9 1.7 0 1.8 0.3 0.9 2 -1.8 3.4 0.2 2.2 5.2 -3 4.1 -4.3 5.3 -5 8.5 -5 5.3 0 8.3 1 8.3 2.6 0 1.3 1.5 1.8 4.8 1.7 0.6 -0.1 1.2 0.7 1.2 1.6 0.1 1.3 0.3 1.3 1.5 -0.3 1.5 -1.9 1.5 -1.9 1.5 0.2 0 1.5 -0.6 2.2 -1.9 2.2 -2.2 0 -3.7 1.7 -4.3 4.5 -0.2 1.1 -0.8 2 -1.3 2 -3.3 0.2 -6.3 1.8 -7.5 4 -0.9 1.7 -1.9 2.3 -3.1 2 -0.9 -0.3 -2 -0.1 -2.4 0.5 -0.5 0.8 -1.1 0.8 -2 0 -1 -0.8 -1.9 -0.8 -3.4 -0.1 -1.8 1 -2 0.8 -1.8 -1.6 0.5 -7.2 -17.7 -6.7 -24.8 0.7 -2.8 3 -5.7 4.3 -3.8 1.8z m38.1 -8.9 c0.2 -1.3 -0.3 -1.5 -2.3 -1.2 -3.2 0.7 -3.4 3.6 -0.3 3.1 1.3 -0.2 2.4 -1 2.6 -1.9z"/>
  <path d="M38 64.5 c0 -0.8 0.5 -1.5 1 -1.5 0.6 0 1 0.7 1 1.5 0 0.8 -0.4 1.5 -1 1.5 -0.5 0 -1 -0.7 -1 -1.5z"/>
  <path d="M46.9 45.2 c0.6 -1.2 1.6 -2.4 2.2 -2.8 0.8 -0.4 0.8 -0.1 0 1.4 -0.6 1.2 -1.6 2.4 -2.2 2.8 -0.8 0.4 -0.8 0.1 0 -1.4z"/>
 </g>
 <g fill="#e3b6ab">
  <path d="M34.4 123.1 c-1 -1.7 -2.2 -3.1 -2.6 -3.1 -0.4 0 -0.7 -0.4 -0.5 -0.8 0.1 -0.5 -1.7 -2.7 -4 -4.9 -4 -3.8 -4.2 -4.4 -4.2 -9.6 0.1 -3.5 -0.6 -7.1 -2 -10.2 -2.3 -5.3 -2.7 -8.1 -1 -8.7 0.8 -0.3 0.8 -1.4 0 -4.3 -1.8 -6.5 -1.5 -8.5 1.3 -8.5 2 0 2.5 0.7 3.1 3.7 1 5.3 7 11 12.3 11.9 3.7 0.6 3.9 0.8 2.6 2.1 -1.6 1.6 -9.1 1.3 -10.3 -0.4 -0.3 -0.5 -1.4 -1.3 -2.5 -1.6 -1.6 -0.6 -1.7 -0.4 -1.1 1.5 0.4 1.3 1.2 5.5 1.9 9.4 1.4 7.8 2.1 9.4 4.1 9.4 0.7 0 1.6 0.8 1.8 1.8 0.3 0.9 0.5 -1.1 0.6 -4.5 0.1 -5.5 0.4 -6.4 3.2 -8.7 1.7 -1.4 4.1 -2.6 5.5 -2.6 1.4 0 2.4 -0.6 2.4 -1.4 0 -2.4 1.6 -2.7 3.5 -0.6 1.7 1.9 1.7 2 -0.8 2.9 -3.7 1.4 -10.7 8.5 -10.7 10.8 0 3.3 2.3 4.5 5.6 3.2 3.2 -1.3 10.4 -1.2 11.8 0.1 0.6 0.6 0.3 1.2 -0.7 1.6 -2.5 0.9 -2.2 4.4 0.4 4.4 1.9 0 2.1 0.4 1.5 3.1 -0.3 1.7 -0.6 3.6 -0.6 4.1 0 0.6 -0.6 0.8 -1.4 0.5 -0.8 -0.3 -1.7 -0.3 -2 0.1 -0.7 0.7 -0.8 0.7 -9.2 1.7 -6.1 0.7 -6.2 0.6 -8 -2.4z m15.6 -5.1 c0 -1.1 -0.4 -2 -1 -2 -0.5 0 -1 -0.7 -1 -1.5 0 -1.1 -0.5 -1.2 -2.6 -0.5 -1.4 0.6 -3.6 1 -5 1 -1.5 0 -2.4 0.6 -2.4 1.5 0 0.8 0.9 1.5 1.9 1.5 1.1 0 2.3 0.5 2.6 1 0.3 0.6 2.2 1 4.1 1 2.7 0 3.4 -0.4 3.4 -2z"/>
  <path d="M68 93.6 c0 -2.6 4.8 -6.6 8 -6.6 3.7 0 6.5 -1.3 10.3 -4.8 1.5 -1.4 2.7 -2 2.7 -1.3 0 0.7 0.5 0.9 1 0.6 0.7 -0.4 0.7 -1.1 0.2 -1.8 -0.6 -0.8 -0.2 -2.8 1 -5.7 2.5 -5.8 3.4 -4.3 4.1 7.1 0.6 9.1 -0.3 12.6 -2.6 9.9 -1 -1.3 -2.5 -1.8 -5.7 -2.2 -0.3 -0.1 -2.9 0.2 -5.7 0.7 -3.7 0.5 -5.3 1.2 -5.3 2.2 0 0.9 -0.6 1.3 -1.5 0.9 -1.9 -0.7 -4.7 0.3 -3.9 1.5 0.3 0.5 -0.2 0.9 -1 0.9 -0.9 0 -1.6 -0.6 -1.6 -1.4z"/>
  <path d="M46.5 87.2 c3.8 -2.4 4.8 -3.7 6.8 -9.2 1.9 -5.2 2.2 -8 0.7 -8 -0.5 0 -1 -0.9 -1 -2 0 -2.3 0.7 -2.4 4.6 -1 2.3 0.9 2.6 1.4 2.1 4.5 -0.4 2.2 -0.1 3.8 0.8 4.5 2.1 1.8 3.7 7 2.1 7 -0.8 0 -1.9 0.7 -2.6 1.5 -0.7 0.8 -2.8 1.7 -4.9 2.1 -2 0.4 -4 1 -4.6 1.3 -0.5 0.4 -2.3 0.8 -4 0.9 l-3 0.3 3 -1.9z"/>
  <path d="M31.7 84.8 c-1.5 -1.3 -3.6 -4.5 -4.6 -7.3 -1.7 -4.4 -1.7 -5.3 -0.5 -7.7 1.6 -3.1 6.6 -6.1 9.2 -5.6 1 0.2 -0.3 1.1 -3 2.1 -4.4 1.7 -4.8 2.1 -4.8 5.2 0 2.9 0.5 3.5 3.4 4.6 3.7 1.3 3.9 2.9 0.5 2.9 -1.2 0 -1.9 0.5 -1.7 1.3 0.6 1.6 7.9 5.1 8.7 4 0.8 -1.1 4 -3.1 7.1 -4.3 1.4 -0.6 3.1 -1.8 3.8 -2.7 1.1 -1.5 1.2 -1.4 1.2 0.9 0 3.1 -5.1 7.8 -8.5 7.8 -1.2 0 -3.5 0.2 -5.1 0.5 -2.1 0.4 -3.7 -0.1 -5.7 -1.7z"/>
  <path d="M70.3 83.3 c-1.8 -0.9 -3.5 -2.3 -3.8 -3.1 -0.4 -1.1 -0.2 -1.2 0.7 -0.5 2.7 2.1 17.8 -1.1 17.8 -3.7 0 -0.6 0.7 -1 1.5 -1 2.5 0 1.7 2.8 -2 6.5 -4.1 4 -8.6 4.6 -14.2 1.8z"/>
  <path d="M20.2 68.2 c0.6 -1.6 15.3 -19.1 16 -19.1 0.4 -0.1 0.3 1.1 -0.2 2.5 -1.5 3.8 -1.2 4.9 0.8 3.1 2.4 -2.2 3.1 -2.1 2.9 0.3 -0.1 1.6 -1.4 2.4 -5.3 3.6 -5.8 1.6 -10.8 6.1 -9.8 8.7 0.5 1.3 0 1.7 -2.1 1.7 -1.5 0 -2.5 -0.4 -2.3 -0.8z"/>
  <path d="M38 64.5 c0 -1 1 -1.5 2.9 -1.5 1.6 0 3.1 0.6 3.5 1.5 0.4 1.2 -0.3 1.5 -2.9 1.5 -2.4 0 -3.5 -0.5 -3.5 -1.5z"/>
  <path d="M89.1 62.6 c-2.5 -3.9 -2.9 -11.6 -0.7 -11.6 0.9 0 1.8 1.9 2.6 5.2 0.6 2.9 1.3 6.3 1.6 7.5 0.9 3.4 -1.1 2.8 -3.5 -1.1z"/>
  <path d="M54.5 63 c-1.1 -0.5 -1.6 -0.9 -1.1 -0.9 0.5 -0.1 -0.1 -1.2 -1.4 -2.6 -1.8 -1.9 -3.4 -2.5 -6.7 -2.5 -4.7 0 -5.3 -0.8 -2.4 -3.4 1.4 -1.3 2 -1.4 2.3 -0.4 0.6 1.7 7.9 1.8 7.5 0.1 -0.1 -0.7 0.7 -1.9 1.8 -2.8 1.1 -0.9 1.3 -1.3 0.5 -0.9 -1.3 0.7 -1.3 0.6 -0.1 -1 1.1 -1.3 1.6 -1.4 2.2 -0.4 0.4 0.7 0.3 1.8 -0.2 2.4 -0.8 0.9 -0.5 1.1 1.1 0.7 1.1 -0.3 2.3 -0.9 2.6 -1.4 0.9 -1.5 4.4 -1 5 0.6 0.8 2.1 2.8 1.9 4.9 -0.5 2 -2.2 5.5 -2.7 5.5 -0.8 0 0.7 1.2 -0.2 2.8 -1.9 3.8 -4.4 6.5 -5 8.6 -1.8 1.6 2.4 1.6 2.5 -0.9 2.5 -1.4 0 -2.5 0.5 -2.5 1.2 0 0.6 -0.7 1.9 -1.6 2.9 -1.5 1.7 -1.4 1.9 1 2.5 1.9 0.4 2.6 1.3 2.6 2.9 0 2.3 -0.1 2.3 -4.5 0.9 -2.5 -0.7 -6.6 -1.3 -9.2 -1.2 -3.7 0 -4.9 -0.4 -6.4 -2.3 -1 -1.3 -1.9 -1.9 -1.9 -1.2 0 0.6 0.5 1.5 1 1.8 1.5 1 1.2 2.5 -0.7 3.2 -1 0.4 -2.8 1.7 -4 3 -2.4 2.5 -2.8 2.6 -5.8 1.3z"/>
 </g>
 <g fill="#cdbfc6">
  <path d="M25.7 73.7 c-0.3 -0.8 -0.2 -1.9 0.3 -2.6 0.5 -1 0.9 -0.8 1.4 0.4 0.3 0.9 0.6 2.1 0.6 2.6 0 1.4 -1.7 1.1 -2.3 -0.4z"/>
  <path d="M70.4 65.5 c-0.4 -0.8 -1.2 -1.5 -2 -1.5 -2.3 0 -1.6 -2 1.2 -3 4.4 -1.7 5.4 -1.3 5.4 2.5 0 2.9 -0.4 3.5 -2 3.5 -1.1 0 -2.3 -0.7 -2.6 -1.5z"/>
  <path d="M38.7 65.3 c-1.5 -1.4 -0.6 -2.3 2.3 -2.3 2 0 3 0.5 3 1.5 0 1.5 -4 2.1 -5.3 0.8z"/>
 </g>
 <g fill="#f2beb3">
  <path d="M39.6 122.5 c-0.3 -0.8 -1.7 -1.5 -3.2 -1.5 -1.7 0 -2.4 -0.4 -2.1 -1.3 0.3 -0.7 -0.8 -2.2 -2.4 -3.3 -1.6 -1 -2.7 -2.5 -2.4 -3.1 0.2 -0.7 -0.2 -1.3 -1 -1.3 -2 0 -2.7 -1.5 -4.2 -9.9 -2.3 -12.4 -2.6 -15 -1.7 -16.9 0.4 -0.9 0.8 -2.1 0.8 -2.6 0.2 -2 2.6 -1.6 4.1 0.8 3.3 5.1 12.6 7.2 18.5 4.1 4 -2.1 6.6 -5.8 8.1 -11.5 0.7 -2.8 2.1 -5.8 3.1 -6.7 1.8 -1.6 1.9 -1.5 1.6 1.9 -0.1 2 0.4 4.3 1.1 5.2 1.1 1.3 1.1 1.6 0 1.7 -0.8 0 -0.4 0.4 0.9 0.9 2.4 1 3.1 4 0.8 4 -0.7 0 -1.9 0.7 -2.6 1.5 -0.7 0.8 -2.5 1.5 -4 1.5 -1.5 0 -3.3 0.7 -4 1.5 -0.7 0.8 -1.9 1.5 -2.6 1.5 -1.6 0 -1.9 2.6 -0.4 3.5 1.8 1.1 1.1 2.3 -2.7 4.6 -6.4 3.8 -8.3 6 -8.3 9.5 0 3.3 2.9 7 3.7 4.7 0.2 -0.7 1 -1 1.8 -0.7 0.7 0.3 1.6 0.1 2 -0.5 0.7 -1.2 8.8 -1.5 9.9 -0.4 0.3 0.4 -0.2 1.2 -1.2 1.7 -1.6 0.9 -1.8 1.6 -1.1 3.5 0.6 1.5 1.4 2.1 2.4 1.7 1 -0.3 1.5 0.1 1.5 1.3 0 1.4 0.8 1.7 4 1.7 4.4 -0.1 4.6 0.1 2.6 2.9 -1.1 1.5 -1.7 1.7 -2.8 0.7 -0.8 -0.6 -1.7 -0.9 -2.1 -0.6 -0.3 0.3 -4.3 0.7 -9 1 -6.9 0.3 -8.6 0.1 -9.1 -1.1z"/>
  <path d="M73.3 92.3 c-0.7 -0.2 -1.3 -1.3 -1.3 -2.3 0 -1.3 1 -1.9 3.8 -2.3 2 -0.3 4.5 -0.8 5.5 -1.2 0.9 -0.4 1.7 -0.3 1.7 0.2 0 0.5 -1.6 1.5 -3.5 2.2 -1.9 0.7 -3.5 1.9 -3.5 2.7 0 1.4 -0.6 1.6 -2.7 0.7z"/>
  <path d="M30.8 83 l-3.3 -3.1 5.4 2.8 c3.9 2 5.5 2.4 5.8 1.6 0.3 -0.7 1.8 -1.3 3.4 -1.3 1.6 0 2.9 -0.4 2.9 -0.8 0 -0.5 1.2 -1.4 2.6 -2.1 2.3 -1 2.6 -1 2 0.4 -0.3 0.9 -0.6 1.8 -0.6 2.1 0 1.2 -6.6 3.4 -10.4 3.4 -3.7 0 -5.2 -0.6 -7.8 -3z"/>
  <path d="M53.2 67.8 c0.2 -0.6 1 -1.4 1.6 -1.6 0.7 -0.2 1 0.2 0.6 1.2 -0.7 1.8 -2.8 2.2 -2.2 0.4z"/>
  <path d="M27.2 60.4 c1.5 -1.5 3 -2.6 3.3 -2.3 0.2 0.3 -1 1.6 -2.8 2.9 l-3.2 2.3 2.7 -2.9z"/>
  <path d="M53.2 62.3 c0.1 -0.4 -0.3 -1.8 -1 -3 -1 -1.9 -2.1 -2.3 -5.7 -2.3 -4.8 0 -5.9 -1.6 -3 -4 1.2 -1 1.5 -0.9 1.5 0.4 0 1.4 0.7 1.6 3.8 1.1 2.7 -0.5 3.3 -0.4 2.2 0.4 -0.8 0.6 -1 1.1 -0.5 1.1 1.8 0 3.6 -1.7 3.3 -3.1 -0.2 -1 0.5 -1.3 2.2 -1.1 2.6 0.3 4.2 2 3.3 3.5 -0.3 0.5 0.8 0.6 2.5 0.2 1.8 -0.4 3.3 -0.2 3.7 0.5 1 1.7 -2.3 4.8 -5.9 5.5 -1.7 0.4 -3.9 0.9 -4.9 1.2 -1 0.2 -1.6 0.1 -1.5 -0.4z"/>
  <path d="M32.8 53.2 c1.9 -2.3 3.5 -4.2 3.7 -4.2 0.8 0 -2.4 6.5 -3.2 6.5 -0.4 0 -1.5 0.5 -2.3 1 -0.8 0.5 0 -1 1.8 -3.3z"/>
  <path d="M36.6 55.5 c0.4 -0.8 1 -1.5 1.5 -1.5 0.5 0 0.9 0.7 0.9 1.5 0 0.8 -0.7 1.5 -1.5 1.5 -0.9 0 -1.2 -0.6 -0.9 -1.5z"/>
  <path d="M66.6 55.4 c-0.3 -0.7 0.3 -1 1.5 -0.7 2.7 0.7 3.4 2.2 0.9 2 -1 -0.1 -2.2 -0.7 -2.4 -1.3z"/>
 </g>
 <g fill="#f1c8be">
  <path d="M47 121 c-0.7 -1.3 -0.7 -2.1 0 -2.5 0.5 -0.3 1 -1.3 1 -2.1 0 -0.8 -0.4 -1.3 -0.9 -1 -0.5 0.4 -1.1 0.1 -1.3 -0.6 -0.2 -0.6 -1 -0.8 -1.6 -0.4 -0.7 0.4 -1 1.6 -0.7 2.6 0.3 1.1 0 2 -1 2.4 -1.2 0.4 -1.4 0 -1 -1.7 0.5 -1.7 -0.1 -2.6 -2.5 -4 -1.6 -1 -3 -2.2 -3 -2.8 0 -1.4 1.1 -1.1 3.2 0.8 1.3 1.2 2.1 1.4 2.6 0.6 0.4 -0.6 3 -1.4 5.7 -1.8 2.8 -0.3 4.5 -0.3 3.8 0.2 -1.2 0.9 -0.6 6.3 0.8 6.3 1.4 0 1.1 3.8 -0.3 4.7 -2.3 1.4 -3.8 1.2 -4.8 -0.7z"/>
  <path d="M34.5 96.1 c-1.6 -1.9 -3.1 -4.3 -3.1 -5.4 -0.1 -1.1 -0.9 -2.6 -1.8 -3.2 -3 -2.2 -1.6 -2.7 1.8 -0.6 1.8 1.2 4 2.1 4.8 2.1 1 0 2 1.6 2.7 4.3 0.7 2.3 1.4 4.7 1.7 5.2 1.1 2.5 -3.4 0.7 -6.1 -2.4z"/>
  <path d="M81.5 86.1 c2.6 -1.2 4.9 -3.3 6.5 -6 1.7 -2.8 3.1 -4 4.2 -3.7 1 0.2 1.9 -0.3 2.1 -1.3 0.3 -0.9 0.5 0.2 0.6 2.5 0.1 5.5 -1.8 7.9 -6.1 7.6 -2.2 -0.2 -3.9 0.2 -4.7 1.2 -0.8 0.9 -2.5 1.6 -4 1.6 -2.3 0 -2.2 -0.2 1.4 -1.9z"/>
  <path d="M25 86 c-1.2 -0.8 -1.2 -1 -0.1 -1 0.9 0 1.1 -0.7 0.8 -2.2 -0.5 -1.9 -0.5 -2 1 -0.6 2 2 0.5 5.2 -1.7 3.8z"/>
  <path d="M53.5 84.4 c-1.8 -1.3 -1.8 -1.6 -0.2 -4.9 2.3 -4.9 4.5 -5.5 7.4 -2.1 2.6 3 3.1 6.1 0.9 5.3 -0.8 -0.3 -2.5 0.2 -3.8 1.3 -2.1 1.6 -2.6 1.6 -4.3 0.4z"/>
  <path d="M74 83.6 c-1 -1.3 -0.3 -1.8 4.4 -3.1 3.1 -0.9 6.2 -2.5 7 -3.6 2.1 -3 3 -0.5 1 2.6 -3.1 4.8 -9.9 7 -12.4 4.1z"/>
  <path d="M26 72.3 c0 -2.2 0.2 -2.5 1 -1.3 1.3 2 1.3 4 0 4 -0.5 0 -1 -1.2 -1 -2.7z"/>
  <path d="M56 72.3 c0 -0.5 0.7 -1.8 1.5 -2.9 1.5 -1.8 1.5 -1.8 1.3 0.5 -0.3 2.3 -2.8 4.4 -2.8 2.4z"/>
  <path d="M88.2 62.4 c-1.9 -1.9 -5.2 -3.9 -7.5 -4.6 -2.3 -0.6 -4.5 -1.4 -5 -1.8 -0.4 -0.3 0.6 -2.5 2.3 -4.8 1.6 -2.3 3 -4.8 3 -5.6 0 -0.7 1 -1.6 2.1 -1.9 3.2 -0.9 5.4 2.6 7.2 11.3 0.8 4.1 1.8 8.3 2.2 9.3 1.1 2.5 -0.6 1.8 -4.3 -1.9z"/>
 </g>
 <g fill="#f2d7d3">
  <path d="M87.9 80.8 c2.4 -3.9 4.1 -4.7 4.1 -2 0 2.4 -2.5 5.2 -4.7 5.2 -1.2 0 -1.1 -0.6 0.6 -3.2z"/>
  <path d="M83 81.2 c0 -0.5 0.9 -1.7 2 -2.7 2.3 -2.1 2.7 -0.4 0.4 1.9 -1.7 1.8 -2.4 2 -2.4 0.8z"/>
  <path d="M70.5 66 c-0.4 -0.6 0.5 -1 2 -1 1.5 0 2.4 0.4 2 1 -0.3 0.6 -1.2 1 -2 1 -0.8 0 -1.7 -0.4 -2 -1z"/>
  <path d="M38.6 65.1 c-0.3 -0.5 0.1 -1.1 0.9 -1.5 1.8 -0.6 4.5 0.2 4.5 1.5 0 1.2 -4.7 1.2 -5.4 0z"/>
  <path d="M68.2 62 c1 -0.6 2.5 -0.7 4 -0.1 2 0.9 1.8 1 -1.7 1 -3.1 0 -3.6 -0.2 -2.3 -0.9z"/>
  <path d="M85.3 59.9 c-3.6 -2.3 -4.3 -5.2 -1.7 -6.7 1.3 -0.7 1.4 -1.3 0.6 -2.9 -0.9 -1.7 -0.7 -2.2 1.3 -3.1 1.9 -0.9 2.4 -0.8 2.9 0.4 1 2.7 0.6 7.2 -0.6 7.7 -1 0.3 -0.9 1.2 0.4 3.6 2 3.6 1.5 3.8 -2.9 1z"/>
  <path d="M82.6 45.1 c-0.3 -0.5 0.1 -1.1 0.9 -1.5 0.9 -0.3 1.5 0 1.5 0.9 0 1.6 -1.6 2 -2.4 0.6z"/>
 </g>
 <g fill="#fcf5f8">
  <path d="M71.5 66 c-0.3 -0.5 0.3 -1 1.5 -1 1.2 0 1.8 0.5 1.5 1 -0.3 0.6 -1 1 -1.5 1 -0.5 0 -1.2 -0.4 -1.5 -1z"/>
  <path d="M39.5 65.1 c-0.3 -0.5 -0.1 -1.2 0.4 -1.5 1.3 -0.8 4.2 0.4 3.5 1.5 -0.7 1.2 -3.1 1.2 -3.9 0z"/>
  <path d="M68.5 62 c0.3 -0.5 1.7 -1 3.1 -1 1.3 0 2.4 0.5 2.4 1 0 0.6 -1.4 1 -3.1 1 -1.7 0 -2.8 -0.4 -2.4 -1z"/>
 </g>
</svg>