<svg width="605" height="143" viewBox="0 0 605 143" fill="none" xmlns="http://www.w3.org/2000/svg">
<g filter="url(#filter0_i)">
<path d="M99.1016 5.44531H110.844C112.438 5.44531 114.008 5.44531 115.555 5.44531C117.148 5.44531 118.719 5.46875 120.266 5.51562C121.25 5.51562 122.141 5.72656 122.938 6.14844C123.734 6.52344 124.273 6.96875 124.555 7.48438C124.086 8.75 123.664 9.85156 123.289 10.7891C122.961 11.7266 122.633 12.6641 122.305 13.6016C122.117 14.1172 121.953 14.6328 121.812 15.1484C121.719 15.6172 121.625 16.1094 121.531 16.625C120.406 21.5469 119.281 26.4453 118.156 31.3203C117.078 36.1953 115.953 41.0938 114.781 46.0156C113.422 51.5469 112.039 57.0547 110.633 62.5391C109.273 68.0234 107.984 73.5547 106.766 79.1328C105.969 82.8359 105.336 86.5391 104.867 90.2422C104.445 93.9453 103.93 97.6719 103.32 101.422C103.086 102.969 102.781 104.516 102.406 106.062C102.031 107.609 101.656 109.25 101.281 110.984C100.766 110.984 100.227 110.984 99.6641 110.984C99.1484 111.031 98.6328 111.055 98.1172 111.055C93.8047 111.055 89.5156 110.82 85.25 110.352C80.9844 109.883 76.625 109.602 72.1719 109.508C71.4219 105.289 70.7188 101.094 70.0625 96.9219C69.4062 92.75 68.7031 88.6016 67.9531 84.4766C67.2031 80.3047 66.3594 76.1562 65.4219 72.0312C64.4844 67.8594 63.3359 63.7344 61.9766 59.6562C60.8516 61.25 59.9844 62.8672 59.375 64.5078C58.8125 66.1484 58.3906 67.8594 58.1094 69.6406C57.8281 71.2812 57.5 72.8984 57.125 74.4922C56.7969 76.0859 56.4453 77.6797 56.0703 79.2734C54.9453 84.6641 53.8438 90.0312 52.7656 95.375C51.6875 100.672 50.6797 106.016 49.7422 111.406C48.8516 111.688 47.7266 111.898 46.3672 112.039C45.0078 112.18 43.5078 112.25 41.8672 112.25C40.1797 112.25 38.3516 112.18 36.3828 112.039C34.4609 111.898 32.5156 111.688 30.5469 111.406C28.625 111.125 26.7266 110.773 24.8516 110.352C22.9766 109.977 21.2188 109.531 19.5781 109.016C19.3906 107.938 19.1797 106.789 18.9453 105.57C18.7578 104.352 18.6172 103.133 18.5234 101.914C18.3359 95.3984 17.6562 88.9766 16.4844 82.6484C15.3125 76.2734 14.1406 69.9219 12.9688 63.5938C12.7344 62.4688 12.3828 61.3906 11.9141 60.3594C11.4922 59.3281 11.0938 58.2734 10.7188 57.1953C9.64062 54.1953 8.67969 51.2188 7.83594 48.2656C7.03906 45.2656 6.45312 42.1484 6.07812 38.9141C5.51562 34.2266 4.71875 29.6094 3.6875 25.0625C2.70312 20.4688 1.74219 15.8281 0.804688 11.1406C0.664062 10.4375 0.523438 9.71094 0.382812 8.96094C0.289062 8.21094 0.171875 7.41406 0.03125 6.57031C2.14062 6.47656 4.13281 6.38281 6.00781 6.28906C7.92969 6.19531 9.85156 6.10156 11.7734 6.00781C13.0391 5.91406 14.3047 5.82031 15.5703 5.72656C16.8359 5.63281 18.1016 5.49219 19.3672 5.30469C19.6016 5.25781 19.8359 5.23438 20.0703 5.23438C20.3047 5.23438 20.5391 5.23438 20.7734 5.23438C22.1797 5.23438 23.4219 5.5625 24.5 6.21875C25.5781 6.82813 26.4688 7.83594 27.1719 9.24219C27.7812 10.4609 28.2734 11.7266 28.6484 13.0391C29.0234 14.3516 29.5625 15.5937 30.2656 16.7656C31.1094 18.2188 31.6484 19.7188 31.8828 21.2656C32.1641 22.7656 32.4219 24.2891 32.6562 25.8359C32.9375 27.3828 33.2656 28.9297 33.6406 30.4766C34.0156 32.0234 34.3203 33.5703 34.5547 35.1172C35.2578 39.4297 35.9141 43.7422 36.5234 48.0547C37.1797 52.3203 37.5547 56.6562 37.6484 61.0625C37.6484 61.2969 37.7422 61.5781 37.9297 61.9062C38.1172 62.2344 38.3984 62.75 38.7734 63.4531C40.9297 53.5625 43.0156 43.9062 45.0312 34.4844C47.0938 25.0156 49.1562 15.5234 51.2188 6.00781H60.8516C62.0234 6.00781 63.1719 6.00781 64.2969 6.00781C65.4219 6.00781 66.5703 6.03125 67.7422 6.07812C69.4297 6.125 70.7891 6.71094 71.8203 7.83594C72.8984 8.91406 73.7188 10.25 74.2812 11.8438C74.8906 13.3906 75.3125 15.0312 75.5469 16.7656C75.7812 18.4531 75.9453 19.9297 76.0391 21.1953C76.3203 24.9922 76.7891 28.7422 77.4453 32.4453C78.1016 36.1016 78.8516 39.7578 79.6953 43.4141C80.5391 47.0703 81.4062 50.7266 82.2969 54.3828C83.2344 58.0391 84.0781 61.7188 84.8281 65.4219C87.5 55.4844 90.0781 45.5938 92.5625 35.75C95.0938 25.8594 97.2734 15.7578 99.1016 5.44531ZM141.781 1.92969C143.891 1.50781 145.977 1.25 148.039 1.15625C150.148 1.01562 152.234 0.921875 154.297 0.875C156.406 0.828125 158.516 0.78125 160.625 0.734375C162.734 0.6875 164.867 0.546875 167.023 0.3125C166.227 7.20312 165.922 13.9062 166.109 20.4219C166.344 26.9375 166.695 33.5 167.164 40.1094C167.539 39.9219 167.867 39.7812 168.148 39.6875C168.477 39.5938 168.734 39.4531 168.922 39.2656C172.953 35.2344 177.594 33.2188 182.844 33.2188C183.453 33.2188 184.062 33.2656 184.672 33.3594C185.328 33.4062 185.984 33.4766 186.641 33.5703C188.141 33.8047 189.617 34.0156 191.07 34.2031C192.523 34.3906 194 34.625 195.5 34.9062C199.391 35.7031 202.508 37.2734 204.852 39.6172C207.195 41.9609 208.836 45.0312 209.773 48.8281C210.336 51.0312 210.945 53.2109 211.602 55.3672C212.258 57.4766 212.703 59.6562 212.938 61.9062C213.359 65.5156 213.664 69.125 213.852 72.7344C214.039 76.2969 214.156 79.8828 214.203 83.4922C214.297 88.0859 214.273 92.6562 214.133 97.2031C213.992 101.703 213.875 106.203 213.781 110.703C211.578 112.016 209.398 112.672 207.242 112.672C206.305 112.672 205.391 112.578 204.5 112.391C201.734 111.828 198.922 111.453 196.062 111.266C193.203 111.078 190.227 110.82 187.133 110.492C187.086 109.836 187.039 109.062 186.992 108.172C186.945 107.281 186.922 106.367 186.922 105.43C186.828 101.305 186.711 97.25 186.57 93.2656C186.477 89.2344 186.383 85.1797 186.289 81.1016C186.242 78.7109 186.195 76.3672 186.148 74.0703C186.102 71.7734 186.031 69.4531 185.938 67.1094C185.844 65.7969 185.727 64.5078 185.586 63.2422C185.492 61.9766 185.398 60.7109 185.305 59.4453C185.117 58.3203 184.578 57.3359 183.688 56.4922C182.797 55.6016 181.766 54.875 180.594 54.3125C179.422 53.75 178.203 53.3281 176.938 53.0469C175.672 52.7188 174.547 52.5547 173.562 52.5547C172.625 52.5547 171.758 52.6719 170.961 52.9062C170.211 53.0938 169.578 53.4453 169.062 53.9609C168.594 54.3359 168.172 54.8281 167.797 55.4375C167.422 56.0469 167.211 56.6328 167.164 57.1953C167.023 60.8047 166.789 64.4141 166.461 68.0234C166.133 71.5859 165.828 75.1719 165.547 78.7812C165.312 82.3906 165.148 86 165.055 89.6094C164.961 93.2188 165.078 96.8281 165.406 100.438C165.5 101.562 165.617 102.688 165.758 103.812C165.898 104.891 166.016 105.992 166.109 107.117C166.203 108.336 165.969 109.297 165.406 110C164.891 110.656 164.047 111.008 162.875 111.055C161.375 111.102 159.852 111.125 158.305 111.125C156.805 111.125 155.305 111.125 153.805 111.125H141.922C141.734 109.344 141.547 107.609 141.359 105.922C141.172 104.234 141.055 102.547 141.008 100.859C140.914 92.7969 140.82 84.8047 140.727 76.8828C140.633 68.9141 140.633 60.9219 140.727 52.9062C140.773 47.7969 140.938 42.6875 141.219 37.5781C141.5 32.4688 141.688 27.3594 141.781 22.25C141.875 19.5781 141.875 16.9531 141.781 14.375C141.688 11.75 141.617 9.10156 141.57 6.42969C141.57 5.67969 141.594 4.95312 141.641 4.25C141.688 3.5 141.734 2.72656 141.781 1.92969ZM233.398 122.867H238.25C238.766 122.867 239.234 122.867 239.656 122.867C240.125 122.867 240.594 122.891 241.062 122.938C242.141 122.938 242.984 122.75 243.594 122.375C244.25 122.047 244.883 121.438 245.492 120.547C247.18 118.016 248.164 115.508 248.445 113.023C248.773 110.539 248.328 107.82 247.109 104.867C244.859 99.4297 242.727 93.9688 240.711 88.4844C238.695 83 236.703 77.4922 234.734 71.9609C233.562 68.6797 232.484 65.3984 231.5 62.1172C230.516 58.7891 229.461 55.4844 228.336 52.2031C227.586 50 226.789 47.8203 225.945 45.6641C225.102 43.5078 224.281 41.3281 223.484 39.125C223.25 38.4688 223.016 37.7656 222.781 37.0156C222.594 36.2656 222.359 35.4453 222.078 34.5547C223.062 34.4141 223.93 34.2734 224.68 34.1328C225.477 33.9922 226.227 33.9219 226.93 33.9219C229.977 33.9219 232.977 33.9688 235.93 34.0625C238.93 34.1094 241.953 34.1328 245 34.1328C246.5 34.1328 247.672 34.5078 248.516 35.2578C249.406 35.9609 250.133 36.9922 250.695 38.3516C251.68 40.9766 252.547 43.6016 253.297 46.2266C254.094 48.8516 254.82 51.5234 255.477 54.2422C256.227 57.1953 257.211 60.1016 258.43 62.9609C259.648 65.7734 260.82 68.6562 261.945 71.6094C263.727 65.4688 265.484 59.375 267.219 53.3281C269 47.2812 270.781 41.0938 272.562 34.7656C276.359 34.625 280.227 34.4844 284.164 34.3438C288.102 34.2031 292.062 34.0859 296.047 33.9922C296.375 33.9922 296.727 34.1328 297.102 34.4141C297.477 34.6484 297.969 34.9062 298.578 35.1875C298.391 36.5 298.25 37.8594 298.156 39.2656C298.062 40.625 297.852 41.9844 297.523 43.3438C296.586 47.6094 295.648 51.875 294.711 56.1406C293.82 60.3594 292.742 64.5547 291.477 68.7266C290.492 71.8672 289.297 74.9375 287.891 77.9375C286.484 80.8906 285.102 83.8906 283.742 86.9375C282.242 90.3125 280.672 93.6641 279.031 96.9922C277.438 100.273 275.961 103.625 274.602 107.047C273.57 109.625 272.633 112.25 271.789 114.922C270.992 117.594 270.266 120.266 269.609 122.938C268.812 126.266 267.453 129.102 265.531 131.445C263.656 133.789 261.453 135.992 258.922 138.055C256.625 139.977 254.211 141.242 251.68 141.852C249.148 142.461 246.547 142.766 243.875 142.766C242.797 142.766 241.742 142.742 240.711 142.695C239.68 142.648 238.625 142.578 237.547 142.484C235.812 142.344 234.688 141.922 234.172 141.219C233.703 140.562 233.445 139.414 233.398 137.773V122.867ZM365.375 31.8125C365.469 33.1719 365.539 34.4375 365.586 35.6094C365.633 36.7812 365.703 38.1172 365.797 39.6172C367.906 37.5078 369.992 35.7031 372.055 34.2031C374.117 32.7031 376.555 31.7656 379.367 31.3906C380.867 31.1562 382.367 30.9219 383.867 30.6875C385.414 30.4531 386.938 30.3359 388.438 30.3359C389.609 30.3359 390.758 30.4531 391.883 30.6875C393.008 30.875 394.109 31.2734 395.188 31.8828C397.484 33.0547 399.617 34.4844 401.586 36.1719C403.602 37.8594 405.688 39.5 407.844 41.0938C408.594 40.1562 409.391 39.1484 410.234 38.0703C411.078 36.9922 411.992 35.9609 412.977 34.9766C415.648 33.0078 418.227 31.7656 420.711 31.25C423.195 30.6875 425.469 30.4062 427.531 30.4062C428.562 30.4062 429.5 30.4297 430.344 30.4766C431.234 30.5234 432.008 30.5469 432.664 30.5469H433.086C435.102 30.5469 436.93 30.8281 438.57 31.3906C440.258 31.9531 441.969 32.75 443.703 33.7812C444.875 34.4375 445.906 35.3516 446.797 36.5234C447.734 37.6953 448.531 38.8906 449.188 40.1094C450.266 42.0781 451.25 44.0938 452.141 46.1562C453.031 48.2188 453.875 50.3047 454.672 52.4141C454.953 53.1641 455.094 53.9844 455.094 54.875C455.141 55.7188 455.164 56.5391 455.164 57.3359C455.211 62.8672 455.234 68.375 455.234 73.8594C455.281 79.2969 455.258 84.7812 455.164 90.3125C455.117 93.125 455 95.9141 454.812 98.6797C454.625 101.398 454.461 104.164 454.32 106.977C454.273 108.102 453.922 108.922 453.266 109.438C452.656 109.953 451.859 110.234 450.875 110.281C450.078 110.328 449.305 110.352 448.555 110.352C447.805 110.352 447.031 110.352 446.234 110.352C444.5 110.352 442.789 110.328 441.102 110.281C439.414 110.281 437.703 110.211 435.969 110.07C434.75 109.977 433.812 109.883 433.156 109.789C432.5 109.695 431.984 109.484 431.609 109.156C431.281 108.781 431.047 108.242 430.906 107.539C430.766 106.836 430.602 105.852 430.414 104.586C429.383 98.2578 428.844 91.9531 428.797 85.6719C428.75 79.3906 428.703 73.0859 428.656 66.7578C428.656 65.8203 428.68 64.4844 428.727 62.75C428.773 60.9688 428.609 59.1875 428.234 57.4062C427.859 55.5781 427.109 53.9844 425.984 52.625C424.906 51.2656 423.195 50.5625 420.852 50.5156C420.711 50.4688 420.453 50.4453 420.078 50.4453C419.609 50.4453 419.094 50.5625 418.531 50.7969C417.969 50.9844 417.406 51.2188 416.844 51.5C416.328 51.7812 415.859 52.0625 415.438 52.3438C415.016 52.625 414.688 52.8594 414.453 53.0469C413.516 53.75 412.812 54.4297 412.344 55.0859C411.922 55.7422 411.641 56.4922 411.5 57.3359C411.359 58.1328 411.312 59.0469 411.359 60.0781C411.453 61.1094 411.5 62.375 411.5 63.875C411.547 65.4688 411.547 67.1797 411.5 69.0078C411.5 70.7891 411.477 72.5703 411.43 74.3516C411.43 76.1328 411.43 77.8906 411.43 79.625C411.43 81.3594 411.43 82.9766 411.43 84.4766C411.43 87.9453 411.359 91.3906 411.219 94.8125C411.078 98.2344 410.891 101.656 410.656 105.078C410.562 106.812 410.328 107.984 409.953 108.594C409.625 109.156 408.852 109.438 407.633 109.438C407.398 109.438 407.141 109.438 406.859 109.438C406.625 109.391 406.344 109.344 406.016 109.297C404.797 109.203 403.602 109.133 402.43 109.086C401.258 109.039 400.086 109.016 398.914 109.016C397.414 109.016 395.914 109.062 394.414 109.156C392.914 109.203 391.414 109.273 389.914 109.367C389.68 109.414 389.375 109.438 389 109.438C387.875 109.438 387.102 109.18 386.68 108.664C386.305 108.102 386.141 107.117 386.188 105.711C386.281 102.57 386.398 99.4297 386.539 96.2891C386.727 93.1484 386.867 89.9844 386.961 86.7969C387.055 82.0156 387.078 77.2812 387.031 72.5938C386.984 67.8594 386.609 63.125 385.906 58.3906C385.812 57.7344 385.602 57.1016 385.273 56.4922C384.992 55.8828 384.781 55.25 384.641 54.5938C384.266 52.9531 383.562 51.6875 382.531 50.7969C381.5 49.9062 380.258 49.4609 378.805 49.4609C378.055 49.4609 377.258 49.6016 376.414 49.8828C375.617 50.1172 374.797 50.5156 373.953 51.0781C372.406 52.0625 371.094 53.2344 370.016 54.5938C368.984 55.9531 368.352 57.7344 368.117 59.9375C367.695 63.875 367.438 67.7891 367.344 71.6797C367.297 75.5234 367.32 79.4141 367.414 83.3516C367.461 85.7422 367.461 88.1562 367.414 90.5938C367.367 92.9844 367.367 95.375 367.414 97.7656C367.461 99.0781 367.531 100.367 367.625 101.633C367.766 102.898 367.883 104.164 367.977 105.43C368.07 106.742 367.789 107.867 367.133 108.805C366.523 109.742 365.633 110.211 364.461 110.211C364.227 110.211 364.062 110.188 363.969 110.141C362.891 110.047 361.836 109.977 360.805 109.93C359.773 109.836 358.742 109.789 357.711 109.789C355.977 109.789 354.242 109.859 352.508 110C350.82 110.094 349.109 110.188 347.375 110.281C347.141 110.328 346.906 110.352 346.672 110.352C346.438 110.352 346.227 110.352 346.039 110.352C345.383 110.352 344.867 110.281 344.492 110.141C344.117 110 343.812 109.766 343.578 109.438C343.391 109.109 343.25 108.664 343.156 108.102C343.062 107.539 342.969 106.812 342.875 105.922C342.359 102.125 342.195 98.375 342.383 94.6719C342.617 90.9688 342.734 87.2422 342.734 83.4922C342.688 77.3516 342.688 71.2578 342.734 65.2109C342.828 59.1641 342.898 53.0703 342.945 46.9297C342.992 45.1484 342.992 43.3672 342.945 41.5859C342.945 39.8047 342.945 38.0234 342.945 36.2422C342.945 35.2578 342.992 34.4844 343.086 33.9219C343.18 33.3594 343.367 32.9609 343.648 32.7266C343.93 32.4453 344.352 32.2812 344.914 32.2344C345.477 32.1406 346.273 32.0703 347.305 32.0234C349.18 31.9766 351.031 31.8828 352.859 31.7422C354.734 31.6016 356.609 31.4844 358.484 31.3906H359.047C360.078 31.3906 361.109 31.4375 362.141 31.5312C363.172 31.625 364.25 31.7188 365.375 31.8125ZM532.859 78.5C529.203 78.7344 525.5 78.8984 521.75 78.9922C518 79.0859 514.227 79.3906 510.43 79.9062C509.539 80 508.672 80.0703 507.828 80.1172C506.984 80.1641 506.117 80.1875 505.227 80.1875C503.586 80.1875 501.945 80.1406 500.305 80.0469C498.664 79.9531 497 79.9062 495.312 79.9062C493.953 79.9062 492.594 79.9766 491.234 80.1172C489.922 80.2109 488.586 80.4219 487.227 80.75C488.258 82.3438 489.383 83.7031 490.602 84.8281C491.82 85.9531 493.109 86.8906 494.469 87.6406C495.828 88.3906 497.258 89.0234 498.758 89.5391C500.305 90.0547 501.875 90.5234 503.469 90.9453C504.594 91.2734 505.742 91.4375 506.914 91.4375C508.273 91.4375 509.562 91.25 510.781 90.875C512 90.4531 513.195 89.9609 514.367 89.3984C515.539 88.7891 516.688 88.1562 517.812 87.5C518.984 86.7969 520.203 86.1406 521.469 85.5312C523.016 87.3594 524.562 89.2109 526.109 91.0859C527.656 92.9141 529.203 94.7422 530.75 96.5703C530.469 97.2266 530.258 97.8125 530.117 98.3281C530.023 98.8438 529.836 99.2422 529.555 99.5234C527.633 101.258 525.758 103.039 523.93 104.867C522.148 106.648 520.156 108.172 517.953 109.438C515.281 110.984 512.422 112.062 509.375 112.672C506.375 113.328 503.328 113.773 500.234 114.008C498.547 114.008 496.766 113.82 494.891 113.445C493.062 113.117 491.211 112.648 489.336 112.039C487.508 111.477 485.703 110.844 483.922 110.141C482.188 109.484 480.57 108.805 479.07 108.102C475.836 106.602 473.117 104.609 470.914 102.125C468.758 99.6406 467 96.7812 465.641 93.5469C464.516 90.8281 463.555 88.0859 462.758 85.3203C461.961 82.5078 461.75 79.5781 462.125 76.5312C462.219 75.9688 462.195 75.5 462.055 75.125C461.586 73.2031 461.305 71.3047 461.211 69.4297C461.164 67.5078 461.258 65.6094 461.492 63.7344C461.727 61.8125 462.055 59.9375 462.477 58.1094C462.945 56.2344 463.438 54.3594 463.953 52.4844C464.609 50.1406 465.5 48.0078 466.625 46.0859C467.797 44.1641 469.344 42.4531 471.266 40.9531C473.047 39.5938 474.828 38.2578 476.609 36.9453C478.391 35.5859 480.242 34.2969 482.164 33.0781C484.414 31.6719 486.805 30.8281 489.336 30.5469C491.914 30.2656 494.469 30.1016 497 30.0547C497.656 30.0078 498.289 29.9844 498.898 29.9844C499.555 29.9844 500.211 29.9844 500.867 29.9844C503.82 29.9844 506.727 30.1953 509.586 30.6172C512.492 30.9922 515.352 31.9297 518.164 33.4297C520.93 34.9297 523.32 36.7578 525.336 38.9141C527.352 41.0703 528.852 43.5781 529.836 46.4375C531.57 51.4062 532.719 56.4688 533.281 61.625C533.891 66.7344 533.961 71.9141 533.492 77.1641C533.492 77.3047 533.445 77.4688 533.352 77.6562C533.258 77.8438 533.094 78.125 532.859 78.5ZM510.359 62.1172C509 54.5234 505.625 50.7266 500.234 50.7266C500 50.7266 499.766 50.75 499.531 50.7969C499.297 50.7969 499.062 50.7969 498.828 50.7969C491.797 51.6406 488.445 55.4141 488.773 62.1172H510.359ZM579.195 78.2891H561.969C561.172 78.2422 560.492 78.0078 559.93 77.5859C559.367 77.1641 559.109 76.5078 559.156 75.6172C559.25 73.8359 559.344 72.0781 559.438 70.3438C559.578 68.5625 559.812 66.8281 560.141 65.1406C560.469 63.4062 560.961 61.7188 561.617 60.0781C562.32 58.4375 563.258 56.8672 564.43 55.3672C565.602 53.8672 566.844 52.4844 568.156 51.2188C569.516 49.9531 571.086 48.9219 572.867 48.125C576.523 46.3906 578.352 43.5078 578.352 39.4766C578.352 38.0703 578.234 36.6641 578 35.2578C577.812 33.8047 577.578 32.375 577.297 30.9688C577.203 30.5469 576.969 30.125 576.594 29.7031C576.266 29.2812 575.891 28.9531 575.469 28.7188C575.141 28.4844 574.695 28.3203 574.133 28.2266C573.617 28.1328 573.031 28.0859 572.375 28.0859C571.016 28.0859 569.633 28.2734 568.227 28.6484C566.82 28.9766 565.812 29.4453 565.203 30.0547C563.891 31.3203 563.023 32.7031 562.602 34.2031C562.18 35.7031 562.531 37.4375 563.656 39.4062C563.047 39.5938 562.461 39.8047 561.898 40.0391C561.383 40.2734 560.867 40.3906 560.352 40.3906C558.758 40.3906 557.164 40.3438 555.57 40.25C554.023 40.1562 552.453 40.0625 550.859 39.9688C548.562 39.8281 546.266 39.6641 543.969 39.4766C541.719 39.2422 539.469 38.9844 537.219 38.7031C537.5 36.3594 537.875 33.9922 538.344 31.6016C538.859 29.2109 539.562 26.9141 540.453 24.7109C541.344 22.4609 542.492 20.375 543.898 18.4531C545.305 16.5313 547.039 14.8672 549.102 13.4609C552.57 11.1641 556.297 9.33594 560.281 7.97656C564.266 6.57031 568.344 5.86719 572.516 5.86719C573.828 5.86719 575.117 5.96094 576.383 6.14844C577.695 6.33594 578.984 6.64062 580.25 7.0625C580.906 7.25 581.539 7.39063 582.148 7.48438C582.805 7.53125 583.461 7.60156 584.117 7.69531C589.648 8.63281 594.078 10.9297 597.406 14.5859C600.734 18.2422 602.891 22.7891 603.875 28.2266C604.391 31.1328 604.484 33.875 604.156 36.4531C603.828 38.9844 603.172 41.3984 602.188 43.6953C601.203 45.9453 599.961 48.1016 598.461 50.1641C596.961 52.2266 595.297 54.2422 593.469 56.2109C592.438 57.3359 591.336 58.3906 590.164 59.375C589.039 60.3594 587.914 61.3672 586.789 62.3984C584.445 64.4609 582.547 66.7578 581.094 69.2891C579.688 71.7734 579.055 74.7734 579.195 78.2891ZM580.461 108.945C580.32 109.508 579.992 109.953 579.477 110.281C578.961 110.656 578.375 110.938 577.719 111.125C577.109 111.312 576.523 111.43 575.961 111.477C575.445 111.523 575.07 111.547 574.836 111.547C572.727 111.453 570.617 111.336 568.508 111.195C566.445 111.055 564.43 110.727 562.461 110.211C561.242 109.883 560.188 109.203 559.297 108.172C558.406 107.094 558.008 105.711 558.102 104.023C558.195 101.867 558.219 99.7109 558.172 97.5547C558.125 95.3984 558.125 93.2188 558.172 91.0156C558.172 90.5 558.242 90.0078 558.383 89.5391C558.523 89.0703 558.641 88.5781 558.734 88.0625C558.875 87.125 559.203 86.5156 559.719 86.2344C560.234 85.9531 560.938 85.8125 561.828 85.8125C563.984 85.9531 566.141 86.1172 568.297 86.3047C570.453 86.4453 572.609 86.5625 574.766 86.6562C575.703 86.7031 576.477 86.7969 577.086 86.9375C577.742 87.0781 578.258 87.3125 578.633 87.6406C579.055 87.9688 579.383 88.4375 579.617 89.0469C579.852 89.6094 580.039 90.3828 580.18 91.3672C580.508 93.5234 580.766 95.6797 580.953 97.8359C581.188 99.9922 581.375 102.148 581.516 104.305C581.562 105.055 581.445 105.805 581.164 106.555C580.93 107.305 580.695 108.102 580.461 108.945Z" fill="#E29578"/>
</g>
<defs>
<filter id="filter0_i" x="0.03125" y="0.3125" width="604.316" height="146.453" filterUnits="userSpaceOnUse" color-interpolation-filters="sRGB">
<feFlood flood-opacity="0" result="BackgroundImageFix"/>
<feBlend mode="normal" in="SourceGraphic" in2="BackgroundImageFix" result="shape"/>
<feColorMatrix in="SourceAlpha" type="matrix" values="0 0 0 0 0 0 0 0 0 0 0 0 0 0 0 0 0 0 127 0" result="hardAlpha"/>
<feOffset dy="4"/>
<feGaussianBlur stdDeviation="2"/>
<feComposite in2="hardAlpha" operator="arithmetic" k2="-1" k3="1"/>
<feColorMatrix type="matrix" values="0 0 0 0 0 0 0 0 0 0 0 0 0 0 0 0 0 0 0.25 0"/>
<feBlend mode="normal" in2="shape" result="effect1_innerShadow"/>
</filter>
</defs>
</svg>
